<svg width="395" height="354" viewBox="0 0 395 354" fill="none" xmlns="http://www.w3.org/2000/svg">
<g filter="url(#filter0_d_0_1)">
<rect x="18" y="14" width="359" height="318" rx="20" fill="white"/>
</g>
<circle cx="79" cy="91" r="10" fill="#519446"/>
<circle cx="79" cy="143" r="15" fill="#519446"/>
<circle cx="79" cy="201" r="20" fill="#519446"/>
<circle cx="80" cy="272" r="20" fill="#519446"/>
<line x1="78.5" y1="123.053" x2="78.5" y2="103.948" stroke="black"/>
<line x1="78.5" y1="178.105" x2="78.5" y2="159" stroke="black"/>
<line x1="79.5" y1="245.105" x2="79.5" y2="226" stroke="black"/>
<path d="M73 273L77 277L87 267" stroke="white" stroke-width="2" stroke-linecap="round" stroke-linejoin="round"/>
<path d="M78.408 55.168C76.856 55.168 75.424 54.808 74.112 54.088C72.816 53.352 71.784 52.336 71.016 51.04C70.264 49.728 69.888 48.256 69.888 46.624C69.888 44.992 70.264 43.528 71.016 42.232C71.784 40.936 72.816 39.928 74.112 39.208C75.424 38.472 76.856 38.104 78.408 38.104C79.976 38.104 81.408 38.472 82.704 39.208C84.016 39.928 85.048 40.936 85.8 42.232C86.552 43.528 86.928 44.992 86.928 46.624C86.928 48.256 86.552 49.728 85.8 51.04C85.048 52.336 84.016 53.352 82.704 54.088C81.408 54.808 79.976 55.168 78.408 55.168ZM78.408 52.792C79.512 52.792 80.496 52.544 81.36 52.048C82.224 51.536 82.896 50.816 83.376 49.888C83.872 48.944 84.12 47.856 84.12 46.624C84.12 45.392 83.872 44.312 83.376 43.384C82.896 42.456 82.224 41.744 81.36 41.248C80.496 40.752 79.512 40.504 78.408 40.504C77.304 40.504 76.32 40.752 75.456 41.248C74.592 41.744 73.912 42.456 73.416 43.384C72.936 44.312 72.696 45.392 72.696 46.624C72.696 47.856 72.936 48.944 73.416 49.888C73.912 50.816 74.592 51.536 75.456 52.048C76.32 52.544 77.304 52.792 78.408 52.792ZM101.596 41.776V55H98.8603V53.44C98.4283 53.984 97.8603 54.416 97.1563 54.736C96.4683 55.04 95.7323 55.192 94.9483 55.192C93.9083 55.192 92.9723 54.976 92.1403 54.544C91.3243 54.112 90.6763 53.472 90.1963 52.624C89.7323 51.776 89.5003 50.752 89.5003 49.552V41.776H92.2123V49.144C92.2123 50.328 92.5083 51.24 93.1003 51.88C93.6923 52.504 94.5003 52.816 95.5243 52.816C96.5483 52.816 97.3563 52.504 97.9483 51.88C98.5563 51.24 98.8603 50.328 98.8603 49.144V41.776H101.596ZM107.942 43.696C108.342 43.024 108.87 42.504 109.526 42.136C110.198 41.752 110.99 41.56 111.902 41.56V44.392H111.206C110.134 44.392 109.318 44.664 108.758 45.208C108.214 45.752 107.942 46.696 107.942 48.04V55H105.206V41.776H107.942V43.696ZM129.316 55L125.476 48.328H123.388V55H120.652V38.32H126.412C127.692 38.32 128.772 38.544 129.652 38.992C130.548 39.44 131.212 40.04 131.644 40.792C132.092 41.544 132.316 42.384 132.316 43.312C132.316 44.4 131.996 45.392 131.356 46.288C130.732 47.168 129.764 47.768 128.452 48.088L132.58 55H129.316ZM123.388 46.144H126.412C127.436 46.144 128.204 45.888 128.716 45.376C129.244 44.864 129.508 44.176 129.508 43.312C129.508 42.448 129.252 41.776 128.74 41.296C128.228 40.8 127.452 40.552 126.412 40.552H123.388V46.144ZM147.936 48.064C147.936 48.56 147.904 49.008 147.84 49.408H137.736C137.816 50.464 138.208 51.312 138.912 51.952C139.616 52.592 140.48 52.912 141.504 52.912C142.976 52.912 144.016 52.296 144.624 51.064H147.576C147.176 52.28 146.448 53.28 145.392 54.064C144.352 54.832 143.056 55.216 141.504 55.216C140.24 55.216 139.104 54.936 138.096 54.376C137.104 53.8 136.32 53 135.744 51.976C135.184 50.936 134.904 49.736 134.904 48.376C134.904 47.016 135.176 45.824 135.72 44.8C136.28 43.76 137.056 42.96 138.048 42.4C139.056 41.84 140.208 41.56 141.504 41.56C142.752 41.56 143.864 41.832 144.84 42.376C145.816 42.92 146.576 43.688 147.12 44.68C147.664 45.656 147.936 46.784 147.936 48.064ZM145.08 47.2C145.064 46.192 144.704 45.384 144 44.776C143.296 44.168 142.424 43.864 141.384 43.864C140.44 43.864 139.632 44.168 138.96 44.776C138.288 45.368 137.888 46.176 137.76 47.2H145.08ZM153.364 43.72C153.828 43.112 154.46 42.6 155.26 42.184C156.06 41.768 156.964 41.56 157.972 41.56C159.124 41.56 160.172 41.848 161.116 42.424C162.076 42.984 162.828 43.776 163.372 44.8C163.916 45.824 164.188 47 164.188 48.328C164.188 49.656 163.916 50.848 163.372 51.904C162.828 52.944 162.076 53.76 161.116 54.352C160.172 54.928 159.124 55.216 157.972 55.216C156.964 55.216 156.068 55.016 155.284 54.616C154.5 54.2 153.86 53.688 153.364 53.08V61.288H150.628V41.776H153.364V43.72ZM161.404 48.328C161.404 47.416 161.212 46.632 160.828 45.976C160.46 45.304 159.964 44.8 159.34 44.464C158.732 44.112 158.076 43.936 157.372 43.936C156.684 43.936 156.028 44.112 155.404 44.464C154.796 44.816 154.3 45.328 153.916 46C153.548 46.672 153.364 47.464 153.364 48.376C153.364 49.288 153.548 50.088 153.916 50.776C154.3 51.448 154.796 51.96 155.404 52.312C156.028 52.664 156.684 52.84 157.372 52.84C158.076 52.84 158.732 52.664 159.34 52.312C159.964 51.944 160.46 51.416 160.828 50.728C161.212 50.04 161.404 49.24 161.404 48.328ZM172.63 55.216C171.382 55.216 170.254 54.936 169.246 54.376C168.238 53.8 167.446 53 166.87 51.976C166.294 50.936 166.006 49.736 166.006 48.376C166.006 47.032 166.302 45.84 166.894 44.8C167.486 43.76 168.294 42.96 169.318 42.4C170.342 41.84 171.486 41.56 172.75 41.56C174.014 41.56 175.158 41.84 176.182 42.4C177.206 42.96 178.014 43.76 178.606 44.8C179.198 45.84 179.494 47.032 179.494 48.376C179.494 49.72 179.19 50.912 178.582 51.952C177.974 52.992 177.142 53.8 176.086 54.376C175.046 54.936 173.894 55.216 172.63 55.216ZM172.63 52.84C173.334 52.84 173.99 52.672 174.598 52.336C175.222 52 175.726 51.496 176.11 50.824C176.494 50.152 176.686 49.336 176.686 48.376C176.686 47.416 176.502 46.608 176.134 45.952C175.766 45.28 175.278 44.776 174.67 44.44C174.062 44.104 173.406 43.936 172.702 43.936C171.998 43.936 171.342 44.104 170.734 44.44C170.142 44.776 169.67 45.28 169.318 45.952C168.966 46.608 168.79 47.416 168.79 48.376C168.79 49.8 169.15 50.904 169.87 51.688C170.606 52.456 171.526 52.84 172.63 52.84ZM184.934 43.696C185.334 43.024 185.862 42.504 186.518 42.136C187.19 41.752 187.982 41.56 188.894 41.56V44.392H188.198C187.126 44.392 186.31 44.664 185.75 45.208C185.206 45.752 184.934 46.696 184.934 48.04V55H182.198V41.776H184.934V43.696ZM194.601 44.008V51.328C194.601 51.824 194.713 52.184 194.937 52.408C195.177 52.616 195.577 52.72 196.137 52.72H197.817V55H195.657C194.425 55 193.481 54.712 192.825 54.136C192.169 53.56 191.841 52.624 191.841 51.328V44.008H190.281V41.776H191.841V38.488H194.601V41.776H197.817V44.008H194.601Z" fill="#0D333E"/>
<path d="M118.602 90.098C118.602 90.91 118.322 91.5867 117.762 92.128C117.211 92.66 116.367 92.926 115.228 92.926H113.352V97H112.078V87.242H115.228C116.329 87.242 117.165 87.508 117.734 88.04C118.313 88.572 118.602 89.258 118.602 90.098ZM115.228 91.876C115.937 91.876 116.46 91.722 116.796 91.414C117.132 91.106 117.3 90.6673 117.3 90.098C117.3 88.894 116.609 88.292 115.228 88.292H113.352V91.876H115.228ZM121.459 90.574C121.683 90.1353 122.001 89.7947 122.411 89.552C122.831 89.3093 123.34 89.188 123.937 89.188V90.504H123.601C122.173 90.504 121.459 91.2787 121.459 92.828V97H120.185V89.328H121.459V90.574ZM132.408 92.87C132.408 93.1127 132.394 93.3693 132.366 93.64H126.234C126.281 94.396 126.537 94.9887 127.004 95.418C127.48 95.838 128.054 96.048 128.726 96.048C129.277 96.048 129.734 95.922 130.098 95.67C130.471 95.4087 130.733 95.0633 130.882 94.634H132.254C132.049 95.3713 131.638 95.9733 131.022 96.44C130.406 96.8973 129.641 97.126 128.726 97.126C127.998 97.126 127.345 96.9627 126.766 96.636C126.197 96.3093 125.749 95.8473 125.422 95.25C125.095 94.6433 124.932 93.9433 124.932 93.15C124.932 92.3567 125.091 91.6613 125.408 91.064C125.725 90.4667 126.169 90.0093 126.738 89.692C127.317 89.3653 127.979 89.202 128.726 89.202C129.454 89.202 130.098 89.3607 130.658 89.678C131.218 89.9953 131.647 90.434 131.946 90.994C132.254 91.5447 132.408 92.17 132.408 92.87ZM131.092 92.604C131.092 92.1187 130.985 91.7033 130.77 91.358C130.555 91.0033 130.261 90.7373 129.888 90.56C129.524 90.3733 129.118 90.28 128.67 90.28C128.026 90.28 127.475 90.4853 127.018 90.896C126.57 91.3067 126.313 91.876 126.248 92.604H131.092ZM139.41 91.33V92.408H133.824V91.33H139.41ZM143.075 90.574C143.299 90.1353 143.616 89.7947 144.027 89.552C144.447 89.3093 144.955 89.188 145.553 89.188V90.504H145.217C143.789 90.504 143.075 91.2787 143.075 92.828V97H141.801V89.328H143.075V90.574ZM154.023 92.87C154.023 93.1127 154.009 93.3693 153.981 93.64H147.849C147.896 94.396 148.153 94.9887 148.619 95.418C149.095 95.838 149.669 96.048 150.341 96.048C150.892 96.048 151.349 95.922 151.713 95.67C152.087 95.4087 152.348 95.0633 152.497 94.634H153.869C153.664 95.3713 153.253 95.9733 152.637 96.44C152.021 96.8973 151.256 97.126 150.341 97.126C149.613 97.126 148.96 96.9627 148.381 96.636C147.812 96.3093 147.364 95.8473 147.037 95.25C146.711 94.6433 146.547 93.9433 146.547 93.15C146.547 92.3567 146.706 91.6613 147.023 91.064C147.341 90.4667 147.784 90.0093 148.353 89.692C148.932 89.3653 149.595 89.202 150.341 89.202C151.069 89.202 151.713 89.3607 152.273 89.678C152.833 89.9953 153.263 90.434 153.561 90.994C153.869 91.5447 154.023 92.17 154.023 92.87ZM152.707 92.604C152.707 92.1187 152.6 91.7033 152.385 91.358C152.171 91.0033 151.877 90.7373 151.503 90.56C151.139 90.3733 150.733 90.28 150.285 90.28C149.641 90.28 149.091 90.4853 148.633 90.896C148.185 91.3067 147.929 91.876 147.863 92.604H152.707ZM158.561 95.824L160.941 89.328H162.299L159.289 97H157.805L154.795 89.328H156.167L158.561 95.824ZM164.211 88.082C163.968 88.082 163.763 87.998 163.595 87.83C163.427 87.662 163.343 87.4567 163.343 87.214C163.343 86.9713 163.427 86.766 163.595 86.598C163.763 86.43 163.968 86.346 164.211 86.346C164.444 86.346 164.64 86.43 164.799 86.598C164.967 86.766 165.051 86.9713 165.051 87.214C165.051 87.4567 164.967 87.662 164.799 87.83C164.64 87.998 164.444 88.082 164.211 88.082ZM164.827 89.328V97H163.553V89.328H164.827ZM173.998 92.87C173.998 93.1127 173.984 93.3693 173.956 93.64H167.824C167.871 94.396 168.127 94.9887 168.594 95.418C169.07 95.838 169.644 96.048 170.316 96.048C170.867 96.048 171.324 95.922 171.688 95.67C172.061 95.4087 172.323 95.0633 172.472 94.634H173.844C173.639 95.3713 173.228 95.9733 172.612 96.44C171.996 96.8973 171.231 97.126 170.316 97.126C169.588 97.126 168.935 96.9627 168.356 96.636C167.787 96.3093 167.339 95.8473 167.012 95.25C166.685 94.6433 166.522 93.9433 166.522 93.15C166.522 92.3567 166.681 91.6613 166.998 91.064C167.315 90.4667 167.759 90.0093 168.328 89.692C168.907 89.3653 169.569 89.202 170.316 89.202C171.044 89.202 171.688 89.3607 172.248 89.678C172.808 89.9953 173.237 90.434 173.536 90.994C173.844 91.5447 173.998 92.17 173.998 92.87ZM172.682 92.604C172.682 92.1187 172.575 91.7033 172.36 91.358C172.145 91.0033 171.851 90.7373 171.478 90.56C171.114 90.3733 170.708 90.28 170.26 90.28C169.616 90.28 169.065 90.4853 168.608 90.896C168.16 91.3067 167.903 91.876 167.838 92.604H172.682ZM185.9 89.328L183.506 97H182.19L180.342 90.91L178.494 97H177.178L174.77 89.328H176.072L177.836 95.768L179.74 89.328H181.042L182.904 95.782L184.64 89.328H185.9Z" fill="#0D333E"/>
<path d="M118.104 145L115.448 140.44H113.688V145H112.232V133.848H115.832C116.675 133.848 117.384 133.992 117.96 134.28C118.547 134.568 118.984 134.957 119.272 135.448C119.56 135.939 119.704 136.499 119.704 137.128C119.704 137.896 119.48 138.573 119.032 139.16C118.595 139.747 117.933 140.136 117.048 140.328L119.848 145H118.104ZM113.688 139.272H115.832C116.621 139.272 117.213 139.08 117.608 138.696C118.003 138.301 118.2 137.779 118.2 137.128C118.2 136.467 118.003 135.955 117.608 135.592C117.224 135.229 116.632 135.048 115.832 135.048H113.688V139.272ZM129.966 140.28C129.966 140.557 129.95 140.851 129.918 141.16H122.91C122.964 142.024 123.257 142.701 123.79 143.192C124.334 143.672 124.99 143.912 125.758 143.912C126.388 143.912 126.91 143.768 127.326 143.48C127.753 143.181 128.052 142.787 128.222 142.296H129.79C129.556 143.139 129.086 143.827 128.382 144.36C127.678 144.883 126.804 145.144 125.758 145.144C124.926 145.144 124.18 144.957 123.518 144.584C122.868 144.211 122.356 143.683 121.982 143C121.609 142.307 121.422 141.507 121.422 140.6C121.422 139.693 121.604 138.899 121.966 138.216C122.329 137.533 122.836 137.011 123.486 136.648C124.148 136.275 124.905 136.088 125.758 136.088C126.59 136.088 127.326 136.269 127.966 136.632C128.606 136.995 129.097 137.496 129.438 138.136C129.79 138.765 129.966 139.48 129.966 140.28ZM128.462 139.976C128.462 139.421 128.34 138.947 128.094 138.552C127.849 138.147 127.513 137.843 127.086 137.64C126.67 137.427 126.206 137.32 125.694 137.32C124.958 137.32 124.329 137.555 123.806 138.024C123.294 138.493 123.001 139.144 122.926 139.976H128.462ZM135.152 143.656L137.872 136.232H139.424L135.984 145H134.288L130.848 136.232H132.416L135.152 143.656ZM141.609 134.808C141.332 134.808 141.097 134.712 140.905 134.52C140.713 134.328 140.617 134.093 140.617 133.816C140.617 133.539 140.713 133.304 140.905 133.112C141.097 132.92 141.332 132.824 141.609 132.824C141.876 132.824 142.1 132.92 142.281 133.112C142.473 133.304 142.569 133.539 142.569 133.816C142.569 134.093 142.473 134.328 142.281 134.52C142.1 134.712 141.876 134.808 141.609 134.808ZM142.313 136.232V145H140.857V136.232H142.313ZM152.795 140.28C152.795 140.557 152.779 140.851 152.747 141.16H145.739C145.792 142.024 146.085 142.701 146.619 143.192C147.163 143.672 147.819 143.912 148.587 143.912C149.216 143.912 149.739 143.768 150.155 143.48C150.581 143.181 150.88 142.787 151.051 142.296H152.619C152.384 143.139 151.915 143.827 151.211 144.36C150.507 144.883 149.632 145.144 148.587 145.144C147.755 145.144 147.008 144.957 146.347 144.584C145.696 144.211 145.184 143.683 144.811 143C144.437 142.307 144.251 141.507 144.251 140.6C144.251 139.693 144.432 138.899 144.795 138.216C145.157 137.533 145.664 137.011 146.315 136.648C146.976 136.275 147.733 136.088 148.587 136.088C149.419 136.088 150.155 136.269 150.795 136.632C151.435 136.995 151.925 137.496 152.267 138.136C152.619 138.765 152.795 139.48 152.795 140.28ZM151.291 139.976C151.291 139.421 151.168 138.947 150.923 138.552C150.677 138.147 150.341 137.843 149.915 137.64C149.499 137.427 149.035 137.32 148.523 137.32C147.787 137.32 147.157 137.555 146.635 138.024C146.123 138.493 145.829 139.144 145.755 139.976H151.291ZM166.396 136.232L163.66 145H162.156L160.044 138.04L157.932 145H156.428L153.676 136.232H155.164L157.18 143.592L159.356 136.232H160.844L162.972 143.608L164.956 136.232H166.396Z" fill="#0D333E"/>
<path d="M111.688 199.416C111.688 198.328 111.933 197.352 112.424 196.488C112.915 195.613 113.581 194.931 114.424 194.44C115.277 193.949 116.221 193.704 117.256 193.704C118.472 193.704 119.533 193.997 120.44 194.584C121.347 195.171 122.008 196.003 122.424 197.08H120.68C120.371 196.408 119.923 195.891 119.336 195.528C118.76 195.165 118.067 194.984 117.256 194.984C116.477 194.984 115.779 195.165 115.16 195.528C114.541 195.891 114.056 196.408 113.704 197.08C113.352 197.741 113.176 198.52 113.176 199.416C113.176 200.301 113.352 201.08 113.704 201.752C114.056 202.413 114.541 202.925 115.16 203.288C115.779 203.651 116.477 203.832 117.256 203.832C118.067 203.832 118.76 203.656 119.336 203.304C119.923 202.941 120.371 202.424 120.68 201.752H122.424C122.008 202.819 121.347 203.645 120.44 204.232C119.533 204.808 118.472 205.096 117.256 205.096C116.221 205.096 115.277 204.856 114.424 204.376C113.581 203.885 112.915 203.208 112.424 202.344C111.933 201.48 111.688 200.504 111.688 199.416ZM128.943 196.072C129.605 196.072 130.202 196.216 130.735 196.504C131.269 196.781 131.685 197.203 131.983 197.768C132.293 198.333 132.447 199.021 132.447 199.832V205H131.007V200.04C131.007 199.165 130.789 198.499 130.351 198.04C129.914 197.571 129.317 197.336 128.559 197.336C127.791 197.336 127.178 197.576 126.719 198.056C126.271 198.536 126.047 199.235 126.047 200.152V205H124.591V193.16H126.047V197.48C126.335 197.032 126.73 196.685 127.231 196.44C127.743 196.195 128.314 196.072 128.943 196.072ZM142.826 200.28C142.826 200.557 142.81 200.851 142.778 201.16H135.77C135.823 202.024 136.116 202.701 136.65 203.192C137.194 203.672 137.85 203.912 138.618 203.912C139.247 203.912 139.77 203.768 140.186 203.48C140.612 203.181 140.911 202.787 141.082 202.296H142.65C142.415 203.139 141.946 203.827 141.242 204.36C140.538 204.883 139.663 205.144 138.618 205.144C137.786 205.144 137.039 204.957 136.378 204.584C135.727 204.211 135.215 203.683 134.842 203C134.468 202.307 134.282 201.507 134.282 200.6C134.282 199.693 134.463 198.899 134.826 198.216C135.188 197.533 135.695 197.011 136.346 196.648C137.007 196.275 137.764 196.088 138.618 196.088C139.45 196.088 140.186 196.269 140.826 196.632C141.466 196.995 141.956 197.496 142.298 198.136C142.65 198.765 142.826 199.48 142.826 200.28ZM141.322 199.976C141.322 199.421 141.199 198.947 140.954 198.552C140.708 198.147 140.372 197.843 139.946 197.64C139.53 197.427 139.066 197.32 138.554 197.32C137.818 197.32 137.188 197.555 136.666 198.024C136.154 198.493 135.86 199.144 135.786 199.976H141.322ZM144.204 200.6C144.204 199.693 144.385 198.904 144.748 198.232C145.11 197.549 145.612 197.021 146.252 196.648C146.902 196.275 147.644 196.088 148.476 196.088C149.553 196.088 150.438 196.349 151.132 196.872C151.836 197.395 152.3 198.12 152.524 199.048H150.956C150.806 198.515 150.513 198.093 150.076 197.784C149.649 197.475 149.116 197.32 148.476 197.32C147.644 197.32 146.972 197.608 146.46 198.184C145.948 198.749 145.692 199.555 145.692 200.6C145.692 201.656 145.948 202.472 146.46 203.048C146.972 203.624 147.644 203.912 148.476 203.912C149.116 203.912 149.649 203.763 150.076 203.464C150.502 203.165 150.796 202.739 150.956 202.184H152.524C152.289 203.08 151.82 203.8 151.116 204.344C150.412 204.877 149.532 205.144 148.476 205.144C147.644 205.144 146.902 204.957 146.252 204.584C145.612 204.211 145.11 203.683 144.748 203C144.385 202.317 144.204 201.517 144.204 200.6ZM159.362 205L155.922 201.128V205H154.466V193.16H155.922V200.12L159.298 196.232H161.33L157.202 200.6L161.346 205H159.362Z" fill="#0D333E"/>
<path d="M111.774 268.718C111.774 267.494 112.05 266.396 112.602 265.424C113.154 264.44 113.904 263.672 114.852 263.12C115.812 262.568 116.874 262.292 118.038 262.292C119.406 262.292 120.6 262.622 121.62 263.282C122.64 263.942 123.384 264.878 123.852 266.09H121.89C121.542 265.334 121.038 264.752 120.378 264.344C119.73 263.936 118.95 263.732 118.038 263.732C117.162 263.732 116.376 263.936 115.68 264.344C114.984 264.752 114.438 265.334 114.042 266.09C113.646 266.834 113.448 267.71 113.448 268.718C113.448 269.714 113.646 270.59 114.042 271.346C114.438 272.09 114.984 272.666 115.68 273.074C116.376 273.482 117.162 273.686 118.038 273.686C118.95 273.686 119.73 273.488 120.378 273.092C121.038 272.684 121.542 272.102 121.89 271.346H123.852C123.384 272.546 122.64 273.476 121.62 274.136C120.6 274.784 119.406 275.108 118.038 275.108C116.874 275.108 115.812 274.838 114.852 274.298C113.904 273.746 113.154 272.984 112.602 272.012C112.05 271.04 111.774 269.942 111.774 268.718ZM130.592 275.162C129.668 275.162 128.828 274.952 128.072 274.532C127.328 274.112 126.74 273.518 126.308 272.75C125.888 271.97 125.678 271.07 125.678 270.05C125.678 269.042 125.894 268.154 126.326 267.386C126.77 266.606 127.37 266.012 128.126 265.604C128.882 265.184 129.728 264.974 130.664 264.974C131.6 264.974 132.446 265.184 133.202 265.604C133.958 266.012 134.552 266.6 134.984 267.368C135.428 268.136 135.65 269.03 135.65 270.05C135.65 271.07 135.422 271.97 134.966 272.75C134.522 273.518 133.916 274.112 133.148 274.532C132.38 274.952 131.528 275.162 130.592 275.162ZM130.592 273.722C131.18 273.722 131.732 273.584 132.248 273.308C132.764 273.032 133.178 272.618 133.49 272.066C133.814 271.514 133.976 270.842 133.976 270.05C133.976 269.258 133.82 268.586 133.508 268.034C133.196 267.482 132.788 267.074 132.284 266.81C131.78 266.534 131.234 266.396 130.646 266.396C130.046 266.396 129.494 266.534 128.99 266.81C128.498 267.074 128.102 267.482 127.802 268.034C127.502 268.586 127.352 269.258 127.352 270.05C127.352 270.854 127.496 271.532 127.784 272.084C128.084 272.636 128.48 273.05 128.972 273.326C129.464 273.59 130.004 273.722 130.592 273.722ZM142.61 264.956C143.81 264.956 144.782 265.322 145.526 266.054C146.27 266.774 146.642 267.818 146.642 269.186V275H145.022V269.42C145.022 268.436 144.776 267.686 144.284 267.17C143.792 266.642 143.12 266.378 142.268 266.378C141.404 266.378 140.714 266.648 140.198 267.188C139.694 267.728 139.442 268.514 139.442 269.546V275H137.804V265.136H139.442V266.54C139.766 266.036 140.204 265.646 140.756 265.37C141.32 265.094 141.938 264.956 142.61 264.956ZM153.332 266.486H151.262V275H149.624V266.486H148.346V265.136H149.624V264.434C149.624 263.33 149.906 262.526 150.47 262.022C151.046 261.506 151.964 261.248 153.224 261.248V262.616C152.504 262.616 151.994 262.76 151.694 263.048C151.406 263.324 151.262 263.786 151.262 264.434V265.136H153.332V266.486ZM156.087 263.534C155.775 263.534 155.511 263.426 155.295 263.21C155.079 262.994 154.971 262.73 154.971 262.418C154.971 262.106 155.079 261.842 155.295 261.626C155.511 261.41 155.775 261.302 156.087 261.302C156.387 261.302 156.639 261.41 156.843 261.626C157.059 261.842 157.167 262.106 157.167 262.418C157.167 262.73 157.059 262.994 156.843 263.21C156.639 263.426 156.387 263.534 156.087 263.534ZM156.879 265.136V275H155.241V265.136H156.879ZM161.309 266.738C161.597 266.174 162.005 265.736 162.533 265.424C163.073 265.112 163.727 264.956 164.495 264.956V266.648H164.063C162.227 266.648 161.309 267.644 161.309 269.636V275H159.671V265.136H161.309V266.738ZM178.248 264.956C179.016 264.956 179.7 265.118 180.3 265.442C180.9 265.754 181.374 266.228 181.722 266.864C182.07 267.5 182.244 268.274 182.244 269.186V275H180.624V269.42C180.624 268.436 180.378 267.686 179.886 267.17C179.406 266.642 178.752 266.378 177.924 266.378C177.072 266.378 176.394 266.654 175.89 267.206C175.386 267.746 175.134 268.532 175.134 269.564V275H173.514V269.42C173.514 268.436 173.268 267.686 172.776 267.17C172.296 266.642 171.642 266.378 170.814 266.378C169.962 266.378 169.284 266.654 168.78 267.206C168.276 267.746 168.024 268.532 168.024 269.564V275H166.386V265.136H168.024V266.558C168.348 266.042 168.78 265.646 169.32 265.37C169.872 265.094 170.478 264.956 171.138 264.956C171.966 264.956 172.698 265.142 173.334 265.514C173.97 265.886 174.444 266.432 174.756 267.152C175.032 266.456 175.488 265.916 176.124 265.532C176.76 265.148 177.468 264.956 178.248 264.956Z" fill="#0D333E"/>
<defs>
<filter id="filter0_d_0_1" x="0" y="0" width="395" height="354" filterUnits="userSpaceOnUse" color-interpolation-filters="sRGB">
<feFlood flood-opacity="0" result="BackgroundImageFix"/>
<feColorMatrix in="SourceAlpha" type="matrix" values="0 0 0 0 0 0 0 0 0 0 0 0 0 0 0 0 0 0 127 0" result="hardAlpha"/>
<feOffset dy="4"/>
<feGaussianBlur stdDeviation="9"/>
<feComposite in2="hardAlpha" operator="out"/>
<feColorMatrix type="matrix" values="0 0 0 0 0 0 0 0 0 0 0 0 0 0 0 0 0 0 0.25 0"/>
<feBlend mode="normal" in2="BackgroundImageFix" result="effect1_dropShadow_0_1"/>
<feBlend mode="normal" in="SourceGraphic" in2="effect1_dropShadow_0_1" result="shape"/>
</filter>
</defs>
</svg>
