<svg width="56" height="56" viewBox="0 0 56 56" fill="none" xmlns="http://www.w3.org/2000/svg">
<path d="M48.6901 8.85957C48.3611 6.23457 46.3194 4.0949 43.7248 3.65857C33.2878 1.90157 22.7108 1.90157 12.2738 3.65857C9.67911 4.09724 7.63744 6.23457 7.30844 8.85957C5.74511 21.3126 5.68678 33.9429 7.12878 46.3936C7.28044 47.6792 7.97344 48.8599 9.02811 49.6346C10.0174 50.3602 10.9974 51.0859 11.9704 51.8092C13.4731 52.9269 15.4774 53.0552 17.0758 52.1452C17.9204 51.6669 18.7744 51.1699 19.6401 50.6519C20.4684 50.1619 21.5138 50.1946 22.2954 50.7382L25.3521 52.8476C26.1524 53.3959 27.0648 53.6712 27.9794 53.6712C28.8941 53.6712 29.8088 53.3959 30.6044 52.8499L33.6658 50.7382C34.4568 50.1946 35.4951 50.1642 36.3211 50.6519C37.1914 51.1699 38.0524 51.6716 38.9018 52.1522C40.5024 53.0599 42.5021 52.9316 44.0048 51.8162C44.9824 51.0882 45.9718 50.3602 46.9658 49.6299C48.0251 48.8552 48.7181 47.6746 48.8698 46.3866C50.3118 33.9359 50.2534 21.3079 48.6901 8.85957ZM46.5504 46.1182C46.4758 46.7622 46.1234 47.3572 45.5891 47.7492C44.5858 48.4796 43.5941 49.2122 42.6141 49.9449C41.8581 50.5049 40.8524 50.5749 40.0544 50.1222C39.2214 49.6486 38.3721 49.1539 37.5134 48.6452C35.9011 47.6862 33.8688 47.7609 32.3404 48.8202L29.2861 50.9249C28.4951 51.4686 27.4708 51.4709 26.6751 50.9249L23.6254 48.8202C22.0901 47.7562 20.0601 47.6886 18.4454 48.6476C17.5938 49.1539 16.7538 49.6462 15.9254 50.1152C15.1251 50.5702 14.1194 50.5002 13.3634 49.9379C12.3858 49.2099 11.4011 48.4819 10.4048 47.7516C9.87044 47.3596 9.52044 46.7646 9.44578 46.1229C8.02244 33.8566 8.08078 21.4176 9.62078 9.1489C9.82378 7.5389 11.0721 6.22757 12.6588 5.95924C22.8344 4.24424 33.1571 4.24424 43.3328 5.95924C44.9194 6.22757 46.1678 7.5389 46.3708 9.15124C47.9108 21.4152 47.9714 33.8542 46.5458 46.1182H46.5504Z" fill="#0FD46C"/>
<path d="M36.5983 15.0176H19.404C18.76 15.0176 18.2373 15.5402 18.2373 16.1842C18.2373 16.8282 18.76 17.3509 19.404 17.3509H36.5983C37.2423 17.3509 37.765 16.8282 37.765 16.1842C37.765 15.5402 37.2423 15.0176 36.5983 15.0176Z" fill="#0FD46C"/>
<path d="M36.5983 24.3809H19.404C18.76 24.3809 18.2373 24.9035 18.2373 25.5475C18.2373 26.1915 18.76 26.7142 19.404 26.7142H36.5983C37.2423 26.7142 37.765 26.1915 37.765 25.5475C37.765 24.9035 37.2423 24.3809 36.5983 24.3809Z" fill="#0FD46C"/>
<path d="M28.3924 33.6348H19.402C18.758 33.6348 18.2354 34.1574 18.2354 34.8014C18.2354 35.4454 18.758 35.9681 19.402 35.9681H28.3924C29.0364 35.9681 29.559 35.4454 29.559 34.8014C29.559 34.1574 29.0364 33.6348 28.3924 33.6348Z" fill="#0FD46C"/>
</svg>
