<svg width="94" height="94" viewBox="0 0 94 94" fill="none" xmlns="http://www.w3.org/2000/svg">
<circle cx="47" cy="47" r="47" fill="#0FD46C"/>
<path d="M34 58V64C34 65.654 35.346 67 37 67C38.358 67 39.546 66.074 39.89 64.748C40.028 64.214 40.568 63.89 41.11 64.032C41.644 64.17 41.966 64.718 41.826 65.252C41.252 67.46 39.268 69 36.998 69C34.24 69 31.998 66.758 31.998 64V58C31.998 55.242 34.24 53 36.998 53C39.268 53 41.252 54.542 41.826 56.748C41.964 57.284 41.642 57.83 41.11 57.968C40.568 58.108 40.028 57.782 39.89 57.252C39.546 55.926 38.356 55 37 55C35.346 55 34 56.346 34 58ZM67.01 53C66.326 53 65.69 53.484 65.328 54.28L63 59.4L60.672 54.28C60.31 53.484 59.674 53 58.99 53C57.958 53 57.1 53.59 57.014 55L56.072 68C56.032 68.54 56.46 69 57.002 69C57.492 69 58.086 68.62 58.12 68.132L58.99 55.412L62.152 62.366C62.484 63.094 63.518 63.094 63.848 62.366L67.01 55.412L68.07 68.146C68.11 68.628 68.514 69 68.998 69C69.54 69 69.966 68.54 69.928 68L68.986 55C68.9 53.59 68.042 53 67.01 53ZM51.774 62.156L53.616 67.682C53.79 68.206 53.506 68.772 52.984 68.948C52.878 68.984 52.774 68.998 52.668 68.998C52.25 68.998 51.86 68.732 51.718 68.314L49.916 62.906C49.618 62.962 49.316 62.998 49.002 62.998H46.002V67.998C46.002 68.55 45.554 68.998 45.002 68.998C44.45 68.998 44.002 68.55 44.002 67.998V55.998C44.002 54.344 45.348 52.998 47.002 52.998H49.002C51.76 52.998 54.002 55.24 54.002 57.998C54.002 59.73 53.116 61.26 51.774 62.156ZM52.002 58C52.002 56.346 50.656 55 49.002 55H47.002C46.452 55 46.002 55.45 46.002 56V61H49.002C50.656 61 52.002 59.654 52.002 58ZM30 31C28.896 31 28 31.896 28 33C28 34.104 28.896 35 30 35C31.104 35 32 34.104 32 33C32 31.896 31.104 31 30 31ZM70 34V48C70 48.552 69.552 49 69 49C68.448 49 68 48.552 68 48V41H24V60C24 62.492 25.342 64.814 27.5 66.064C27.978 66.34 28.142 66.952 27.866 67.43C27.68 67.75 27.344 67.93 27 67.93C26.83 67.93 26.656 67.888 26.5 67.796C23.724 66.19 22 63.204 22 60.002V34C22 29.038 26.038 25 31 25H61C65.962 25 70 29.038 70 34ZM68 34C68 30.14 64.86 27 61 27H31C27.14 27 24 30.14 24 34V39H68V34ZM42 31C40.896 31 40 31.896 40 33C40 34.104 40.896 35 42 35C43.104 35 44 34.104 44 33C44 31.896 43.104 31 42 31ZM36 31C34.896 31 34 31.896 34 33C34 34.104 34.896 35 36 35C37.104 35 38 34.104 38 33C38 31.896 37.104 31 36 31Z" fill="white"/>
</svg>
