
<svg width="56" height="56" viewBox="0 0 56 56" fill="none" xmlns="http://www.w3.org/2000/svg">
<g clip-path="url(#clip0_7068_20276)">
<path d="M10.5 18.6667C8.57033 18.6667 7 20.237 7 22.1667V24.5C7 26.4297 8.57033 28 10.5 28H22.1667C24.0963 28 25.6667 26.4297 25.6667 24.5V22.1667C25.6667 20.237 24.0963 18.6667 22.1667 18.6667H10.5ZM23.3333 22.1667V24.5C23.3333 25.1417 22.8083 25.6667 22.1667 25.6667H10.5C9.85833 25.6667 9.33333 25.1417 9.33333 24.5V22.1667C9.33333 21.525 9.85833 21 10.5 21H22.1667C22.8083 21 23.3333 21.525 23.3333 22.1667ZM23.3333 33.8333C23.3333 34.4773 22.8107 35 22.1667 35H19.8333C19.1893 35 18.6667 34.4773 18.6667 33.8333C18.6667 33.1893 19.1893 32.6667 19.8333 32.6667H22.1667C22.8107 32.6667 23.3333 33.1893 23.3333 33.8333ZM23.3333 40.8333C23.3333 41.4773 22.8107 42 22.1667 42H19.8333C19.1893 42 18.6667 41.4773 18.6667 40.8333C18.6667 40.1893 19.1893 39.6667 19.8333 39.6667H22.1667C22.8107 39.6667 23.3333 40.1893 23.3333 40.8333ZM14 33.8333C14 34.4773 13.4773 35 12.8333 35H10.5C9.856 35 9.33333 34.4773 9.33333 33.8333C9.33333 33.1893 9.856 32.6667 10.5 32.6667H12.8333C13.4773 32.6667 14 33.1893 14 33.8333ZM14 40.8333C14 41.4773 13.4773 42 12.8333 42H10.5C9.856 42 9.33333 41.4773 9.33333 40.8333C9.33333 40.1893 9.856 39.6667 10.5 39.6667H12.8333C13.4773 39.6667 14 40.1893 14 40.8333ZM23.3333 47.8333C23.3333 48.4773 22.8107 49 22.1667 49H19.8333C19.1893 49 18.6667 48.4773 18.6667 47.8333C18.6667 47.1893 19.1893 46.6667 19.8333 46.6667H22.1667C22.8107 46.6667 23.3333 47.1893 23.3333 47.8333ZM14 47.8333C14 48.4773 13.4773 49 12.8333 49H10.5C9.856 49 9.33333 48.4773 9.33333 47.8333C9.33333 47.1893 9.856 46.6667 10.5 46.6667H12.8333C13.4773 46.6667 14 47.1893 14 47.8333ZM40.803 0H17.5C10.4253 0 4.66667 5.75867 4.66667 12.8333C4.66667 12.8753 4.68533 12.9103 4.69 12.9523C1.90167 14.567 0 17.5513 0 21V46.6667C0 51.814 4.186 56 9.33333 56H23.3333C28.4807 56 32.6667 51.814 32.6667 46.6667V21C32.6667 17.6097 30.8327 14.6673 28.1237 13.0317C29.1737 6.83433 34.5053 2.33333 40.803 2.33333C47.8963 2.33333 53.6667 8.10367 53.6667 15.197V36.19L48.916 32.6877C48.517 32.389 47.971 32.382 47.558 32.669L41.6103 36.8013L39.165 35.1003C38.6377 34.7363 37.9097 34.86 37.5433 35.392C37.1747 35.9217 37.303 36.6473 37.835 37.0137L40.9453 39.179C41.342 39.4567 41.874 39.4567 42.2753 39.179L48.202 35.0583L54.1403 39.4357C54.3457 39.585 54.5883 39.6643 54.8333 39.6643C55.013 39.6643 55.1927 39.6223 55.3607 39.5383C55.7527 39.34 56 38.9363 56 38.4977V15.197C56 6.818 49.182 0 40.803 0ZM30.3333 21V46.6667C30.3333 50.526 27.1927 53.6667 23.3333 53.6667H9.33333C5.474 53.6667 2.33333 50.526 2.33333 46.6667V21C2.33333 17.1407 5.474 14 9.33333 14H23.3333C27.1927 14 30.3333 17.1407 30.3333 21ZM25.9677 12.0913C25.1277 11.8417 24.255 11.6667 23.3333 11.6667H9.33333C8.554 11.6667 7.80967 11.7903 7.08633 11.97C7.53433 6.58933 12.005 2.33333 17.5 2.33333H32.7483C29.3323 4.46833 26.8333 7.92633 25.9677 12.0913Z" fill="#0FD46C"/>
</g>
<defs>
<clipPath id="clip0_7068_20276">
<rect width="56" height="56" fill="white"/>
</clipPath>
</defs>
</svg>
