<svg width="56" height="56" viewBox="0 0 56 56" fill="none" xmlns="http://www.w3.org/2000/svg">
<g clip-path="url(#clip0_7068_20278)">
<path d="M46.6667 35C47.9547 35 49 36.0453 49 37.3333C49 38.6213 47.9547 39.6667 46.6667 39.6667C45.3787 39.6667 44.3333 38.6213 44.3333 37.3333C44.3333 36.0453 45.3787 35 46.6667 35ZM53.0857 19.4483C52.5303 19.124 51.814 19.313 51.4897 19.873C51.1537 20.4517 51.373 21.203 51.982 21.504C53.1253 22.071 53.6667 23.4173 53.6667 24.6937V50.1667C53.6667 52.0987 52.0987 53.6667 50.1667 53.6667H10.5C5.98967 53.6667 2.33333 50.0103 2.33333 45.5V19.8333C2.33333 19.019 2.48967 18.249 2.71133 17.507C4.683 19.6887 7.50167 21 10.5 21H38.5C39.144 21 39.6667 20.4773 39.6667 19.8333C39.6667 19.1893 39.144 18.6667 38.5 18.6667H10.5C7.82833 18.6667 5.334 17.3343 3.81733 15.1667C5.29433 13.0573 7.735 11.6667 10.5 11.6667H31.5C32.144 11.6667 32.6667 11.144 32.6667 10.5C32.6667 9.856 32.144 9.33333 31.5 9.33333H10.5C4.70167 9.33333 0 14.035 0 19.8333V45.5C0 51.2983 4.70167 56 10.5 56H50.1667C53.389 56 56 53.389 56 50.1667V24.5C56 22.4257 54.8823 20.489 53.0857 19.4483ZM37.3333 9.33333C37.6273 9.33333 37.9213 9.22367 38.1477 9.002L44.3333 2.97733V19.8333C44.3333 20.4773 44.856 21 45.5 21C46.144 21 46.6667 20.4773 46.6667 19.8333V3.06367L52.857 9.009C53.3237 9.45233 54.0633 9.44533 54.5067 8.974C54.9523 8.50967 54.9407 7.77 54.474 7.32433L47.9267 1.03833C47.3853 0.497 46.3423 0 45.4977 0C44.653 0 43.5587 0.457333 42.9893 1.02667L36.519 7.329C36.057 7.77933 36.0477 8.51667 36.4957 8.97867C36.7267 9.21433 37.03 9.331 37.331 9.331L37.3333 9.33333Z" fill="#0FD46C"/>
</g>
<defs>
<clipPath id="clip0_7068_20278">
<rect width="56" height="56" fill="white"/>
</clipPath>
</defs>
</svg>
