<svg width="94" height="94" viewBox="0 0 94 94" fill="none" xmlns="http://www.w3.org/2000/svg">
<circle cx="47" cy="47" r="47" fill="#0FD46C"/>
<path d="M35.764 57H25C24.448 57 24 56.552 24 56C24 55.448 24.448 55 25 55H35.764C36.146 55 36.488 54.788 36.658 54.448L38.754 50.256C39.172 49.418 40.008 48.928 40.95 48.978C41.886 49.028 42.67 49.602 42.998 50.478L46.876 60.818C46.936 60.98 47.062 61.02 47.156 61.024C47.264 61.03 47.38 61.004 47.456 60.85L49.552 56.658C50.064 55.636 51.092 55 52.236 55H61C61.552 55 62 55.448 62 56C62 56.552 61.552 57 61 57H52.236C51.854 57 51.512 57.212 51.342 57.552L49.246 61.744C48.846 62.542 48.062 63.026 47.18 63.026C47.138 63.026 47.094 63.026 47.052 63.022C46.116 62.972 45.332 62.398 45.004 61.522L41.126 51.182C41.066 51.02 40.94 50.98 40.846 50.976C40.748 50.986 40.622 50.998 40.546 51.15L38.45 55.342C37.938 56.364 36.908 57 35.764 57ZM68 46.97V66C68 70.962 63.962 75 59 75H37C32.038 75 28 70.962 28 66V62C28 61.448 28.448 61 29 61C29.552 61 30 61.448 30 62V66C30 69.86 33.14 73 37 73H59C62.86 73 66 69.86 66 66V46.97C66 46.3 65.924 45.644 65.808 45H55C52.244 45 50 42.756 50 40V29.192C49.354 29.076 48.698 29 48.03 29H37C33.14 29 30 32.14 30 36V50C30 50.552 29.552 51 29 51C28.448 51 28 50.552 28 50V36C28 31.038 32.038 27 37 27H48.03C51.502 27 54.768 28.352 57.222 30.808L64.192 37.778C66.648 40.234 68 43.498 68 46.97ZM65.242 43C64.696 41.592 63.878 40.292 62.78 39.192L55.81 32.222C54.71 31.122 53.41 30.304 52.002 29.76V40.002C52.002 41.656 53.348 43.002 55.002 43.002H65.244L65.242 43Z" fill="white"/>
</svg>
