<svg width="94" height="94" viewBox="0 0 94 94" fill="none" xmlns="http://www.w3.org/2000/svg">
<circle cx="47" cy="47" r="47" fill="#0FD46C"/>
<g clip-path="url(#clip0_7064_20216)">
<path d="M33 39C31.346 39 30 40.346 30 42V44C30 45.654 31.346 47 33 47H43C44.654 47 46 45.654 46 44V42C46 40.346 44.654 39 43 39H33ZM44 42V44C44 44.55 43.55 45 43 45H33C32.45 45 32 44.55 32 44V42C32 41.45 32.45 41 33 41H43C43.55 41 44 41.45 44 42ZM44 52C44 52.552 43.552 53 43 53H41C40.448 53 40 52.552 40 52C40 51.448 40.448 51 41 51H43C43.552 51 44 51.448 44 52ZM44 58C44 58.552 43.552 59 43 59H41C40.448 59 40 58.552 40 58C40 57.448 40.448 57 41 57H43C43.552 57 44 57.448 44 58ZM36 52C36 52.552 35.552 53 35 53H33C32.448 53 32 52.552 32 52C32 51.448 32.448 51 33 51H35C35.552 51 36 51.448 36 52ZM36 58C36 58.552 35.552 59 35 59H33C32.448 59 32 58.552 32 58C32 57.448 32.448 57 33 57H35C35.552 57 36 57.448 36 58ZM44 64C44 64.552 43.552 65 43 65H41C40.448 65 40 64.552 40 64C40 63.448 40.448 63 41 63H43C43.552 63 44 63.448 44 64ZM36 64C36 64.552 35.552 65 35 65H33C32.448 65 32 64.552 32 64C32 63.448 32.448 63 33 63H35C35.552 63 36 63.448 36 64ZM58.974 23H39C32.936 23 28 27.936 28 34C28 34.036 28.016 34.066 28.02 34.102C25.63 35.486 24 38.044 24 41V63C24 67.412 27.588 71 32 71H44C48.412 71 52 67.412 52 63V41C52 38.094 50.428 35.572 48.106 34.17C49.006 28.858 53.576 25 58.974 25C65.054 25 70 29.946 70 36.026V54.02L65.928 51.018C65.586 50.762 65.118 50.756 64.764 51.002L59.666 54.544L57.57 53.086C57.118 52.774 56.494 52.88 56.18 53.336C55.864 53.79 55.974 54.412 56.43 54.726L59.096 56.582C59.436 56.82 59.892 56.82 60.236 56.582L65.316 53.05L70.406 56.802C70.582 56.93 70.79 56.998 71 56.998C71.154 56.998 71.308 56.962 71.452 56.89C71.788 56.72 72 56.374 72 55.998V36.026C72 28.844 66.156 23 58.974 23ZM50 41V63C50 66.308 47.308 69 44 69H32C28.692 69 26 66.308 26 63V41C26 37.692 28.692 35 32 35H44C47.308 35 50 37.692 50 41ZM46.258 33.364C45.538 33.15 44.79 33 44 33H32C31.332 33 30.694 33.106 30.074 33.26C30.458 28.648 34.29 25 39 25H52.07C49.142 26.83 47 29.794 46.258 33.364Z" fill="white"/>
</g>
<defs>
<clipPath id="clip0_7064_20216">
<rect width="48" height="48" fill="white" transform="translate(24 23)"/>
</clipPath>
</defs>
</svg>
