<svg width="56" height="56" viewBox="0 0 56 56" fill="none" xmlns="http://www.w3.org/2000/svg">
<g clip-path="url(#clip0_6939_20091)">
<path d="M31.5 53.6663H10.5C5.99667 53.6663 2.33333 50.003 2.33333 45.4996V10.4996C2.33333 5.99629 5.99667 2.33295 10.5 2.33295H23.3683C24.1477 2.33295 24.9153 2.40295 25.6667 2.53829V15.1663C25.6667 18.384 28.2823 20.9996 31.5 20.9996C31.5 20.9996 45.1267 21.023 45.353 20.9623C45.9783 20.8036 46.354 20.1666 46.193 19.5436C45.5187 16.907 44.1467 14.4966 42.2217 12.574L34.0923 4.44462C31.227 1.57929 27.419 0.00195399 23.366 0.00195399H10.4977C4.711 -0.000379342 0 4.71062 0 10.4996V45.4996C0 51.2886 4.711 55.9996 10.5 55.9996H31.5C32.144 55.9996 32.6667 55.477 32.6667 54.833C32.6667 54.189 32.144 53.6663 31.5 53.6663ZM28 3.19162C29.6473 3.82862 31.157 4.80862 32.4427 6.09429L40.572 14.2236C41.839 15.4906 42.8213 17.0073 43.4653 18.6663H31.4977C29.568 18.6663 27.9977 17.096 27.9977 15.1663V3.19162H28ZM25.6667 33.833C25.6667 34.477 25.144 34.9996 24.5 34.9996H10.5C9.856 34.9996 9.33333 34.477 9.33333 33.833C9.33333 33.189 9.856 32.6663 10.5 32.6663H24.5C25.144 32.6663 25.6667 33.189 25.6667 33.833ZM25.6667 43.1663C25.6667 43.8103 25.144 44.333 24.5 44.333H10.5C9.856 44.333 9.33333 43.8103 9.33333 43.1663C9.33333 42.5223 9.856 41.9996 10.5 41.9996H24.5C25.144 41.9996 25.6667 42.5223 25.6667 43.1663ZM53.424 27.8386L43.533 24.5603C43.295 24.4833 43.036 24.4833 42.8003 24.5603L32.907 27.8386C31.3693 28.352 30.3333 29.7823 30.3333 31.3993V40.539C30.3333 48.9693 39.3587 54.14 42.1237 55.526C42.1237 55.526 42.693 55.911 43.169 55.911C43.645 55.911 44.1467 55.6076 44.1467 55.6076C46.928 54.49 56 50.094 56 40.539V31.3993C56 29.7823 54.9663 28.3496 53.424 27.8386ZM53.6667 40.539C53.6667 48.631 45.661 52.4833 43.2203 53.4656C40.7563 52.2336 32.6667 47.6323 32.6667 40.539V31.3993C32.6667 30.788 33.0587 30.2466 33.642 30.053L43.1667 26.8936L52.689 30.053C53.2747 30.2466 53.6667 30.788 53.6667 31.3993V40.539ZM25.6667 24.4996C25.6667 25.1436 25.144 25.6663 24.5 25.6663H10.5C9.856 25.6663 9.33333 25.1436 9.33333 24.4996C9.33333 23.8556 9.856 23.333 10.5 23.333H24.5C25.144 23.333 25.6667 23.8556 25.6667 24.4996Z" fill="#0FD46C"/>
</g>
<defs>
<clipPath id="clip0_6939_20091">
<rect width="56" height="56" fill="white"/>
</clipPath>
</defs>
</svg>
