<svg width="94" height="94" viewBox="0 0 94 94" fill="none" xmlns="http://www.w3.org/2000/svg">
<circle cx="47" cy="47" r="47" fill="#0FD46C"/>
<g clip-path="url(#clip0_6947_20100)">
<path d="M51.6667 47C51.6667 52.1473 55.8527 56.3333 61 56.3333C66.1473 56.3333 70.3333 52.1473 70.3333 47C70.3333 41.8527 66.1473 37.6667 61 37.6667C55.8527 37.6667 51.6667 41.8527 51.6667 47ZM61 40C64.8593 40 68 43.1407 68 47C68 50.8593 64.8593 54 61 54C57.1407 54 54 50.8593 54 47C54 43.1407 57.1407 40 61 40ZM47 37.6667C52.1473 37.6667 56.3333 33.4807 56.3333 28.3333C56.3333 23.186 52.1473 19 47 19C41.8527 19 37.6667 23.186 37.6667 28.3333C37.6667 33.4807 41.8527 37.6667 47 37.6667ZM47 21.3333C50.8593 21.3333 54 24.474 54 28.3333C54 32.1927 50.8593 35.3333 47 35.3333C43.1407 35.3333 40 32.1927 40 28.3333C40 24.474 43.1407 21.3333 47 21.3333ZM33 56.3333C38.1473 56.3333 42.3333 52.1473 42.3333 47C42.3333 41.8527 38.1473 37.6667 33 37.6667C27.8527 37.6667 23.6667 41.8527 23.6667 47C23.6667 52.1473 27.8527 56.3333 33 56.3333ZM33 40C36.8593 40 40 43.1407 40 47C40 50.8593 36.8593 54 33 54C29.1407 54 26 50.8593 26 47C26 43.1407 29.1407 40 33 40ZM75 66.8333V75H72.6667V66.8333C72.6667 63.618 70.051 61 66.8333 61H66.579L60.4167 68.7L54.2567 61H54C50.7847 61 48.1667 63.618 48.1667 66.8333V75H45.8333V66.8333C45.8333 63.618 43.2153 61 40 61H39.7457L33.5833 68.7L27.4233 61H27.1667C23.9513 61 21.3333 63.618 21.3333 66.8333V75H19V66.8333C19 62.33 22.6633 58.6667 27.1667 58.6667H28.5433L33.5833 64.9667L38.6233 58.6667H40C42.9867 58.6667 45.5767 60.2953 47 62.694C48.4233 60.2953 51.0133 58.6667 54 58.6667H55.3767L60.4167 64.9667L65.4567 58.6667H66.8333C71.3367 58.6667 75 62.33 75 66.8333Z" fill="white"/>
</g>
<defs>
<clipPath id="clip0_6947_20100">
<rect width="56" height="56" fill="white" transform="translate(19 19)"/>
</clipPath>
</defs>
</svg>
