<svg width="56" height="56" viewBox="0 0 56 56" fill="none" xmlns="http://www.w3.org/2000/svg">
<g clip-path="url(#clip0_6939_20085)">
<path d="M32.6666 14C32.6666 6.279 26.3876 0 18.6666 0C10.9456 0 4.66656 6.279 4.66656 14C4.66656 21.721 10.9456 28 18.6666 28C26.3876 28 32.6666 21.721 32.6666 14ZM18.6666 25.6667C12.2336 25.6667 6.99989 20.433 6.99989 14C6.99989 7.567 12.2336 2.33333 18.6666 2.33333C25.0996 2.33333 30.3332 7.567 30.3332 14C30.3332 20.433 25.0996 25.6667 18.6666 25.6667ZM16.3099 33.95C16.4382 34.5823 16.0299 35.1983 15.3976 35.3267C7.82589 36.862 2.33089 43.5937 2.33089 51.3333V54.8333C2.33089 55.4773 1.80823 56 1.16423 56C0.520225 56 -0.00244141 55.4773 -0.00244141 54.8333V51.3333C-0.00244141 42.49 6.27889 34.797 14.9309 33.04C15.5702 32.928 16.1792 33.3223 16.3076 33.9523L16.3099 33.95ZM48.9999 30.3333H27.9999C24.1406 30.3333 20.9999 33.474 20.9999 37.3333V49C20.9999 52.8593 24.1406 56 27.9999 56H48.9999C52.8592 56 55.9999 52.8593 55.9999 49V37.3333C55.9999 33.474 52.8592 30.3333 48.9999 30.3333ZM53.6666 49C53.6666 51.5737 51.5736 53.6667 48.9999 53.6667H27.9999C25.4262 53.6667 23.3332 51.5737 23.3332 49V37.3333C23.3332 34.7597 25.4262 32.6667 27.9999 32.6667H48.9999C51.5736 32.6667 53.6666 34.7597 53.6666 37.3333V49ZM43.7499 35H41.9999C40.7119 35 39.6666 36.0477 39.6666 37.3333V50.1667C39.6666 50.8107 40.1892 51.3333 40.8332 51.3333C41.4772 51.3333 41.9999 50.8107 41.9999 50.1667V45.5H43.7499C44.0672 45.5 44.3729 45.4603 44.6739 45.4067L46.7506 50.6007C46.9326 51.058 47.3712 51.3333 47.8332 51.3333C47.9779 51.3333 48.1249 51.3077 48.2672 51.2493C48.8669 51.009 49.1562 50.33 48.9159 49.7327L46.8182 44.4897C48.1342 43.5353 48.9999 41.9953 48.9999 40.25C48.9999 37.3543 46.6432 35 43.7499 35ZM41.9999 43.1667V37.3333H43.7499C45.3576 37.3333 46.6666 38.6423 46.6666 40.25C46.6666 41.8577 45.3576 43.1667 43.7499 43.1667H41.9999ZM37.3332 36.1667V50.1667C37.3332 50.8107 36.8106 51.3333 36.1666 51.3333C35.5226 51.3333 34.9999 50.8107 34.9999 50.1667V44.3333H30.3332V50.1667C30.3332 50.8107 29.8106 51.3333 29.1666 51.3333C28.5226 51.3333 27.9999 50.8107 27.9999 50.1667V36.1667C27.9999 35.5227 28.5226 35 29.1666 35C29.8106 35 30.3332 35.5227 30.3332 36.1667V42H34.9999V36.1667C34.9999 35.5227 35.5226 35 36.1666 35C36.8106 35 37.3332 35.5227 37.3332 36.1667Z" fill="#0FD46C"/>
</g>
<defs>
<clipPath id="clip0_6939_20085">
<rect width="56" height="56" fill="white"/>
</clipPath>
</defs>
</svg>
