<svg width="94" height="94" viewBox="0 0 94 94" fill="none" xmlns="http://www.w3.org/2000/svg">
<circle cx="47" cy="47" r="47" fill="#0FD46C"/>
<g clip-path="url(#clip0_7266_20184)">
<path d="M36 47H32C30.346 47 29 48.346 29 50V54C29 55.654 30.346 57 32 57H36C37.654 57 39 55.654 39 54V50C39 48.346 37.654 47 36 47ZM37 54C37 54.552 36.55 55 36 55H32C31.45 55 31 54.552 31 54V50C31 49.448 31.45 49 32 49H36C36.55 49 37 49.448 37 50V54ZM60 27H57V24C57 23.448 56.552 23 56 23C55.448 23 55 23.448 55 24V27H35V24C35 23.448 34.552 23 34 23C33.448 23 33 23.448 33 24V27H30C25.038 27 21 31.038 21 36V62C21 66.962 25.038 71 30 71H60C64.962 71 69 66.962 69 62V36C69 31.038 64.962 27 60 27ZM30 29H60C63.86 29 67 32.14 67 36V39H23V36C23 32.14 26.14 29 30 29ZM60 69H30C26.14 69 23 65.86 23 62V41H67V62C67 65.86 63.86 69 60 69Z" fill="white"/>
</g>
<defs>
<clipPath id="clip0_7266_20184">
<rect width="48" height="48" fill="white" transform="translate(21 23)"/>
</clipPath>
</defs>
</svg>


