<svg width="94" height="92" viewBox="0 0 94 92" fill="none" xmlns="http://www.w3.org/2000/svg">
<ellipse cx="47" cy="45.6244" rx="47" ry="45.6244" fill="#0FD46C"/>
<g clip-path="url(#clip0_7266_20177)">
<path d="M62 24H42C37.038 24 33 28.038 33 33V38H31C26.588 38 23 41.588 23 46V66C23 69.308 25.692 72 29 72H62C66.962 72 71 67.962 71 63V33C71 28.038 66.962 24 62 24ZM33 66C33 68.206 31.206 70 29 70C26.794 70 25 68.206 25 66V46C25 42.692 27.692 40 31 40H33V66ZM69 63C69 66.86 65.86 70 62 70H33.468C34.42 68.938 35 67.536 35 66V33C35 29.14 38.14 26 42 26H62C65.86 26 69 29.14 69 33V63ZM65 39C65 39.552 64.552 40 64 40H54C53.448 40 53 39.552 53 39C53 38.448 53.448 38 54 38H64C64.552 38 65 38.448 65 39ZM65 47C65 47.552 64.552 48 64 48H40C39.448 48 39 47.552 39 47C39 46.448 39.448 46 40 46H64C64.552 46 65 46.448 65 47ZM65 55C65 55.552 64.552 56 64 56H40C39.448 56 39 55.552 39 55C39 54.448 39.448 54 40 54H64C64.552 54 65 54.448 65 55ZM65 63C65 63.552 64.552 64 64 64H40C39.448 64 39 63.552 39 63C39 62.448 39.448 62 40 62H64C64.552 62 65 62.448 65 63ZM42 40H46C47.654 40 49 38.654 49 37V33C49 31.346 47.654 30 46 30H42C40.346 30 39 31.346 39 33V37C39 38.654 40.346 40 42 40ZM41 33C41 32.448 41.448 32 42 32H46C46.552 32 47 32.448 47 33V37C47 37.552 46.552 38 46 38H42C41.448 38 41 37.552 41 37V33Z" fill="white"/>
</g>
<defs>
<clipPath id="clip0_7266_20177">
<rect width="48" height="48" fill="white" transform="translate(23 24)"/>
</clipPath>
</defs>
</svg>
