<svg width="94" height="94" viewBox="0 0 94 94" fill="none" xmlns="http://www.w3.org/2000/svg">
<circle cx="47" cy="47" r="47" fill="#0FD46C"/>
<g clip-path="url(#clip0_7266_20198)">
<path d="M30 53H46V57H48V53H64V57H66V51H48V46.948C50.124 46.732 52.142 45.836 53.726 44.398L57.578 46.648L60.602 41.466L56.722 39.2C56.91 38.432 57.002 37.704 57.002 36.998C57.002 36.292 56.91 35.566 56.722 34.796L60.602 32.53L57.578 27.348L53.704 29.608C52.63 28.632 51.372 27.904 49.998 27.474V23H43.998V27.476C42.624 27.908 41.368 28.634 40.292 29.61L36.418 27.35L33.394 32.532L37.274 34.798C37.086 35.566 36.994 36.294 36.994 37C36.994 37.706 37.086 38.432 37.274 39.202L33.394 41.468L36.418 46.65L40.27 44.4C41.856 45.838 43.872 46.734 45.996 46.95V51.002H28V57.002H30V53.002V53ZM41.16 42.466L40.614 41.884L37.142 43.912L36.134 42.186L39.646 40.136L39.406 39.374C39.13 38.498 39.002 37.742 39.002 37C39.002 36.258 39.13 35.502 39.406 34.624L39.646 33.864L36.134 31.814L37.142 30.088L40.636 32.128L41.18 31.546C42.28 30.374 43.678 29.568 45.222 29.216L46 29.04V25H48V29.038L48.778 29.214C50.322 29.566 51.722 30.372 52.82 31.544L53.364 32.126L56.858 30.086L57.866 31.812L54.354 33.862L54.594 34.622C54.87 35.5 54.998 36.256 54.998 36.998C54.998 37.74 54.87 38.496 54.594 39.372L54.354 40.134L57.866 42.184L56.858 43.91L53.386 41.882L52.84 42.464C51.31 44.098 49.236 44.998 47 44.998C44.764 44.998 42.69 44.1 41.16 42.466ZM41 71H53V59H41V71ZM43 61H51V69H43V61ZM59 59V71H71V59H59ZM69 69H61V61H69V69ZM23 71H35V59H23V71ZM25 61H33V69H25V61ZM51 37C51 34.794 49.206 33 47 33C44.794 33 43 34.794 43 37C43 39.206 44.794 41 47 41C49.206 41 51 39.206 51 37ZM45 37C45 35.898 45.896 35 47 35C48.104 35 49 35.898 49 37C49 38.102 48.104 39 47 39C45.896 39 45 38.102 45 37Z" fill="white"/>
</g>
<defs>
<clipPath id="clip0_7266_20198">
<rect width="48" height="48" fill="white" transform="translate(23 23)"/>
</clipPath>
</defs>
</svg>
