<svg width="94" height="94" viewBox="0 0 94 94" fill="none" xmlns="http://www.w3.org/2000/svg">
<circle cx="47" cy="47" r="47" fill="#0FD46C"/>
<g clip-path="url(#clip0_7266_20191)">
<path d="M33 39C36.308 39 39 36.308 39 33C39 29.692 36.308 27 33 27C29.692 27 27 29.692 27 33C27 36.308 29.692 39 33 39ZM33 29C35.206 29 37 30.794 37 33C37 35.206 35.206 37 33 37C30.794 37 29 35.206 29 33C29 30.794 30.794 29 33 29ZM49 39C52.308 39 55 36.308 55 33C55 29.692 52.308 27 49 27C45.692 27 43 29.692 43 33C43 36.308 45.692 39 49 39ZM49 29C51.206 29 53 30.794 53 33C53 35.206 51.206 37 49 37C46.794 37 45 35.206 45 33C45 30.794 46.794 29 49 29ZM44.798 49.602C44.466 50.044 43.84 50.136 43.398 49.8C42.704 49.276 41.874 49.002 41 49.002C38.794 49.002 37 50.796 37 53.002C37 54.898 38.346 56.546 40.2 56.922C40.742 57.032 41.09 57.56 40.982 58.102C40.886 58.576 40.468 58.902 40.002 58.902C39.936 58.902 39.87 58.896 39.802 58.882C37.02 58.318 35.002 55.844 35.002 53.002C35.002 49.694 37.694 47.002 41.002 47.002C42.314 47.002 43.558 47.418 44.604 48.204C45.046 48.536 45.134 49.162 44.802 49.604L44.798 49.602ZM58 49C50.832 49 45 54.832 45 62C45 69.168 50.832 75 58 75C65.168 75 71 69.168 71 62C71 54.832 65.168 49 58 49ZM58 73C51.934 73 47 68.064 47 62C47 55.936 51.934 51 58 51C64.066 51 69 55.936 69 62C69 68.064 64.066 73 58 73ZM64.7 59.286C65.084 59.682 65.074 60.316 64.676 60.7L59.27 65.928C58.55 66.638 57.6 66.994 56.648 66.994C55.696 66.994 54.75 66.64 54.024 65.932L51.296 63.238C50.902 62.852 50.898 62.218 51.286 61.824C51.674 61.434 52.308 61.428 52.7 61.816L55.426 64.506C56.1 65.164 57.198 65.16 57.872 64.498L63.284 59.262C63.682 58.88 64.318 58.888 64.7 59.286ZM33 45C28.588 45 25 48.588 25 53V54C25 54.552 24.552 55 24 55C23.448 55 23 54.552 23 54V53C23 47.486 27.486 43 33 43C34.144 43 35.266 43.192 36.334 43.568C36.854 43.754 37.126 44.324 36.942 44.846C36.758 45.366 36.186 45.638 35.666 45.456C34.814 45.154 33.916 45 33 45ZM54.832 46.072C54.638 46.36 54.322 46.516 54 46.516C53.808 46.516 53.616 46.462 53.444 46.346C51.37 44.96 48.664 44.63 46.334 45.456C45.814 45.64 45.242 45.368 45.058 44.846C44.874 44.324 45.146 43.754 45.666 43.568C48.586 42.536 51.962 42.946 54.556 44.686C55.014 44.992 55.138 45.614 54.83 46.072H54.832ZM40.996 63.946C41.056 64.494 40.662 64.988 40.112 65.05C36.058 65.5 33.002 68.918 33.002 73.002V74.002C33.002 74.554 32.554 75.002 32.002 75.002C31.45 75.002 31.002 74.554 31.002 74.002V73.002C31.002 67.896 34.824 63.624 39.892 63.062C40.464 63.01 40.936 63.4 40.996 63.946Z" fill="white"/>
</g>
<defs>
<clipPath id="clip0_7266_20191">
<rect width="48" height="48" fill="white" transform="translate(23 27)"/>
</clipPath>
</defs>
</svg>
