<svg width="62" height="60" viewBox="0 0 62 60" fill="none" xmlns="http://www.w3.org/2000/svg">
<ellipse cx="31" cy="30" rx="31" ry="30" fill="#0D333E"/>
<path d="M23.734 39.518C26.6127 37.206 28.868 35.3133 30.5 33.84C32.132 32.344 33.5033 30.7913 34.614 29.182C35.7473 27.55 36.314 25.952 36.314 24.388C36.314 22.9147 35.9513 21.7587 35.226 20.92C34.5233 20.0587 33.3787 19.628 31.792 19.628C30.2507 19.628 29.0493 20.1153 28.188 21.09C27.3493 22.042 26.896 23.3227 26.828 24.932H23.836C23.9267 22.3933 24.6973 20.4327 26.148 19.05C27.5987 17.6673 29.4687 16.976 31.758 16.976C34.0927 16.976 35.94 17.622 37.3 18.914C38.6827 20.206 39.374 21.9853 39.374 24.252C39.374 26.1333 38.8073 27.9693 37.674 29.76C36.5633 31.528 35.294 33.092 33.866 34.452C32.438 35.7893 30.6133 37.3533 28.392 39.144H40.088V41.728H23.734V39.518Z" fill="white"/>
</svg>
