<svg width="62" height="60" viewBox="0 0 62 60" fill="none" xmlns="http://www.w3.org/2000/svg">
<ellipse cx="31" cy="30" rx="31" ry="30" fill="#0D333E"/>
<path d="M24.04 23.606C24.1987 21.5207 25.0033 19.8887 26.454 18.71C27.9047 17.5313 29.786 16.942 32.098 16.942C33.6393 16.942 34.9653 17.2253 36.076 17.792C37.2093 18.336 38.0593 19.084 38.626 20.036C39.2153 20.988 39.51 22.0647 39.51 23.266C39.51 24.6713 39.102 25.884 38.286 26.904C37.4927 27.924 36.45 28.5813 35.158 28.876V29.046C36.6313 29.4087 37.7987 30.1227 38.66 31.188C39.5213 32.2533 39.952 33.6473 39.952 35.37C39.952 36.662 39.6573 37.8293 39.068 38.872C38.4787 39.892 37.5947 40.6967 36.416 41.286C35.2373 41.8753 33.8207 42.17 32.166 42.17C29.7633 42.17 27.7913 41.5467 26.25 40.3C24.7087 39.0307 23.8473 37.24 23.666 34.928H26.658C26.8167 36.288 27.372 37.3987 28.324 38.26C29.276 39.1213 30.5453 39.552 32.132 39.552C33.7187 39.552 34.92 39.144 35.736 38.328C36.5747 37.4893 36.994 36.4127 36.994 35.098C36.994 33.398 36.4273 32.174 35.294 31.426C34.1607 30.678 32.4493 30.304 30.16 30.304H29.378V27.72H30.194C32.2793 27.6973 33.8547 27.3573 34.92 26.7C35.9853 26.02 36.518 24.9773 36.518 23.572C36.518 22.3707 36.1213 21.4073 35.328 20.682C34.5573 19.9567 33.4467 19.594 31.996 19.594C30.5907 19.594 29.4573 19.9567 28.596 20.682C27.7347 21.4073 27.2247 22.382 27.066 23.606H24.04Z" fill="white"/>
</svg>
