<svg width="94" height="94" viewBox="0 0 94 94" fill="none" xmlns="http://www.w3.org/2000/svg">
<circle cx="47" cy="47" r="47" fill="#0FD46C"/>
<g clip-path="url(#clip0_6947_20095)">
<path d="M66.9394 62.9511C65.0871 62.9511 63.5398 64.2272 63.0931 65.942H56.9697V50.9874H54.9758V67.9359H63.0931C63.5398 69.6507 65.0871 70.9268 66.9394 70.9268C69.1387 70.9268 70.9273 69.1382 70.9273 66.9389C70.9273 64.7396 69.1387 62.9511 66.9394 62.9511ZM66.9394 68.9329C65.8408 68.9329 64.9455 68.0396 64.9455 66.9389C64.9455 65.8383 65.8408 64.945 66.9394 64.945C68.0381 64.945 68.9334 65.8383 68.9334 66.9389C68.9334 68.0396 68.0381 68.9329 66.9394 68.9329ZM47.997 63.0926V50.9874H46.0031V63.0926C44.2883 63.5393 43.0121 65.0866 43.0121 66.9389C43.0121 69.1382 44.8007 70.9268 47 70.9268C49.1993 70.9268 50.9879 69.1382 50.9879 66.9389C50.9879 65.0866 49.7118 63.5393 47.997 63.0926ZM47 68.9329C45.9014 68.9329 45.0061 68.0396 45.0061 66.9389C45.0061 65.8383 45.9014 64.945 47 64.945C48.0987 64.945 48.994 65.8383 48.994 66.9389C48.994 68.0396 48.0987 68.9329 47 68.9329ZM37.0303 65.942H30.9069C30.4603 64.2272 28.913 62.9511 27.0606 62.9511C24.8613 62.9511 23.0728 64.7396 23.0728 66.9389C23.0728 69.1382 24.8613 70.9268 27.0606 70.9268C28.913 70.9268 30.4603 69.6507 30.9069 67.9359H39.0243V50.9874H37.0303V65.942ZM27.0606 68.9329C25.962 68.9329 25.0667 68.0396 25.0667 66.9389C25.0667 65.8383 25.962 64.945 27.0606 64.945C28.1593 64.945 29.0546 65.8383 29.0546 66.9389C29.0546 68.0396 28.1593 68.9329 27.0606 68.9329ZM57.0435 33.6561C55.0117 28.438 50.0926 25.0662 44.5076 25.0662C37.0862 25.0662 31.0485 31.1039 31.0485 38.5253C31.0485 39.602 31.1921 40.7166 31.4772 41.8332L31.6666 42.583L30.9867 42.9558C28.5641 44.2758 27.0606 46.7802 27.0606 49.492C27.0606 53.103 29.6328 56.1238 33.0425 56.8177V58.8116C28.5322 58.0878 25.0667 54.2016 25.0667 49.492C25.0667 46.3017 26.6997 43.3427 29.3756 41.596C29.1622 40.5611 29.0546 39.5322 29.0546 38.5253C29.0546 30.0052 35.9875 23.0723 44.5076 23.0723C50.7407 23.0723 56.2539 26.7292 58.6985 32.4338C64.6604 33.8994 68.9334 39.3109 68.9334 45.5041C68.9334 50.9715 65.6513 55.6792 60.9576 57.7828V55.5695C64.5188 53.6214 66.9394 49.8409 66.9394 45.5041C66.9394 40.0746 63.0851 35.3509 57.7733 34.2702L57.2389 34.1606L57.0415 33.6541L57.0435 33.6561Z" fill="white"/>
</g>
<defs>
<clipPath id="clip0_6947_20095">
<rect width="47.8545" height="47.8545" fill="white" transform="translate(23.0723 23.0723)"/>
</clipPath>
</defs>
</svg>
