<svg width="80" height="110" viewBox="0 0 110 110" fill="none" xmlns="http://www.w3.org/2000/svg">
<circle cx="55" cy="55" r="55" fill="#0FD46C"/>
<path d="M58.8529 34.6875C56.9499 34.6933 55.0913 35.2629 53.5119 36.3243C51.9324 37.3857 50.7029 38.8913 49.9786 40.651C49.2543 42.4108 49.0677 44.3457 49.4424 46.2114C49.817 48.0771 50.7362 49.7899 52.0837 51.1336C53.4312 52.4773 55.1467 53.3915 57.0135 53.7608C58.8803 54.1302 60.8146 53.938 62.5723 53.2087C64.3299 52.4794 65.832 51.2455 66.8889 49.6631C67.9458 48.0806 68.51 46.2204 68.5104 44.3174V44.3157C68.5085 43.0495 68.2573 41.796 67.771 40.6269C67.2848 39.4577 66.573 38.3958 65.6763 37.5017C64.7797 36.6077 63.7157 35.899 62.5451 35.4161C61.3746 34.9332 60.1203 34.6857 58.8541 34.6875H58.8529ZM44.3563 55.4454C43.0675 55.4435 41.8308 55.9535 40.9181 56.8634C40.0054 57.7733 39.4915 59.0084 39.4895 60.2972C39.4866 61.2604 39.7695 62.2028 40.3025 63.0052C40.8355 63.8075 41.5946 64.4336 42.4836 64.8043C43.3727 65.1749 44.3517 65.2735 45.2968 65.0874C46.2419 64.9013 47.1105 64.439 47.7927 63.759C48.4748 63.079 48.9399 62.2118 49.129 61.2673C49.3181 60.3229 49.2226 59.3435 48.8548 58.4533C48.4869 57.5631 47.8632 56.802 47.0626 56.2665C46.262 55.731 45.3205 55.445 44.3572 55.4449L44.3563 55.4454ZM61.0249 65.1499C59.6753 65.1478 58.38 65.682 57.4242 66.6349C56.4683 67.5878 55.9302 68.8814 55.9281 70.2311C55.9291 70.8994 56.0617 71.5609 56.3184 72.178C56.575 72.7951 56.9507 73.3555 57.424 73.8274C57.8973 74.2992 58.4589 74.6732 59.0767 74.9281C59.6946 75.1829 60.3565 75.3135 61.0248 75.3125C61.6931 75.3136 62.3551 75.183 62.9729 74.9282C63.5907 74.6734 64.1523 74.2994 64.6256 73.8276C65.0989 73.3558 65.4746 72.7954 65.7313 72.1783C65.988 71.5613 66.1207 70.8998 66.1217 70.2315C66.1197 68.8818 65.5816 67.5882 64.6257 66.6352C63.6699 65.6823 62.3746 65.1479 61.0249 65.1499Z" stroke="#FCFCFC" stroke-width="1.6875" stroke-linecap="round" stroke-linejoin="round"/>
</svg>
