<svg width="80" height="110" viewBox="0 0 110 110" fill="none" xmlns="http://www.w3.org/2000/svg">
<circle cx="55" cy="55" r="55" fill="#0FD46C"/>
<path d="M65.2142 72.4282H43.0357C39.1785 72.4282 35.9642 69.2139 35.9642 65.3568V41.2497C35.9642 37.3925 39.1785 34.1782 43.0357 34.1782H57.8214V36.4282H43.0357C40.4642 36.4282 38.2142 38.6782 38.2142 41.2497V65.0354C38.2142 67.6068 40.4642 69.8568 43.0357 69.8568H65.2142C67.7857 69.8568 70.0357 67.6068 70.0357 65.0354V53.4639H72.6071V65.0354C72.2857 69.2139 69.0714 72.4282 65.2142 72.4282Z" fill="#FAFAFA"/>
<path d="M73.5714 34.1786L78.3928 40.2857C78.7143 40.6071 78.3928 40.9286 78.0714 41.25L62.6428 53.1429C62.3214 53.4643 55.5714 52.8214 55.5714 52.8214C55.5714 52.8214 56.8571 46.3929 57.1786 46.0714L72.6071 34.1786C72.9286 33.8571 73.25 33.8571 73.5714 34.1786Z" fill="#FBFBFB"/>
<path d="M61.6785 54.4284C60.7142 54.4284 58.7856 54.4284 55.5714 54.107H54.2856V52.4999C55.5714 45.4284 55.8928 45.4284 56.2142 45.107L71.6428 33.2141C72.6071 32.5713 73.5714 32.5713 74.2142 33.5356L79.0356 39.6427C79.6785 40.2856 79.3571 41.5713 78.7142 42.2141L63.2856 54.107C62.9642 54.4284 62.9642 54.4284 61.6785 54.4284ZM56.8571 51.857C59.1071 51.857 61.0356 52.1784 61.9999 52.1784L76.7856 40.607L72.9285 35.4641L58.1428 47.0356C57.8214 47.6784 57.4999 49.607 56.8571 51.857Z" fill="#FAFAFA"/>
</svg>
