<svg width="80" height="110" viewBox="0 0 110 110" fill="none" xmlns="http://www.w3.org/2000/svg">
<circle cx="55" cy="55" r="55" fill="#0FD46C"/>
<path d="M64.5552 40.3982C62.3733 38.9623 59.8909 38.0464 57.2992 37.7211C55.0273 37.4271 52.7198 37.5859 50.5096 38.1883C48.2995 38.7906 46.2305 39.8246 44.422 41.2306C42.6134 42.6366 41.1012 44.3868 39.9725 46.3802C38.8437 48.3736 38.1209 50.5707 37.8456 52.8449C37.5703 55.119 37.748 57.4252 38.3684 59.6303C38.9889 61.8355 40.0398 63.8959 41.4606 65.6929C42.8813 67.4898 44.6439 68.9876 46.6464 70.1C48.649 71.2123 50.852 71.9171 53.1283 72.1738C54.9691 72.3784 56.8306 72.2905 58.6439 71.9134C59.3409 71.7645 59.9848 71.4303 60.5078 70.946C61.0308 70.4617 61.4134 69.8452 61.6153 69.1617C61.8173 68.4781 61.831 67.7527 61.6551 67.062C61.4793 66.3713 61.1203 65.7408 60.616 65.237L59.3973 64.0183C59.1206 63.7414 58.9077 63.4076 58.7733 63.04C58.6389 62.6723 58.5863 62.2798 58.6192 61.8898C58.6521 61.4998 58.7696 61.1217 58.9637 60.7817C59.1577 60.4418 59.4236 60.1483 59.7427 59.9217C60.288 59.5593 60.9435 59.4003 61.5942 59.4725C62.245 59.5447 62.8496 59.8435 63.3022 60.3167L64.971 61.9856C65.4522 62.4635 66.0477 62.8101 66.7009 62.9925C67.3541 63.1749 68.0431 63.1868 68.7022 63.0273C69.3613 62.8678 69.9686 62.542 70.466 62.0812C70.9635 61.6203 71.3346 61.0397 71.544 60.3946C72.3973 57.8229 72.6382 55.0875 72.2474 52.4062C71.8771 49.8258 70.9203 47.3647 69.4505 45.2117" stroke="#FCFCFC" stroke-width="1.77083" stroke-linecap="round" stroke-linejoin="round"/>
<path d="M50.0332 48.9471C51.6461 48.9471 52.9535 47.6396 52.9535 46.0268C52.9535 44.4139 51.6461 43.1064 50.0332 43.1064C48.4204 43.1064 47.1129 44.4139 47.1129 46.0268C47.1129 47.6396 48.4204 48.9471 50.0332 48.9471Z" stroke="#FCFCFC" stroke-width="1.77083" stroke-linecap="round" stroke-linejoin="round"/>
<path d="M47.8882 65.1961C49.5011 65.1961 50.8085 63.8886 50.8085 62.2758C50.8085 60.6629 49.5011 59.3555 47.8882 59.3555C46.2754 59.3555 44.9679 60.6629 44.9679 62.2758C44.9679 63.8886 46.2754 65.1961 47.8882 65.1961Z" stroke="#FCFCFC" stroke-width="1.77083" stroke-linecap="round" stroke-linejoin="round"/>
<path d="M45.227 56.5818C46.8398 56.5818 48.1473 55.2744 48.1473 53.6615C48.1473 52.0487 46.8398 50.7412 45.227 50.7412C43.6141 50.7412 42.3066 52.0487 42.3066 53.6615C42.3066 55.2744 43.6141 56.5818 45.227 56.5818Z" stroke="#FCFCFC" stroke-width="1.77083" stroke-linecap="round" stroke-linejoin="round"/>
<path d="M61.9734 52.3916C61.9756 51.395 61.6385 50.4272 61.0176 49.6475C60.3967 48.8679 59.5289 48.3227 58.557 48.1018C57.5851 47.8809 56.5669 47.9974 55.67 48.4321C54.7731 48.8668 54.0508 49.5938 53.622 50.4935L53.6116 50.4808C53.6116 50.4808 51.7614 53.9376 49.793 54.2147C50.5415 55.8227 54.0183 58.2278 58.5596 56.6786L58.5544 56.6723C59.5248 56.4513 60.3915 55.9075 61.0126 55.1299C61.6337 54.3523 61.9724 53.3869 61.9734 52.3916Z" stroke="#FCFCFC" stroke-width="1.77083" stroke-linecap="round" stroke-linejoin="round"/>
<path d="M58.575 48.1079C59.4965 44.4555 72.7489 31.2862 75.8264 34.1146C78.9039 36.9429 65.1082 50.3219 61.7894 51.1315" stroke="#FCFCFC" stroke-width="1.77083" stroke-linecap="round" stroke-linejoin="round"/>
</svg>
