<svg width="56" height="56" viewBox="0 0 56 56" fill="none" xmlns="http://www.w3.org/2000/svg">
<g clip-path="url(#clip0_7061_20055)">
<path d="M22.9927 27.6593L16.9517 33.7003C16.0837 34.5683 14.9497 35.0047 13.811 35.0047C12.7377 35.0047 11.6643 34.6173 10.8103 33.8333L7.36167 30.5433C6.895 30.1 6.87867 29.3603 7.322 28.8937C7.76533 28.4293 8.50733 28.4107 8.97167 28.854L12.404 32.13C13.223 32.8743 14.504 32.8557 15.302 32.0507L21.343 26.0097C21.798 25.5547 22.5377 25.5547 22.9927 26.0097C23.4477 26.4647 23.4477 27.2043 22.9927 27.6593ZM24.5 53.6667H10.5C5.99667 53.6667 2.33333 50.0033 2.33333 45.5V15.1667C2.33333 10.6633 5.99667 7 10.5 7H12.8333C13.4773 7 14 6.47733 14 5.83333C14 3.90367 15.5703 2.33333 17.5 2.33333H24.5C26.4297 2.33333 28 3.90367 28 5.83333C28 6.47733 28.5227 7 29.1667 7H31.5C36.0033 7 39.6667 10.6633 39.6667 15.1667V24.5C39.6667 25.144 40.1893 25.6667 40.8333 25.6667C41.4773 25.6667 42 25.144 42 24.5V15.1667C42 9.37767 37.289 4.66667 31.5 4.66667H30.2167C29.6753 2.00667 27.3187 0 24.5 0H17.5C14.6813 0 12.327 2.00667 11.7833 4.66667H10.5C4.711 4.66667 0 9.37767 0 15.1667V45.5C0 51.289 4.711 56 10.5 56H24.5C25.144 56 25.6667 55.4773 25.6667 54.8333C25.6667 54.1893 25.144 53.6667 24.5 53.6667ZM21.3407 37.674L15.2997 43.715C14.5017 44.52 13.2207 44.541 12.4017 43.7943L8.96933 40.5207C8.505 40.075 7.763 40.0913 7.31967 40.5603C6.87633 41.0247 6.89267 41.7643 7.35933 42.2077L10.808 45.4977C11.662 46.2817 12.7353 46.669 13.8087 46.669C14.945 46.669 16.0813 46.2327 16.9493 45.3647L22.9903 39.3237C23.4453 38.8687 23.4453 38.129 22.9903 37.674C22.5353 37.219 21.7957 37.219 21.3407 37.674ZM45.5 37.3333H38.5C37.856 37.3333 37.3333 37.856 37.3333 38.5C37.3333 39.144 37.856 39.6667 38.5 39.6667H45.5C46.144 39.6667 46.6667 39.144 46.6667 38.5C46.6667 37.856 46.144 37.3333 45.5 37.3333ZM56 38.5V47.8333C56 52.3367 52.3367 56 47.8333 56H36.1667C31.6633 56 28 52.3367 28 47.8333V38.5C28 33.9967 31.6633 30.3333 36.1667 30.3333H47.8333C52.3367 30.3333 56 33.9967 56 38.5ZM53.6667 38.5C53.6667 35.2823 51.051 32.6667 47.8333 32.6667H36.1667C32.949 32.6667 30.3333 35.2823 30.3333 38.5V47.8333C30.3333 51.051 32.949 53.6667 36.1667 53.6667H47.8333C51.051 53.6667 53.6667 51.051 53.6667 47.8333V38.5ZM35 19.8333C35 19.1893 34.4773 18.6667 33.8333 18.6667H26.8333C26.1893 18.6667 25.6667 19.1893 25.6667 19.8333C25.6667 20.4773 26.1893 21 26.8333 21H33.8333C34.4773 21 35 20.4773 35 19.8333ZM22.9927 14.3407C22.5377 13.8857 21.798 13.8857 21.343 14.3407L15.302 20.3817C14.4993 21.182 13.2207 21.2077 12.404 20.461L8.97167 17.185C8.50733 16.744 7.76533 16.7603 7.322 17.2247C6.87867 17.6913 6.895 18.4287 7.36167 18.8743L10.8103 22.1667C11.6643 22.9483 12.7377 23.3357 13.811 23.3357C14.9497 23.3357 16.086 22.8993 16.9517 22.0313L22.9927 15.9903C23.4477 15.5353 23.4477 14.7957 22.9927 14.3407Z" fill="#0FD46C"/>
</g>
<defs>
<clipPath id="clip0_7061_20055">
<rect width="56" height="56" fill="white"/>
</clipPath>
</defs>
</svg>
