<svg width="56" height="56" viewBox="0 0 56 56" fill="none" xmlns="http://www.w3.org/2000/svg">
<g clip-path="url(#clip0_7061_20059)">
<path d="M55.258 13.9207C55.118 13.9743 54.9757 14 54.8333 14C54.3667 14 53.9257 13.7177 53.746 13.258L50.12 3.96433C41.8623 23.443 25.5033 36.239 1.43733 41.9673C1.34633 41.9907 1.25533 42 1.16667 42C0.639333 42 0.161 41.6407 0.0326667 41.104C-0.116667 40.4763 0.270667 39.8463 0.898333 39.697C24.353 34.1133 40.2313 21.6557 48.1343 2.68567L38.3507 6.503C37.7557 6.73867 37.0743 6.44 36.841 5.84033C36.6077 5.24067 36.904 4.564 37.5037 4.33067L47.768 0.324333C48.5637 0.014 49.4317 0.028 50.2157 0.373333C50.9997 0.718667 51.604 1.34633 51.9143 2.14433L55.9207 12.411C56.1563 13.0107 55.8577 13.6873 55.258 13.9207ZM50.1667 18.6667C49.5227 18.6667 49 19.1893 49 19.8333V54.8333C49 55.4773 49.5227 56 50.1667 56C50.8107 56 51.3333 55.4773 51.3333 54.8333V19.8333C51.3333 19.1893 50.8107 18.6667 50.1667 18.6667ZM38.5 30.3333C37.856 30.3333 37.3333 30.856 37.3333 31.5V54.8333C37.3333 55.4773 37.856 56 38.5 56C39.144 56 39.6667 55.4773 39.6667 54.8333V31.5C39.6667 30.856 39.144 30.3333 38.5 30.3333ZM15.1667 42C14.5227 42 14 42.5227 14 43.1667V54.8333C14 55.4773 14.5227 56 15.1667 56C15.8107 56 16.3333 55.4773 16.3333 54.8333V43.1667C16.3333 42.5227 15.8107 42 15.1667 42ZM3.5 46.6667C2.856 46.6667 2.33333 47.1893 2.33333 47.8333V54.8333C2.33333 55.4773 2.856 56 3.5 56C4.144 56 4.66667 55.4773 4.66667 54.8333V47.8333C4.66667 47.1893 4.144 46.6667 3.5 46.6667ZM26.8333 37.3333C26.1893 37.3333 25.6667 37.856 25.6667 38.5V54.8333C25.6667 55.4773 26.1893 56 26.8333 56C27.4773 56 28 55.4773 28 54.8333V38.5C28 37.856 27.4773 37.3333 26.8333 37.3333ZM0 14C0 6.279 6.279 0 14 0C21.721 0 28 6.279 28 14C28 21.721 21.721 28 14 28C6.279 28 0 21.721 0 14ZM14 25.6667C15.673 25.6667 17.2573 25.298 18.6993 24.661C18.6923 24.6073 18.6667 24.5583 18.6667 24.5V23.3333C18.6667 20.7597 16.5737 18.6667 14 18.6667C11.4263 18.6667 9.33333 20.7597 9.33333 23.3333V24.5C9.33333 24.556 9.31 24.605 9.30067 24.661C10.7403 25.298 12.3247 25.6667 14 25.6667ZM2.33333 14C2.33333 17.7987 4.186 21.147 7.00467 23.2773C7.035 19.4437 10.157 16.3333 14 16.3333C17.843 16.3333 20.965 19.4437 20.9953 23.2773C23.814 21.1447 25.6667 17.7987 25.6667 14C25.6667 7.567 20.433 2.33333 14 2.33333C7.567 2.33333 2.33333 7.567 2.33333 14ZM9.33333 9.33333C9.33333 6.75967 11.4263 4.66667 14 4.66667C16.5737 4.66667 18.6667 6.75967 18.6667 9.33333C18.6667 11.907 16.5737 14 14 14C11.4263 14 9.33333 11.907 9.33333 9.33333ZM11.6667 9.33333C11.6667 10.6213 12.7143 11.6667 14 11.6667C15.2857 11.6667 16.3333 10.6213 16.3333 9.33333C16.3333 8.04533 15.2857 7 14 7C12.7143 7 11.6667 8.04533 11.6667 9.33333Z" fill="#0FD46C"/>
</g>
<defs>
<clipPath id="clip0_7061_20059">
<rect width="56" height="56" fill="white"/>
</clipPath>
</defs>
</svg>
