<svg width="94" height="94" viewBox="0 0 94 94" fill="none" xmlns="http://www.w3.org/2000/svg">
<circle cx="47" cy="47" r="47" fill="#0D333E"/>
<g clip-path="url(#clip0_7061_20082)">
<path d="M67 43H57C54.794 43 53 44.794 53 47V59H45V50C45 45.336 42.076 41.35 37.97 39.754C39.796 38.49 41 36.384 41 34C41 30.14 37.86 27 34 27C30.14 27 27 30.14 27 34C27 36.384 28.204 38.49 30.03 39.754C25.924 41.352 23 45.338 23 50V74C23 74.552 23.448 75 24 75C24.552 75 25 74.552 25 74V61H69V74C69 74.552 69.448 75 70 75C70.552 75 71 74.552 71 74V47C71 44.794 69.206 43 67 43ZM61 45H63V49H61V45ZM29 34C29 31.242 31.242 29 34 29C36.758 29 39 31.242 39 34C39 36.758 36.758 39 34 39C31.242 39 29 36.758 29 34ZM34 41C38.962 41 43 45.038 43 50V59H25V50C25 45.038 29.038 41 34 41ZM55 59V47C55 45.896 55.896 45 57 45H59V49C59 50.104 59.896 51 61 51H63C64.104 51 65 50.104 65 49V45H67C68.104 45 69 45.896 69 47V59H55Z" fill="white"/>
</g>
<defs>
<clipPath id="clip0_7061_20082">
<rect width="48" height="48" fill="white" transform="translate(23 27)"/>
</clipPath>
</defs>
</svg>
