<svg width="94" height="92" viewBox="0 0 94 92" fill="none" xmlns="http://www.w3.org/2000/svg">
<ellipse cx="47" cy="45.6244" rx="47" ry="45.6244" fill="#0D333E"/>
<g clip-path="url(#clip0_7061_20089)">
<path d="M37.764 52.122H27C26.448 52.122 26 51.6871 26 51.1512C26 50.6154 26.448 50.1805 27 50.1805H37.764C38.146 50.1805 38.488 49.9747 38.658 49.6446L40.754 45.5753C41.172 44.7619 42.008 44.2862 42.95 44.3347C43.886 44.3833 44.67 44.9405 44.998 45.7908L48.876 55.8282C48.936 55.9855 49.062 56.0243 49.156 56.0282C49.264 56.034 49.38 56.0088 49.456 55.8593L51.552 51.79C52.064 50.7979 53.092 50.1805 54.236 50.1805H63C63.552 50.1805 64 50.6154 64 51.1512C64 51.6871 63.552 52.122 63 52.122H54.236C53.854 52.122 53.512 52.3277 53.342 52.6578L51.246 56.7271C50.846 57.5017 50.062 57.9716 49.18 57.9716C49.138 57.9716 49.094 57.9716 49.052 57.9677C48.116 57.9192 47.332 57.362 47.004 56.5116L43.126 46.4742C43.066 46.317 42.94 46.2781 42.846 46.2743C42.748 46.284 42.622 46.2956 42.546 46.4432L40.45 50.5125C39.938 51.5046 38.908 52.122 37.764 52.122ZM70 42.3855V60.8585C70 65.6753 65.962 69.5951 61 69.5951H39C34.038 69.5951 30 65.6753 30 60.8585V56.9756C30 56.4398 30.448 56.0049 31 56.0049C31.552 56.0049 32 56.4398 32 56.9756V60.8585C32 64.6056 35.14 67.6537 39 67.6537H61C64.86 67.6537 68 64.6056 68 60.8585V42.3855C68 41.7351 67.924 41.0983 67.808 40.4732H57C54.244 40.4732 52 38.2948 52 35.6195V25.1278C51.354 25.0152 50.698 24.9415 50.03 24.9415H39C35.14 24.9415 32 27.9896 32 31.7366V45.3268C32 45.8627 31.552 46.2976 31 46.2976C30.448 46.2976 30 45.8627 30 45.3268V31.7366C30 26.9198 34.038 23 39 23H50.03C53.502 23 56.768 24.3124 59.222 26.6965L66.192 33.4625C68.648 35.8467 70 39.0151 70 42.3855ZM67.242 38.5317C66.696 37.1649 65.878 35.903 64.78 34.8352L57.81 28.0692C56.71 27.0014 55.41 26.2073 54.002 25.6792V35.6215C54.002 37.227 55.348 38.5337 57.002 38.5337H67.244L67.242 38.5317Z" fill="white"/>
</g>
<defs>
<clipPath id="clip0_7061_20089">
<rect width="48" height="46.5951" fill="white" transform="translate(26 23)"/>
</clipPath>
</defs>
</svg>

