<svg width="94" height="94" viewBox="0 0 94 94" fill="none" xmlns="http://www.w3.org/2000/svg">
<circle cx="47" cy="47" r="47" fill="#0D333E"/>
<path d="M42.708 46.708L37.53 51.886C36.786 52.63 35.814 53.004 34.838 53.004C33.918 53.004 32.998 52.672 32.266 52L29.31 49.18C28.91 48.8 28.896 48.166 29.276 47.766C29.656 47.368 30.292 47.352 30.69 47.732L33.632 50.54C34.334 51.178 35.432 51.162 36.116 50.472L41.294 45.294C41.684 44.904 42.318 44.904 42.708 45.294C43.098 45.684 43.098 46.318 42.708 46.708ZM44 69H32C28.14 69 25 65.86 25 62V36C25 32.14 28.14 29 32 29H34C34.552 29 35 28.552 35 28C35 26.346 36.346 25 38 25H44C45.654 25 47 26.346 47 28C47 28.552 47.448 29 48 29H50C53.86 29 57 32.14 57 36V44C57 44.552 57.448 45 58 45C58.552 45 59 44.552 59 44V36C59 31.038 54.962 27 50 27H48.9C48.436 24.72 46.416 23 44 23H38C35.584 23 33.566 24.72 33.1 27H32C27.038 27 23 31.038 23 36V62C23 66.962 27.038 71 32 71H44C44.552 71 45 70.552 45 70C45 69.448 44.552 69 44 69ZM41.292 55.292L36.114 60.47C35.43 61.16 34.332 61.178 33.63 60.538L30.688 57.732C30.29 57.35 29.654 57.364 29.274 57.766C28.894 58.164 28.908 58.798 29.308 59.178L32.264 61.998C32.996 62.67 33.916 63.002 34.836 63.002C35.81 63.002 36.784 62.628 37.528 61.884L42.706 56.706C43.096 56.316 43.096 55.682 42.706 55.292C42.316 54.902 41.682 54.902 41.292 55.292ZM62 55H56C55.448 55 55 55.448 55 56C55 56.552 55.448 57 56 57H62C62.552 57 63 56.552 63 56C63 55.448 62.552 55 62 55ZM71 56V64C71 67.86 67.86 71 64 71H54C50.14 71 47 67.86 47 64V56C47 52.14 50.14 49 54 49H64C67.86 49 71 52.14 71 56ZM69 56C69 53.242 66.758 51 64 51H54C51.242 51 49 53.242 49 56V64C49 66.758 51.242 69 54 69H64C66.758 69 69 66.758 69 64V56ZM53 40C53 39.448 52.552 39 52 39H46C45.448 39 45 39.448 45 40C45 40.552 45.448 41 46 41H52C52.552 41 53 40.552 53 40ZM42.708 35.292C42.318 34.902 41.684 34.902 41.294 35.292L36.116 40.47C35.428 41.156 34.332 41.178 33.632 40.538L30.69 37.73C30.292 37.352 29.656 37.366 29.276 37.764C28.896 38.164 28.91 38.796 29.31 39.178L32.266 42C32.998 42.67 33.918 43.002 34.838 43.002C35.814 43.002 36.788 42.628 37.53 41.884L42.708 36.706C43.098 36.316 43.098 35.682 42.708 35.292Z" fill="white"/>
</svg>
