<svg width="94" height="94" viewBox="0 0 94 94" fill="none" xmlns="http://www.w3.org/2000/svg">
<circle cx="47" cy="47" r="47" fill="#0D333E"/>
<g clip-path="url(#clip0_7000_20172)">
<path d="M24.9995 71C24.7435 71 24.4875 70.902 24.2915 70.708C23.9015 70.318 23.9015 69.684 24.2915 69.294L70.2915 23.292C70.6815 22.902 71.3155 22.902 71.7055 23.292C72.0955 23.682 72.0955 24.316 71.7055 24.706L25.7075 70.708C25.5115 70.904 25.2555 71 24.9995 71ZM41.9995 33C41.9995 28.588 38.4115 25 33.9995 25C29.5875 25 25.9995 28.588 25.9995 33C25.9995 37.412 29.5875 41 33.9995 41C38.4115 41 41.9995 37.412 41.9995 33ZM39.9995 33C39.9995 36.308 37.3075 39 33.9995 39C30.6915 39 27.9995 36.308 27.9995 33C27.9995 29.692 30.6915 27 33.9995 27C37.3075 27 39.9995 29.692 39.9995 33ZM69.9995 61C69.9995 56.588 66.4115 53 61.9995 53C57.5875 53 53.9995 56.588 53.9995 61C53.9995 65.412 57.5875 69 61.9995 69C66.4115 69 69.9995 65.412 69.9995 61ZM67.9995 61C67.9995 64.308 65.3075 67 61.9995 67C58.6915 67 55.9995 64.308 55.9995 61C55.9995 57.692 58.6915 55 61.9995 55C65.3075 55 67.9995 57.692 67.9995 61Z" fill="white"/>
</g>
<defs>
<clipPath id="clip0_7000_20172">
<rect width="48" height="48" fill="white" transform="translate(24 23)"/>
</clipPath>
</defs>
</svg>
