<svg width="56" height="56" viewBox="0 0 56 56" fill="none" xmlns="http://www.w3.org/2000/svg">
<path d="M44.4988 6.83433C40.0888 2.42667 34.2321 0 27.9998 0C21.7675 0 15.9085 2.42667 11.5008 6.83433C2.40313 15.932 2.40313 30.7347 11.5101 39.8417L25.6478 53.6667H11.6688V56H44.3355V53.6667H30.3565L44.5035 39.8323C53.6011 30.7347 53.6011 15.932 44.5035 6.832L44.4988 6.83433ZM27.9998 52.7053L13.1505 38.1827C4.9628 29.9927 4.9628 16.6717 13.1505 8.48167C17.1171 4.51733 22.3928 2.331 27.9998 2.331C33.6068 2.331 38.8825 4.51733 42.8491 8.48167C51.0368 16.6717 51.0368 29.995 42.8585 38.1733L27.9998 52.7053ZM16.3331 16.086V31.6377L27.9998 37.471L39.6665 31.6377V16.086L27.9998 10.3693L16.3331 16.086ZM35.8911 16.8327L27.9998 20.8577L20.1085 16.8327L27.9998 12.9663L35.8911 16.8327ZM27.9998 34.8647L18.6665 30.198V18.718L27.9998 23.478L37.3331 18.718V30.198L27.9998 34.8647Z" fill="#0FD46C"/>
</svg>
