<svg width="18" height="20" viewBox="0 0 18 20" fill="none" xmlns="http://www.w3.org/2000/svg">
<path d="M11.3308 8.4502H12.5231L9.76256 11.2109L6.67259 8.12071L2.2511 12.5422L3.34888 13.6402L6.67259 10.3165L9.76256 13.4067L13.6554 9.51359V10.781H15.2084V6.89746H11.3308V8.4502Z" fill="#0D333E"/>
<path d="M15.7329 0.683594H15.5954C14.9498 0.683594 14.3519 1.04683 13.9959 1.65485C13.866 1.87627 13.5227 1.90324 13.3599 1.70644C12.8181 1.04683 12.0986 0.683594 11.3295 0.683594C10.5656 0.683594 9.84638 1.04683 9.30397 1.70644C9.15493 1.88731 8.85199 1.88689 8.7038 1.70601C8.16139 1.04683 7.44213 0.683594 6.67829 0.683594C5.91444 0.683594 5.19519 1.04683 4.65277 1.70644C4.49015 1.90472 4.14708 1.87776 4.01694 1.65485C3.66028 1.04683 3.06246 0.683594 2.4175 0.683594H2.26359C1.26813 0.683594 0.458008 1.49372 0.458008 2.48917V17.5115C0.458008 18.5069 1.26813 19.317 2.26359 19.317H2.4175C3.06246 19.317 3.66028 18.9538 4.01737 18.3449C4.14623 18.1231 4.4893 18.0951 4.65277 18.2944C5.19519 18.9536 5.91444 19.3168 6.67829 19.3168C7.44213 19.3168 8.16139 18.9536 8.7038 18.294C8.85199 18.114 9.15493 18.1127 9.30397 18.2944C9.84638 18.9536 10.5656 19.3168 11.3348 19.3168C12.0986 19.3168 12.8183 18.9536 13.3597 18.2948C13.5238 18.0957 13.8668 18.1246 13.9957 18.3449C14.3522 18.9538 14.95 19.317 15.5956 19.317H15.7331C16.7286 19.317 17.5387 18.5069 17.5387 17.5115V2.48939C17.5385 1.49372 16.7284 0.683594 15.7329 0.683594ZM15.9858 17.5115C15.9858 17.6509 15.8724 17.7643 15.7329 17.7643H15.5954C15.465 17.7643 15.3637 17.6085 15.3357 17.5603C14.9884 16.9678 14.3462 16.5997 13.6601 16.5997C13.0777 16.5997 12.5315 16.8578 12.1604 17.3085C12.0205 17.4788 11.7271 17.7641 11.3295 17.7641C10.9372 17.7641 10.6433 17.4783 10.5034 17.3085C9.76295 16.4067 8.24397 16.4077 7.50433 17.3081C7.36443 17.4783 7.07061 17.7641 6.67829 17.7641C6.28596 17.7641 5.99215 17.4783 5.85224 17.3085C5.48221 16.8578 4.93555 16.5997 4.35301 16.5997C3.66602 16.5997 3.02382 16.9682 2.67735 17.5603C2.64933 17.6081 2.54764 17.7643 2.41771 17.7643H2.2638C2.12432 17.7643 2.01095 17.6509 2.01095 17.5115V2.48939C2.01095 2.34991 2.12432 2.23654 2.2638 2.23654H2.41771C2.54764 2.23654 2.64933 2.39279 2.67693 2.43971C3.02382 3.03265 3.66602 3.4012 4.35301 3.4012C4.93576 3.4012 5.48242 3.14305 5.85224 2.69255C5.99215 2.52229 6.28596 2.23654 6.67829 2.23654C7.07061 2.23654 7.36443 2.52229 7.50433 2.69213C8.24397 3.59333 9.76295 3.59354 10.5034 2.69255C10.6433 2.52229 10.9372 2.23654 11.3348 2.23654C11.7271 2.23654 12.0205 2.52208 12.1608 2.69298C12.5315 3.14304 13.078 3.4012 13.6601 3.4012C14.3462 3.4012 14.9884 3.03308 15.3361 2.43971C15.3637 2.39237 15.465 2.23654 15.5954 2.23654H15.7329C15.8724 2.23654 15.9858 2.34991 15.9858 2.48939V17.5115Z" fill="#0D333E"/>
</svg>
