<svg width="28" height="28" viewBox="0 0 28 28" fill="none" xmlns="http://www.w3.org/2000/svg">
<path d="M24.7161 24.7129H3.28711V3.28711H12.8086V0.904297H0.904297V27.0957H27.0957V17.571H24.7161V24.7129Z" fill="#0D333E"/>
<path d="M10.429 16.3796H12.8086C12.8086 13.0983 15.4778 10.4258 18.7623 10.4258C22.0468 10.4258 24.7161 13.0951 24.7161 16.3796H27.0957C27.0957 13.0527 25.136 10.1751 22.3105 8.84049C23.0657 7.9974 23.5247 6.88411 23.5247 5.66667C23.5247 3.03646 21.3925 0.904297 18.7623 0.904297C16.1321 0.904297 14 3.03646 14 5.66667C14 6.88737 14.4589 8.00065 15.2142 8.84049C12.3886 10.1784 10.429 13.0527 10.429 16.3796ZM18.7623 3.28711C20.0742 3.28711 21.1419 4.35482 21.1419 5.66667C21.1419 6.97852 20.0742 8.04622 18.7623 8.04622C17.4505 8.04622 16.3828 6.97852 16.3828 5.66667C16.3828 4.35482 17.4505 3.28711 18.7623 3.28711ZM4.47522 5.66667H11.6171V8.04622H4.47522V5.66667ZM4.47522 18.7624H23.5214V21.1419H4.47522V18.7624ZM4.47522 10.429H9.23759V12.8086H4.47522V10.429Z" fill="#0D333E"/>
</svg>
