<svg width="27" height="27" viewBox="0 0 27 27" fill="none" xmlns="http://www.w3.org/2000/svg">
<path d="M15.6682 10.7804C16.0301 11.1975 16.6617 11.2423 17.0789 10.8803C17.496 10.5183 17.5407 9.88676 17.1788 9.46962L15.6682 10.7804ZM11.3318 16.2196C10.9699 15.8025 10.3383 15.7577 9.92116 16.1197C9.50402 16.4817 9.45928 17.1132 9.82124 17.5304L11.3318 16.2196ZM14.5 7.875C14.5 7.32272 14.0523 6.875 13.5 6.875C12.9477 6.875 12.5 7.32272 12.5 7.875H14.5ZM12.5 19.125C12.5 19.6773 12.9477 20.125 13.5 20.125C14.0523 20.125 14.5 19.6773 14.5 19.125L12.5 19.125ZM22.625 13.5C22.625 18.5396 18.5396 22.625 13.5 22.625V24.625C19.6442 24.625 24.625 19.6442 24.625 13.5H22.625ZM13.5 22.625C8.4604 22.625 4.375 18.5396 4.375 13.5H2.375C2.375 19.6442 7.35583 24.625 13.5 24.625V22.625ZM4.375 13.5C4.375 8.4604 8.4604 4.375 13.5 4.375V2.375C7.35583 2.375 2.375 7.35583 2.375 13.5H4.375ZM13.5 4.375C18.5396 4.375 22.625 8.4604 22.625 13.5H24.625C24.625 7.35583 19.6442 2.375 13.5 2.375V4.375ZM13.5 12.5C12.7379 12.5 12.0932 12.2923 11.6682 12.0089C11.2362 11.721 11.125 11.4329 11.125 11.25H9.125C9.125 12.3097 9.76928 13.1467 10.5588 13.673C11.3553 14.2041 12.3981 14.5 13.5 14.5V12.5ZM11.125 11.25C11.125 11.0671 11.2362 10.779 11.6682 10.4911C12.0932 10.2077 12.7379 10 13.5 10V8C12.3981 8 11.3553 8.29594 10.5588 8.82696C9.76928 9.35332 9.125 10.1903 9.125 11.25H11.125ZM13.5 10C14.5426 10 15.323 10.3826 15.6682 10.7804L17.1788 9.46962C16.3568 8.52236 14.9559 8 13.5 8V10ZM13.5 14.5C14.2621 14.5 14.9068 14.7077 15.3318 14.9911C15.7638 15.279 15.875 15.5671 15.875 15.75H17.875C17.875 14.6903 17.2307 13.8533 16.4412 13.327C15.6447 12.7959 14.6019 12.5 13.5 12.5V14.5ZM12.5 7.875V9H14.5V7.875H12.5ZM12.5 18L12.5 19.125L14.5 19.125L14.5 18L12.5 18ZM13.5 17C12.4574 17 11.677 16.6174 11.3318 16.2196L9.82124 17.5304C10.6432 18.4776 12.0442 19 13.5 19L13.5 17ZM15.875 15.75C15.875 15.9329 15.7638 16.221 15.3318 16.5089C14.9068 16.7923 14.2621 17 13.5 17V19C14.6019 19 15.6447 18.7041 16.4412 18.173C17.2307 17.6467 17.875 16.8097 17.875 15.75H15.875ZM12.5 9L12.5 18L14.5 18L14.5 9L12.5 9Z" fill="#0D333E"/>
</svg>
