<svg width="35" height="35" viewBox="0 0 35 35" fill="none" xmlns="http://www.w3.org/2000/svg">
<path d="M31.3672 4.58013C31.2824 4.37525 31.1571 4.1832 30.9911 4.01628C30.9887 4.0138 30.9862 4.01132 30.9837 4.00886C30.6673 3.69435 30.2314 3.5 29.75 3.5H22.75C21.7835 3.5 21 4.2835 21 5.25C21 6.2165 21.7835 7 22.75 7H25.5251L19.7626 12.7626C19.0791 13.446 19.0791 14.554 19.7626 15.2374C20.446 15.9209 21.554 15.9209 22.2374 15.2374L28 9.47487V12.25C28 13.2165 28.7835 14 29.75 14C30.7165 14 31.5 13.2165 31.5 12.25V5.25C31.5 5.01272 31.4528 4.78647 31.3672 4.58013Z" fill="#111827"/>
<path d="M3.5 5.25C3.5 4.2835 4.2835 3.5 5.25 3.5H9.01753C9.873 3.5 10.6031 4.11847 10.7437 4.9623L12.0375 12.7251C12.1638 13.4829 11.7811 14.2345 11.0939 14.578L8.3847 15.9326C10.3382 20.7871 14.2129 24.6618 19.0674 26.6153L20.422 23.9061C20.7655 23.2189 21.5171 22.8362 22.2749 22.9625L30.0377 24.2563C30.8815 24.3969 31.5 25.127 31.5 25.9825V29.75C31.5 30.7165 30.7165 31.5 29.75 31.5H26.25C13.6855 31.5 3.5 21.3145 3.5 8.75V5.25Z" fill="#111827"/>
</svg>
