<svg width="15" height="14" viewBox="0 0 15 14" fill="none" xmlns="http://www.w3.org/2000/svg">
<path d="M6.72961 4.71338V6.38171L6.14044 6.17755C5.84294 6.07255 5.66211 5.97338 5.66211 5.46588C5.66211 5.05171 5.97128 4.71338 6.35044 4.71338H6.72961Z" fill="#181F38" fill-opacity="0.7"/>
<path d="M8.67199 8.534C8.67199 8.94816 8.36283 9.2865 7.98366 9.2865H7.60449V7.61816L8.19366 7.82233C8.49116 7.92733 8.67199 8.0265 8.67199 8.534Z" fill="#181F38" fill-opacity="0.7"/>
<path d="M9.61148 1.1665H4.72315C2.59982 1.1665 1.33398 2.43234 1.33398 4.55567V9.444C1.33398 11.5673 2.59982 12.8332 4.72315 12.8332H9.61148C11.7348 12.8332 13.0007 11.5673 13.0007 9.444V4.55567C13.0007 2.43234 11.7348 1.1665 9.61148 1.1665ZM8.48565 6.99984C8.94065 7.15734 9.54732 7.48984 9.54732 8.534C9.54732 9.43234 8.84732 10.1615 7.98398 10.1615H7.60482V10.4998C7.60482 10.739 7.40648 10.9373 7.16732 10.9373C6.92815 10.9373 6.72982 10.739 6.72982 10.4998V10.1615H6.51982C5.56315 10.1615 4.78732 9.35067 4.78732 8.359C4.78732 8.11984 4.97982 7.9215 5.22482 7.9215C5.46398 7.9215 5.66232 8.11984 5.66232 8.359C5.66232 8.87234 6.04732 9.2865 6.51982 9.2865H6.72982V7.309L5.84898 6.99984C5.39398 6.84234 4.78732 6.50984 4.78732 5.46567C4.78732 4.56734 5.48732 3.83817 6.35065 3.83817H6.72982V3.49984C6.72982 3.26067 6.92815 3.06234 7.16732 3.06234C7.40648 3.06234 7.60482 3.26067 7.60482 3.49984V3.83817H7.81482C8.77148 3.83817 9.54732 4.649 9.54732 5.64067C9.54732 5.87984 9.35482 6.07817 9.10982 6.07817C8.87065 6.07817 8.67232 5.87984 8.67232 5.64067C8.67232 5.12734 8.28732 4.71317 7.81482 4.71317H7.60482V6.69067L8.48565 6.99984Z" fill="#181F38" fill-opacity="0.7"/>
</svg>
