<svg width="15" height="14" viewBox="0 0 15 14" fill="none" xmlns="http://www.w3.org/2000/svg">
<path fill-rule="evenodd" clip-rule="evenodd" d="M6.80894 13.8769L6.80748 13.8758L6.80387 13.873L6.79106 13.8629C6.78009 13.8542 6.76427 13.8417 6.74395 13.8255C6.70331 13.7929 6.6446 13.7455 6.5704 13.6843C6.42205 13.5618 6.21151 13.384 5.95946 13.1599C5.45618 12.7126 4.7834 12.0774 4.10873 11.3277C3.43575 10.58 2.74969 9.70608 2.22921 8.78078C1.71176 7.86087 1.33398 6.84795 1.33398 5.83333C1.33398 4.28624 1.94857 2.80251 3.04253 1.70854C4.13649 0.614582 5.62022 0 7.16732 0C8.71441 0 10.1981 0.614582 11.2921 1.70854C12.3861 2.80251 13.0007 4.28624 13.0007 5.83333C13.0007 6.84795 12.6229 7.86087 12.1054 8.78078C11.5849 9.70608 10.8989 10.58 10.2259 11.3277C9.55123 12.0774 8.87846 12.7126 8.37518 13.1599C8.12313 13.384 7.91258 13.5618 7.76423 13.6843C7.69003 13.7455 7.63132 13.7929 7.59068 13.8255C7.57036 13.8417 7.55455 13.8542 7.54357 13.8629L7.53077 13.873L7.52716 13.8758L7.52606 13.8766C7.52606 13.8766 7.52545 13.8771 7.16732 13.4167L7.52545 13.8771C7.3148 14.041 7.01959 14.0408 6.80894 13.8769ZM7.16732 13.4167L6.80894 13.8769C6.80894 13.8769 6.80919 13.8771 7.16732 13.4167ZM8.91732 5.83333C8.91732 6.79983 8.13382 7.58333 7.16732 7.58333C6.20082 7.58333 5.41732 6.79983 5.41732 5.83333C5.41732 4.86684 6.20082 4.08333 7.16732 4.08333C8.13382 4.08333 8.91732 4.86684 8.91732 5.83333Z" fill="#181F38" fill-opacity="0.7"/>
</svg>
