<svg width="15" height="14" viewBox="0 0 15 14" fill="none" xmlns="http://www.w3.org/2000/svg">
<g clip-path="url(#clip0_3468_7790)">
<path fill-rule="evenodd" clip-rule="evenodd" d="M0.75 7.00016C0.75 3.45634 3.62284 0.583496 7.16667 0.583496C10.7105 0.583496 13.5833 3.45634 13.5833 7.00016C13.5833 10.544 10.7105 13.4168 7.16667 13.4168C3.62284 13.4168 0.75 10.544 0.75 7.00016ZM10.375 7.87516C10.6972 7.87516 10.9583 7.614 10.9583 7.29183V6.7085C10.9583 6.38633 10.6972 6.12516 10.375 6.12516H8.04167V2.62516C8.04167 2.303 7.7805 2.04183 7.45833 2.04183H6.875C6.55283 2.04183 6.29167 2.303 6.29167 2.62516V7.29183C6.29167 7.614 6.55283 7.87516 6.875 7.87516H10.375Z" fill="#181F38" fill-opacity="0.7"/>
</g>
<defs>
<clipPath id="clip0_3468_7790">
<rect width="14" height="14" fill="white" transform="translate(0.166992)"/>
</clipPath>
</defs>
</svg>
