<svg width="94" height="94" viewBox="0 0 94 94" fill="none" xmlns="http://www.w3.org/2000/svg">
<circle cx="47" cy="47" r="47" fill="#0FD46C"/>
<g clip-path="url(#clip0_7393_20248)">
<path d="M73 47C73 47.598 72.5147 48.0833 71.9167 48.0833H48.0833V71.9167C48.0833 72.5147 47.598 73 47 73C46.402 73 45.9167 72.5147 45.9167 71.9167V48.0833H22.0833C21.4853 48.0833 21 47.598 21 47C21 46.402 21.4853 45.9167 22.0833 45.9167H45.9167V22.0833C45.9167 21.4853 46.402 21 47 21C47.598 21 48.0833 21.4853 48.0833 22.0833V45.9167H71.9167C72.5147 45.9167 73 46.402 73 47ZM71.9167 55.6667H54.5833C53.9853 55.6667 53.5 56.152 53.5 56.75C53.5 57.348 53.9853 57.8333 54.5833 57.8333H71.9167C72.5147 57.8333 73 57.348 73 56.75C73 56.152 72.5147 55.6667 71.9167 55.6667ZM71.9167 64.3333H54.5833C53.9853 64.3333 53.5 64.8187 53.5 65.4167C53.5 66.0147 53.9853 66.5 54.5833 66.5H71.9167C72.5147 66.5 73 66.0147 73 65.4167C73 64.8187 72.5147 64.3333 71.9167 64.3333ZM22.0833 31.8333H39.4167C40.0147 31.8333 40.5 31.348 40.5 30.75C40.5 30.152 40.0147 29.6667 39.4167 29.6667H22.0833C21.4853 29.6667 21 30.152 21 30.75C21 31.348 21.4853 31.8333 22.0833 31.8333ZM54.5833 31.8333H62.1667V39.4167C62.1667 40.0147 62.652 40.5 63.25 40.5C63.848 40.5 64.3333 40.0147 64.3333 39.4167V31.8333H71.9167C72.5147 31.8333 73 31.348 73 30.75C73 30.152 72.5147 29.6667 71.9167 29.6667H64.3333V22.0833C64.3333 21.4853 63.848 21 63.25 21C62.652 21 62.1667 21.4853 62.1667 22.0833V29.6667H54.5833C53.9853 29.6667 53.5 30.152 53.5 30.75C53.5 31.348 53.9853 31.8333 54.5833 31.8333ZM39.1003 54.8997C38.6778 54.4772 37.991 54.4772 37.5685 54.8997L30.7522 61.716L23.9358 54.8997C23.5133 54.4772 22.8265 54.4772 22.404 54.8997C21.9815 55.3222 21.9815 56.009 22.404 56.4315L29.2203 63.2478L22.404 70.0642C21.9815 70.4867 21.9815 71.1735 22.404 71.596C22.6163 71.8083 22.8937 71.9123 23.171 71.9123C23.4483 71.9123 23.7257 71.8062 23.938 71.596L30.7543 64.7797L37.5707 71.596C37.783 71.8083 38.0603 71.9123 38.3377 71.9123C38.615 71.9123 38.8923 71.8062 39.1047 71.596C39.5272 71.1735 39.5272 70.4867 39.1047 70.0642L32.2883 63.2478L39.1047 56.4315C39.5272 56.009 39.5272 55.3222 39.1047 54.8997H39.1003Z" fill="white"/>
</g>
<defs>
<clipPath id="clip0_7393_20248">
<rect width="52" height="52" fill="white" transform="translate(21 21)"/>
</clipPath>
</defs>
</svg>
