<svg width="94" height="94" viewBox="0 0 94 94" fill="none" xmlns="http://www.w3.org/2000/svg">
<circle cx="47" cy="47" r="47" fill="#0FD46C"/>
<g clip-path="url(#clip0_7129_20451)">
<path d="M71.0003 67.9999C71.0003 68.5519 70.5523 68.9999 70.0003 68.9999H24.0003C23.4483 68.9999 23.0003 68.5519 23.0003 67.9999C23.0003 67.4479 23.4483 66.9999 24.0003 66.9999H70.0003C70.5523 66.9999 71.0003 67.4479 71.0003 67.9999ZM23.4823 36.5579C22.7583 35.1739 22.8523 33.5899 23.7343 32.3219C24.5543 31.1399 27.6243 29.5439 27.6283 29.5419L42.5303 22.0839C45.3223 20.6279 48.6743 20.6259 51.4863 22.0919L66.7883 29.8499L66.7983 29.8539C66.7983 29.8539 69.5083 31.2259 70.2683 32.3179C71.1483 33.5859 71.2423 35.1699 70.5183 36.5539C69.7283 38.0599 68.1623 38.9959 66.4283 38.9959H65.0003V58.9959H68.0003C68.5523 58.9959 69.0003 59.4439 69.0003 59.9959C69.0003 60.5479 68.5523 60.9959 68.0003 60.9959H26.0003C25.4483 60.9959 25.0003 60.5479 25.0003 59.9959C25.0003 59.4439 25.4483 58.9959 26.0003 58.9959H29.0003V38.9959H27.5723C25.8383 38.9959 24.2723 38.0599 23.4823 36.5539V36.5579ZM31.0003 58.9999H39.0043L39.0743 38.9999H31.0003V58.9999ZM41.0743 38.9999L41.0043 58.9999H53.0003V38.9999H41.0743ZM63.0003 38.9999H55.0003V58.9999H63.0003V38.9999ZM25.2563 35.6299C25.6983 36.4739 26.5843 36.9999 27.5723 36.9999H66.4283C67.4163 36.9999 68.3043 36.4759 68.7443 35.6299C69.1223 34.9059 69.0783 34.1159 68.6243 33.4619C68.1543 32.7859 67.2383 32.3239 66.3523 31.8759L50.5703 23.8719C49.4503 23.2879 48.2223 22.9959 46.9983 22.9959C45.7743 22.9959 44.5523 23.2859 43.4383 23.8659L28.5243 31.3299C27.3943 31.9179 25.9143 32.6859 25.3783 33.4619C24.9223 34.1179 24.8783 34.9079 25.2563 35.6299Z" fill="white"/>
</g>
<defs>
<clipPath id="clip0_7129_20451">
<rect width="48" height="48" fill="white" transform="translate(23 21)"/>
</clipPath>
</defs>
</svg>
