<svg width="56" height="56" viewBox="0 0 56 56" fill="none" xmlns="http://www.w3.org/2000/svg">
<g clip-path="url(#clip0_7393_20225)">
<path d="M35 5.45533V1.16667C35 0.522667 34.4773 0 33.8333 0C33.1893 0 32.6667 0.522667 32.6667 1.16667V4.75067C32.2863 4.697 31.8967 4.66667 31.5 4.66667H25.6667V1.16667C25.6667 0.522667 25.144 0 24.5 0C23.856 0 23.3333 0.522667 23.3333 1.16667V4.66667H16.3333V1.16667C16.3333 0.522667 15.8107 0 15.1667 0C14.5227 0 14 0.522667 14 1.16667V4.66667H8.16667C7.77 4.66667 7.38033 4.69467 7 4.75067V1.16667C7 0.522667 6.47733 0 5.83333 0C5.18933 0 4.66667 0.522667 4.66667 1.16667V5.45533C1.911 6.769 0 9.583 0 12.8333V45.5C0 51.289 4.711 56 10.5 56H29.1667C34.9557 56 39.6667 51.289 39.6667 45.5V12.8333C39.6667 9.583 37.7557 6.769 35 5.45533ZM37.3333 45.5C37.3333 50.0033 33.67 53.6667 29.1667 53.6667H10.5C5.99667 53.6667 2.33333 50.0033 2.33333 45.5V12.8333C2.33333 9.61567 4.95133 7 8.16667 7H31.5C34.7153 7 37.3333 9.61567 37.3333 12.8333V45.5ZM30.3333 15.1667C30.3333 15.8107 29.8107 16.3333 29.1667 16.3333H10.5C9.856 16.3333 9.33333 15.8107 9.33333 15.1667C9.33333 14.5227 9.856 14 10.5 14H29.1667C29.8107 14 30.3333 14.5227 30.3333 15.1667ZM30.3333 24.5C30.3333 25.144 29.8107 25.6667 29.1667 25.6667H10.5C9.856 25.6667 9.33333 25.144 9.33333 24.5C9.33333 23.856 9.856 23.3333 10.5 23.3333H29.1667C29.8107 23.3333 30.3333 23.856 30.3333 24.5ZM23.3333 33.8333C23.3333 34.4773 22.8107 35 22.1667 35H10.5C9.856 35 9.33333 34.4773 9.33333 33.8333C9.33333 33.1893 9.856 32.6667 10.5 32.6667H22.1667C22.8107 32.6667 23.3333 33.1893 23.3333 33.8333ZM50.1667 0C46.9513 0 44.3333 2.61567 44.3333 5.83333V47.2687C44.3333 49.42 45.206 51.5223 46.725 53.0437L49.3407 55.6593C49.5693 55.888 49.868 56 50.1667 56C50.4653 56 50.764 55.8857 50.9927 55.6593L53.6083 53.0437C55.1297 51.5247 56 49.42 56 47.2687V5.83333C56 2.61567 53.382 0 50.1667 0ZM53.6667 47.2687C53.6667 48.804 53.0437 50.309 51.9587 51.394L50.1667 53.186L48.3747 51.394C47.2897 50.309 46.6667 48.8063 46.6667 47.2687V5.83333C46.6667 3.90367 48.237 2.33333 50.1667 2.33333C52.0963 2.33333 53.6667 3.90367 53.6667 5.83333V47.2687Z" fill="#0FD46C"/>
</g>
<defs>
<clipPath id="clip0_7393_20225">
<rect width="56" height="56" fill="white"/>
</clipPath>
</defs>
</svg>
