<svg width="94" height="94" viewBox="0 0 94 94" fill="none" xmlns="http://www.w3.org/2000/svg">
<circle cx="47" cy="47" r="47" fill="#0FD46C"/>
<g clip-path="url(#clip0_7393_20241)">
<path d="M34 45C27.832 45 23 47.636 23 51V67C23 70.364 27.832 73 34 73C40.168 73 45 70.364 45 67V51C45 47.636 40.168 45 34 45ZM43 59C43 60.892 39.304 63 34 63C28.696 63 25 60.892 25 59V54.492C26.974 56.02 30.24 57 34 57C37.76 57 41.026 56.02 43 54.492V59ZM34 47C39.304 47 43 49.108 43 51C43 52.892 39.304 55 34 55C28.696 55 25 52.892 25 51C25 49.108 28.696 47 34 47ZM34 71C28.696 71 25 68.892 25 67V62.492C26.974 64.02 30.24 65 34 65C37.76 65 41.026 64.02 43 62.492V67C43 68.892 39.304 71 34 71ZM63 36C63 34.346 61.654 33 60 33H42C40.346 33 39 34.346 39 36V40C39 41.654 40.346 43 42 43H60C61.654 43 63 41.654 63 40V36ZM61 40C61 40.552 60.55 41 60 41H42C41.45 41 41 40.552 41 40V36C41 35.448 41.45 35 42 35H60C60.55 35 61 35.448 61 36V40ZM63 50C63 50.552 62.552 51 62 51C61.448 51 61 50.552 61 50V48C61 47.448 61.448 47 62 47C62.552 47 63 47.448 63 48V50ZM55 50V48C55 47.448 55.448 47 56 47C56.552 47 57 47.448 57 48V50C57 50.552 56.552 51 56 51C55.448 51 55 50.552 55 50ZM49 50V48C49 47.448 49.448 47 50 47C50.552 47 51 47.448 51 48V50C51 50.552 50.552 51 50 51C49.448 51 49 50.552 49 50ZM49 56C49 55.448 49.448 55 50 55C50.552 55 51 55.448 51 56V58C51 58.552 50.552 59 50 59C49.448 59 49 58.552 49 58V56ZM55 56C55 55.448 55.448 55 56 55C56.552 55 57 55.448 57 56V58C57 58.552 56.552 59 56 59C55.448 59 55 58.552 55 58V56ZM63 58C63 58.552 62.552 59 62 59C61.448 59 61 58.552 61 58V56C61 55.448 61.448 55 62 55C62.552 55 63 55.448 63 56V58ZM49 64C49 63.448 49.448 63 50 63H62C62.552 63 63 63.448 63 64C63 64.552 62.552 65 62 65H50C49.448 65 49 64.552 49 64ZM71 34V64C71 68.962 66.962 73 62 73H48C47.448 73 47 72.552 47 72C47 71.448 47.448 71 48 71H62C65.86 71 69 67.86 69 64V34C69 30.14 65.86 27 62 27H40C36.14 27 33 30.14 33 34V40C33 40.552 32.552 41 32 41C31.448 41 31 40.552 31 40V34C31 29.038 35.038 25 40 25H62C66.962 25 71 29.038 71 34Z" fill="white"/>
</g>
<defs>
<clipPath id="clip0_7393_20241">
<rect width="48" height="48" fill="white" transform="translate(23 25)"/>
</clipPath>
</defs>
</svg>
