<svg width="94" height="94" viewBox="0 0 94 94" fill="none" xmlns="http://www.w3.org/2000/svg">
<circle cx="47" cy="47" r="47" fill="#0FD46C"/>
<g clip-path="url(#clip0_7129_20465)">
<path d="M69.362 40.31C68.37 39.406 67.08 38.962 65.744 39.006C64.404 39.07 63.168 39.65 62.266 40.642L54.802 48.846C54.174 46.63 52.132 45.002 49.716 45.002H30C26.14 45.002 23 48.142 23 52.002V62.002C23 65.862 26.14 69.002 30 69.002H41.93C47.344 69.002 52.514 66.684 56.116 62.64L69.728 47.362C71.55 45.318 71.386 42.154 69.362 40.31ZM68.236 46.032L54.624 61.31C51.402 64.928 46.774 67.002 41.93 67.002H30C27.242 67.002 25 64.758 25 62.002V52.002C25 49.246 27.242 47.002 30 47.002H49.714C51.524 47.002 53 48.476 53 50.286C53 51.91 51.788 53.308 50.204 53.534L37.882 55.008C37.334 55.074 36.942 55.572 37.008 56.12C37.072 56.668 37.572 57.048 38.12 56.994L50.466 55.516C52.508 55.224 54.154 53.76 54.756 51.868L63.748 41.988C64.29 41.392 65.034 41.042 65.84 41.004C66.636 40.968 67.418 41.244 68.016 41.79C69.234 42.9 69.332 44.802 68.236 46.034V46.032ZM33 27.488C33 25.014 35.012 23 37.486 23H39V22C39 21.448 39.448 21 40 21C40.552 21 41 21.448 41 22V23H42.102C44.06 23 45.886 24.054 46.866 25.75C47.144 26.228 46.98 26.84 46.5 27.116C46.026 27.388 45.412 27.23 45.134 26.75C44.51 25.67 43.346 25 42.1 25H37.484C36.112 25 34.998 26.116 34.998 27.488C34.998 28.56 35.682 29.508 36.7 29.848L43.93 32.258C45.766 32.87 46.998 34.58 46.998 36.514C46.998 38.988 44.986 41.002 42.512 41.002H40.998V42.002C40.998 42.554 40.55 43.002 39.998 43.002C39.446 43.002 38.998 42.554 38.998 42.002V41.002H37.896C35.938 41.002 34.112 39.95 33.132 38.252C32.854 37.774 33.018 37.162 33.498 36.886C33.968 36.608 34.584 36.77 34.864 37.252C35.488 38.332 36.652 39.002 37.898 39.002H42.514C43.886 39.002 45 37.886 45 36.514C45 35.442 44.316 34.494 43.298 34.154L36.068 31.744C34.232 31.132 33 29.422 33 27.488ZM49 30C49 29.448 49.448 29 50 29H62.448L57.284 23.698C56.9 23.302 56.908 22.67 57.304 22.284C57.698 21.904 58.332 21.906 58.718 22.304L64.12 27.85C64.608 28.338 65 29.052 65 30C65 30.948 64.574 31.618 64.11 32.084L58.722 37.694C58.526 37.9 58.264 38.002 58.002 38.002C57.752 38.002 57.504 37.91 57.308 37.722C56.91 37.34 56.898 36.706 57.28 36.308L62.378 31H50C49.448 31 49 30.552 49 30Z" fill="white"/>
</g>
<defs>
<clipPath id="clip0_7129_20465">
<rect width="48" height="48" fill="white" transform="translate(23 21)"/>
</clipPath>
</defs>
</svg>
