<svg width="56" height="56" viewBox="0 0 56 56" fill="none" xmlns="http://www.w3.org/2000/svg">
<g clip-path="url(#clip0_7393_20229)">
<path d="M28 0C12.5603 0 0 12.5603 0 28C0 43.4397 12.5603 56 28 56C43.4397 56 56 43.4397 56 28C56 12.5603 43.4397 0 28 0ZM28 53.6667C13.8483 53.6667 2.33333 42.1517 2.33333 28C2.33333 13.8483 13.8483 2.33333 28 2.33333C42.1517 2.33333 53.6667 13.8483 53.6667 28C53.6667 42.1517 42.1517 53.6667 28 53.6667ZM37.3333 33.5393C37.3333 36.918 34.5847 39.6667 31.206 39.6667H29.1667V43.1667C29.1667 43.8107 28.644 44.3333 28 44.3333C27.356 44.3333 26.8333 43.8107 26.8333 43.1667V39.6667H24.6727C22.3883 39.6667 20.2557 38.4393 19.1147 36.4583C18.7903 35.9007 18.9817 35.1867 19.5417 34.8647C20.097 34.538 20.811 34.7317 21.1353 35.2917C21.8633 36.5517 23.2213 37.3333 24.675 37.3333H31.2083C33.299 37.3333 35.0023 35.6323 35.0023 33.5393C35.0023 31.6657 33.6607 30.0907 31.8103 29.7943L23.8257 28.511C20.839 28.0303 18.669 25.487 18.669 22.4607C18.669 19.082 21.4177 16.3333 24.7963 16.3333H26.8357V12.8333C26.8357 12.1893 27.3583 11.6667 28.0023 11.6667C28.6463 11.6667 29.169 12.1893 29.169 12.8333V16.3333H31.3297C33.614 16.3333 35.7443 17.563 36.8877 19.5417C37.212 20.0993 37.0207 20.8133 36.4607 21.1353C35.91 21.4527 35.189 21.2683 34.867 20.7083C34.139 19.4483 32.781 18.6667 31.3273 18.6667H24.794C22.7033 18.6667 21 20.3677 21 22.4607C21 24.3343 22.3417 25.9093 24.192 26.2057L32.1767 27.489C35.1633 27.9697 37.3333 30.5153 37.3333 33.5393Z" fill="#0FD46C"/>
</g>
<defs>
<clipPath id="clip0_7393_20229">
<rect width="56" height="56" fill="white"/>
</clipPath>
</defs>
</svg>
