<svg width="94" height="94" viewBox="0 0 94 94" fill="none" xmlns="http://www.w3.org/2000/svg">
<circle cx="47" cy="47" r="47" fill="#0FD46C"/>
<path d="M51 42C51 43.752 52.256 45.224 53.984 45.502L60.332 46.522C63.038 46.956 65 49.26 65 52C65 54.756 62.758 57 60 57H58V60C58 60.552 57.552 61 57 61C56.448 61 56 60.552 56 60V57H54C51.242 57 49 54.756 49 52C49 51.448 49.448 51 50 51C50.552 51 51 51.448 51 52C51 53.654 52.346 55 54 55H60C61.654 55 63 53.654 63 52C63 50.248 61.744 48.776 60.016 48.498L53.668 47.478C50.962 47.044 49 44.74 49 42C49 39.244 51.242 37 54 37H56V34C56 33.448 56.448 33 57 33C57.552 33 58 33.448 58 34V37H60C62.758 37 65 39.244 65 42C65 42.552 64.552 43 64 43C63.448 43 63 42.552 63 42C63 40.346 61.654 39 60 39H54C52.346 39 51 40.346 51 42ZM71 36V58C71 62.962 66.962 67 62 67H32C27.038 67 23 62.962 23 58V36C23 31.038 27.038 27 32 27H62C66.962 27 71 31.038 71 36ZM69 36C69 32.14 65.86 29 62 29H32C28.14 29 25 32.14 25 36V58C25 61.86 28.14 65 32 65H62C65.86 65 69 61.86 69 58V36ZM42 39H30C29.448 39 29 39.448 29 40C29 40.552 29.448 41 30 41H42C42.552 41 43 40.552 43 40C43 39.448 42.552 39 42 39ZM42 46H30C29.448 46 29 46.448 29 47C29 47.552 29.448 48 30 48H42C42.552 48 43 47.552 43 47C43 46.448 42.552 46 42 46ZM42 53H30C29.448 53 29 53.448 29 54C29 54.552 29.448 55 30 55H42C42.552 55 43 54.552 43 54C43 53.448 42.552 53 42 53Z" fill="white"/>
</svg>
