<svg width="56" height="56" viewBox="0 0 56 56" fill="none" xmlns="http://www.w3.org/2000/svg">
<g clip-path="url(#clip0_7393_20227)">
<path d="M56 45.5117C56 48.7223 53.389 51.3333 50.1783 51.3333H47.8333V54.8333C47.8333 55.4773 47.3107 56 46.6667 56C46.0227 56 45.5 55.4773 45.5 54.8333V51.3333H43.155C39.9443 51.3333 37.3333 48.7223 37.3333 45.5117C37.3333 44.8677 37.856 44.345 38.5 44.345C39.144 44.345 39.6667 44.8677 39.6667 45.5117C39.6667 47.4343 41.2323 49 43.155 49H50.1783C52.101 49 53.6667 47.4343 53.6667 45.5117C53.6667 43.9623 52.626 42.5833 51.1373 42.1563L41.5567 39.417C39.0717 38.7077 37.3333 36.407 37.3333 33.8217C37.3333 30.611 39.9443 28 43.155 28H45.5V24.5C45.5 23.856 46.0227 23.3333 46.6667 23.3333C47.3107 23.3333 47.8333 23.856 47.8333 24.5V28H50.1783C53.389 28 56 30.611 56 33.8217C56 34.4657 55.4773 34.9883 54.8333 34.9883C54.1893 34.9883 53.6667 34.4657 53.6667 33.8217C53.6667 31.899 52.101 30.3333 50.1783 30.3333H43.155C41.2323 30.3333 39.6667 31.899 39.6667 33.8217C39.6667 35.371 40.7073 36.75 42.196 37.177L51.7767 39.9163C54.2617 40.6257 56 42.9263 56 45.5117ZM10.5 7H12.8333C13.4773 7 14 6.47733 14 5.83333C14 3.90367 15.5703 2.33333 17.5 2.33333H24.5C26.4297 2.33333 28 3.90367 28 5.83333C28 6.47733 28.5227 7 29.1667 7H31.5C36.0033 7 39.6667 10.6633 39.6667 15.1667V22.1667C39.6667 22.8107 40.1893 23.3333 40.8333 23.3333C41.4773 23.3333 42 22.8107 42 22.1667V15.1667C42 9.37767 37.289 4.66667 31.5 4.66667H30.2167C29.6753 2.00667 27.3187 0 24.5 0H17.5C14.6813 0 12.327 2.00667 11.7833 4.66667H10.5C4.711 4.66667 0 9.37767 0 15.1667V45.5C0 51.289 4.711 56 10.5 56H31.5C32.8603 56 34.1833 55.7433 35.4387 55.237C36.036 54.9943 36.323 54.313 36.0827 53.718C35.8423 53.1207 35.161 52.836 34.5637 53.074C33.5907 53.4683 32.5593 53.669 31.5023 53.669H10.5C5.99667 53.669 2.33333 50.0057 2.33333 45.5023V15.1667C2.33333 10.6633 5.99667 7 10.5 7ZM21.378 12.4203C21.833 12.8753 21.833 13.615 21.378 14.07L15.4863 19.9617C14.8167 20.6313 13.93 20.9977 12.985 20.9977C12.0423 20.9977 11.1533 20.629 10.4883 19.9617L7.34533 16.821C6.89033 16.366 6.89033 15.6263 7.34533 15.1713C7.80033 14.7163 8.54 14.7163 8.995 15.1713L12.138 18.312C12.3667 18.5407 12.6677 18.6643 12.9873 18.6643C13.307 18.6643 13.6127 18.5383 13.839 18.312L19.7307 12.4203C20.1857 11.9653 20.9253 11.9653 21.3803 12.4203H21.378ZM21.378 26.4203C21.833 26.8753 21.833 27.615 21.378 28.07L15.4863 33.9617C14.8167 34.6313 13.93 34.9977 12.985 34.9977C12.0423 34.9977 11.1533 34.629 10.4883 33.9617L7.34533 30.821C6.89033 30.366 6.89033 29.6263 7.34533 29.1713C7.80033 28.7163 8.54 28.7163 8.995 29.1713L12.138 32.312C12.3667 32.5407 12.6677 32.6643 12.9873 32.6643C13.307 32.6643 13.6127 32.5383 13.839 32.312L19.7307 26.4203C20.1857 25.9653 20.9253 25.9653 21.3803 26.4203H21.378ZM21.378 40.4203C21.833 40.8753 21.833 41.615 21.378 42.07L15.4863 47.9617C14.8167 48.6313 13.93 48.9977 12.985 48.9977C12.0423 48.9977 11.1533 48.629 10.4883 47.9617L7.34533 44.821C6.89033 44.366 6.89033 43.6263 7.34533 43.1713C7.80033 42.7163 8.54 42.7163 8.995 43.1713L12.138 46.312C12.3667 46.5407 12.6677 46.6643 12.9873 46.6643C13.307 46.6643 13.6127 46.5383 13.839 46.312L19.7307 40.4203C20.1857 39.9653 20.9253 39.9653 21.3803 40.4203H21.378Z" fill="#0FD46C"/>
</g>
<defs>
<clipPath id="clip0_7393_20227">
<rect width="56" height="56" fill="white"/>
</clipPath>
</defs>
</svg>
