<svg width="94" height="94" viewBox="0 0 94 94" fill="none" xmlns="http://www.w3.org/2000/svg">
<circle cx="47" cy="47" r="47" fill="#0FD46C"/>
<g clip-path="url(#clip0_7129_20458)">
<path d="M33 37C31.346 37 30 38.346 30 40V42C30 43.654 31.346 45 33 45H43C44.654 45 46 43.654 46 42V40C46 38.346 44.654 37 43 37H33ZM44 40V42C44 42.55 43.55 43 43 43H33C32.45 43 32 42.55 32 42V40C32 39.45 32.45 39 33 39H43C43.55 39 44 39.45 44 40ZM44 50C44 50.552 43.552 51 43 51H41C40.448 51 40 50.552 40 50C40 49.448 40.448 49 41 49H43C43.552 49 44 49.448 44 50ZM44 56C44 56.552 43.552 57 43 57H41C40.448 57 40 56.552 40 56C40 55.448 40.448 55 41 55H43C43.552 55 44 55.448 44 56ZM36 50C36 50.552 35.552 51 35 51H33C32.448 51 32 50.552 32 50C32 49.448 32.448 49 33 49H35C35.552 49 36 49.448 36 50ZM36 56C36 56.552 35.552 57 35 57H33C32.448 57 32 56.552 32 56C32 55.448 32.448 55 33 55H35C35.552 55 36 55.448 36 56ZM44 62C44 62.552 43.552 63 43 63H41C40.448 63 40 62.552 40 62C40 61.448 40.448 61 41 61H43C43.552 61 44 61.448 44 62ZM36 62C36 62.552 35.552 63 35 63H33C32.448 63 32 62.552 32 62C32 61.448 32.448 61 33 61H35C35.552 61 36 61.448 36 62ZM58.974 21H39C32.936 21 28 25.936 28 32C28 32.036 28.016 32.066 28.02 32.102C25.63 33.486 24 36.044 24 39V61C24 65.412 27.588 69 32 69H44C48.412 69 52 65.412 52 61V39C52 36.094 50.428 33.572 48.106 32.17C49.006 26.858 53.576 23 58.974 23C65.054 23 70 27.946 70 34.026V52.02L65.928 49.018C65.586 48.762 65.118 48.756 64.764 49.002L59.666 52.544L57.57 51.086C57.118 50.774 56.494 50.88 56.18 51.336C55.864 51.79 55.974 52.412 56.43 52.726L59.096 54.582C59.436 54.82 59.892 54.82 60.236 54.582L65.316 51.05L70.406 54.802C70.582 54.93 70.79 54.998 71 54.998C71.154 54.998 71.308 54.962 71.452 54.89C71.788 54.72 72 54.374 72 53.998V34.026C72 26.844 66.156 21 58.974 21ZM50 39V61C50 64.308 47.308 67 44 67H32C28.692 67 26 64.308 26 61V39C26 35.692 28.692 33 32 33H44C47.308 33 50 35.692 50 39ZM46.258 31.364C45.538 31.15 44.79 31 44 31H32C31.332 31 30.694 31.106 30.074 31.26C30.458 26.648 34.29 23 39 23H52.07C49.142 24.83 47 27.794 46.258 31.364Z" fill="white"/>
</g>
<defs>
<clipPath id="clip0_7129_20458">
<rect width="48" height="48" fill="white" transform="translate(24 21)"/>
</clipPath>
</defs>
</svg>
