<svg width="94" height="94" viewBox="0 0 94 94" fill="none" xmlns="http://www.w3.org/2000/svg">
<circle cx="47" cy="47" r="47" fill="#0D333E"/>
<g clip-path="url(#clip0_7381_20206)">
<path d="M60 23H38C34.088 23 30.752 25.508 29.514 29H26C25.448 29 25 29.448 25 30C25 30.552 25.448 31 26 31H29.056C29.02 31.328 29 31.662 29 32V37H26C25.448 37 25 37.448 25 38C25 38.552 25.448 39 26 39H29V46H26C25.448 46 25 46.448 25 47C25 47.552 25.448 48 26 48H29V55H26C25.448 55 25 55.448 25 56C25 56.552 25.448 57 26 57H29V62C29 62.338 29.02 62.672 29.056 63H26C25.448 63 25 63.448 25 64C25 64.552 25.448 65 26 65H29.514C30.752 68.492 34.088 71 38 71H60C64.962 71 69 66.962 69 62V32C69 27.038 64.962 23 60 23ZM67 62C67 65.86 63.86 69 60 69H38C34.14 69 31 65.86 31 62V32C31 28.14 34.14 25 38 25H60C63.86 25 67 28.14 67 32V62ZM49 47C52.308 47 55 44.308 55 41C55 37.692 52.308 35 49 35C45.692 35 43 37.692 43 41C43 44.308 45.692 47 49 47ZM49 37C51.206 37 53 38.794 53 41C53 43.206 51.206 45 49 45C46.794 45 45 43.206 45 41C45 38.794 46.794 37 49 37ZM59 59V60C59 60.552 58.552 61 58 61C57.448 61 57 60.552 57 60V59C57 54.588 53.412 51 49 51C44.588 51 41 54.588 41 59V60C41 60.552 40.552 61 40 61C39.448 61 39 60.552 39 60V59C39 53.486 43.486 49 49 49C54.514 49 59 53.486 59 59Z" fill="white"/>
</g>
<defs>
<clipPath id="clip0_7381_20206">
<rect width="48" height="48" fill="white" transform="translate(23 23)"/>
</clipPath>
</defs>
</svg>
