<svg width="56" height="56" viewBox="0 0 56 56" fill="none" xmlns="http://www.w3.org/2000/svg">
<g clip-path="url(#clip0_7388_20215)">
<path d="M48.7898 17.9973C47.5018 8.71767 39.7995 1.21134 30.4732 0.14267C24.6282 -0.52933 18.9488 1.17167 14.4875 4.926C10.0845 8.63134 7.36849 14.04 7.03716 19.766C6.99982 20.41 7.48982 20.963 8.13382 20.998C8.77782 21.0493 9.32849 20.5453 9.36582 19.9013C9.65982 14.81 12.0748 10.0033 15.9902 6.70867C19.9545 3.37434 25.0038 1.86 30.2072 2.462C38.4905 3.40934 45.3342 10.078 46.4798 18.317C46.9278 21.5533 46.5522 24.8317 45.3902 27.7973C44.2515 30.7093 41.2462 32.667 37.9118 32.667H32.0388C32.4378 31.981 32.6665 31.183 32.6665 30.3337C32.6665 27.76 30.5735 25.667 27.9998 25.667C25.4262 25.667 23.3332 27.76 23.3332 30.3337C23.3332 32.9073 25.4262 35.0003 27.9998 35.0003H37.9118C42.1958 35.0003 46.0762 32.4477 47.5648 28.649C48.8715 25.3077 49.2938 21.6257 48.7898 17.9973ZM25.6665 30.3337C25.6665 29.0457 26.7142 28.0003 27.9998 28.0003C29.2855 28.0003 30.3332 29.0457 30.3332 30.3337C30.3332 31.6217 29.2855 32.667 27.9998 32.667C26.7142 32.667 25.6665 31.6217 25.6665 30.3337ZM38.3948 26.3017C39.2372 24.652 39.6665 22.8693 39.6665 21.0003C39.6665 14.5673 34.4328 9.33367 27.9998 9.33367C21.5668 9.33367 16.3332 14.5673 16.3332 21.0003C16.3332 23.7047 17.2805 26.3413 19.0002 28.425C19.4108 28.922 19.3408 29.657 18.8438 30.0677C18.6268 30.2473 18.3632 30.3337 18.1018 30.3337C17.7658 30.3337 17.4322 30.189 17.2012 29.909C15.1385 27.41 13.9998 24.246 13.9998 21.0003C13.9998 13.2793 20.2788 7.00034 27.9998 7.00034C35.7208 7.00034 41.9998 13.2793 41.9998 21.0003C41.9998 23.2427 41.4865 25.3847 40.4738 27.3657C40.1775 27.9397 39.4682 28.1637 38.9035 27.8743C38.3295 27.5803 38.1008 26.8733 38.3948 26.3017ZM46.6408 54.5957C46.7738 55.228 46.3678 55.844 45.7355 55.9747C45.1172 56.117 44.4872 55.704 44.3565 55.0693C42.7792 47.4953 35.9005 41.998 27.9975 41.998C20.0945 41.998 13.2158 47.493 11.6408 55.0693C11.5265 55.62 11.0412 55.998 10.4998 55.998C10.4205 55.998 10.3412 55.991 10.2618 55.9723C9.62949 55.8417 9.22582 55.2257 9.35649 54.5933C11.1555 45.9413 18.9955 39.6647 27.9998 39.6647C37.0042 39.6647 44.8418 45.9413 46.6408 54.5933V54.5957Z" fill="white"/>
</g>
<defs>
<clipPath id="clip0_7388_20215">
<rect width="56" height="56" fill="white"/>
</clipPath>
</defs>
</svg>
