<svg width="94" height="94" viewBox="0 0 94 94" fill="none" xmlns="http://www.w3.org/2000/svg">
<circle cx="47" cy="47" r="47" fill="#0D333E"/>
<g clip-path="url(#clip0_7381_20199)">
<path d="M39 48C45.618 48 51 42.618 51 36C51 29.382 45.618 24 39 24C32.382 24 27 29.382 27 36C27 42.618 32.382 48 39 48ZM39 28C43.412 28 47 31.588 47 36C47 40.412 43.412 44 39 44C34.588 44 31 40.412 31 36C31 31.588 34.588 28 39 28ZM42.98 54.426C42.824 55.52 41.814 56.272 40.716 56.124C40.15 56.042 39.574 56 39 56C32.382 56 27 61.382 27 68V70C27 71.106 26.104 72 25 72C23.896 72 23 71.106 23 70V68C23 59.178 30.178 52 39 52C39.762 52 40.532 52.054 41.284 52.162C42.378 52.32 43.136 53.334 42.98 54.426ZM59 48C52.382 48 47 53.382 47 60C47 66.618 52.382 72 59 72C65.618 72 71 66.618 71 60C71 53.382 65.618 48 59 48ZM61 67.716V66C61 64.894 60.104 64 59 64C57.896 64 57 64.894 57 66V67.716C54.202 66.988 52.012 64.798 51.284 62H53C54.104 62 55 61.106 55 60C55 58.894 54.104 58 53 58H51.284C52.012 55.202 54.202 53.012 57 52.284V54C57 55.106 57.896 56 59 56C60.104 56 61 55.106 61 54V52.284C63.798 53.012 65.988 55.202 66.716 58H65C63.896 58 63 58.894 63 60C63 61.106 63.896 62 65 62H66.716C65.988 64.798 63.798 66.988 61 67.716Z" fill="white"/>
</g>
<defs>
<clipPath id="clip0_7381_20199">
<rect width="48" height="48" fill="white" transform="translate(23 24)"/>
</clipPath>
</defs>
</svg>
