<svg width="56" height="56" viewBox="0 0 56 56" fill="none" xmlns="http://www.w3.org/2000/svg">
<g clip-path="url(#clip0_7129_20314)">
<path d="M28 18.6667C30.5737 18.6667 32.6667 16.5737 32.6667 14C32.6667 11.4263 30.5737 9.33333 28 9.33333C25.4263 9.33333 23.3333 11.4263 23.3333 14C23.3333 16.5737 25.4263 18.6667 28 18.6667ZM28 11.6667C29.288 11.6667 30.3333 12.712 30.3333 14C30.3333 15.288 29.288 16.3333 28 16.3333C26.712 16.3333 25.6667 15.288 25.6667 14C25.6667 12.712 26.712 11.6667 28 11.6667ZM17.7053 24.1127L21.2427 22.0313C22.1947 22.8247 23.3007 23.4453 24.5 23.8653V27.9977H31.5V23.8653C32.7017 23.4453 33.8053 22.8247 34.7573 22.0313L38.2947 24.1127L41.8437 18.0763L38.283 15.9857C38.43 15.2857 38.5023 14.6417 38.5023 14C38.5023 13.3583 38.4323 12.7143 38.283 12.0143L41.8437 9.92367L38.2947 3.88733L34.7573 5.96867C33.8053 5.17533 32.6993 4.55467 31.5 4.13467V0H24.5V4.13233C23.2983 4.55233 22.1947 5.173 21.2427 5.96633L17.7053 3.885L14.1563 9.92133L17.717 12.012C17.57 12.712 17.4977 13.356 17.4977 13.9977C17.4977 14.6393 17.5677 15.2833 17.717 15.9833L14.1563 18.074L17.7053 24.1127ZM20.433 17.0963L20.1857 16.2283C19.9453 15.386 19.8357 14.6767 19.8357 14C19.8357 13.3233 19.9477 12.614 20.1857 11.7717L20.433 10.9037L17.353 9.09533L18.536 7.084L21.581 8.876L22.218 8.239C23.2237 7.231 24.514 6.50533 25.9607 6.132L26.8357 5.90333V2.338H29.169V5.90333L30.044 6.132C31.4883 6.50533 32.781 7.23333 33.7867 8.239L34.4237 8.876L37.4687 7.084L38.6517 9.09533L35.5717 10.9037L35.819 11.7717C36.0593 12.614 36.169 13.3233 36.169 14C36.169 14.6767 36.057 15.386 35.819 16.2283L35.5717 17.0963L38.6517 18.9047L37.4687 20.916L34.4237 19.124L33.7867 19.761C32.781 20.769 31.4907 21.4947 30.044 21.868L29.169 22.0967V25.662H26.8357V22.0967L25.9607 21.868C24.5163 21.4947 23.2237 20.7667 22.218 19.761L21.581 19.124L18.536 20.916L17.353 18.9047L20.433 17.0963ZM56 50.1667V56H53.6667V50.1667C53.6667 48.237 52.0963 46.6667 50.1667 46.6667H42C40.0703 46.6667 38.5 48.237 38.5 50.1667V56H36.1667V50.1667C36.1667 48.237 34.5963 46.6667 32.6667 46.6667H23.3333C21.4037 46.6667 19.8333 48.237 19.8333 50.1667V56H17.5V50.1667C17.5 48.237 15.9297 46.6667 14 46.6667H5.83333C3.90367 46.6667 2.33333 48.237 2.33333 50.1667V56H0V50.1667C0 46.949 2.61567 44.3333 5.83333 44.3333H14C15.9157 44.3333 17.6027 45.2737 18.6667 46.7017C19.7307 45.2737 21.4177 44.3333 23.3333 44.3333H32.6667C34.5823 44.3333 36.2693 45.2737 37.3333 46.7017C38.3973 45.2737 40.0843 44.3333 42 44.3333H50.1667C53.3843 44.3333 56 46.949 56 50.1667ZM46.0833 42C49.301 42 51.9167 39.3843 51.9167 36.1667C51.9167 32.949 49.301 30.3333 46.0833 30.3333C42.8657 30.3333 40.25 32.949 40.25 36.1667C40.25 39.3843 42.8657 42 46.0833 42ZM46.0833 32.6667C48.013 32.6667 49.5833 34.237 49.5833 36.1667C49.5833 38.0963 48.013 39.6667 46.0833 39.6667C44.1537 39.6667 42.5833 38.0963 42.5833 36.1667C42.5833 34.237 44.1537 32.6667 46.0833 32.6667ZM22.1667 36.1667C22.1667 39.3843 24.7823 42 28 42C31.2177 42 33.8333 39.3843 33.8333 36.1667C33.8333 32.949 31.2177 30.3333 28 30.3333C24.7823 30.3333 22.1667 32.949 22.1667 36.1667ZM31.5 36.1667C31.5 38.0963 29.9297 39.6667 28 39.6667C26.0703 39.6667 24.5 38.0963 24.5 36.1667C24.5 34.237 26.0703 32.6667 28 32.6667C29.9297 32.6667 31.5 34.237 31.5 36.1667ZM4.08333 36.1667C4.08333 39.3843 6.699 42 9.91667 42C13.1343 42 15.75 39.3843 15.75 36.1667C15.75 32.949 13.1343 30.3333 9.91667 30.3333C6.699 30.3333 4.08333 32.949 4.08333 36.1667ZM13.4167 36.1667C13.4167 38.0963 11.8463 39.6667 9.91667 39.6667C7.987 39.6667 6.41667 38.0963 6.41667 36.1667C6.41667 34.237 7.987 32.6667 9.91667 32.6667C11.8463 32.6667 13.4167 34.237 13.4167 36.1667ZM2.33333 30.7743C0.884333 32.5733 0 34.846 0 37.3333V18.6667C0 14.8073 3.14067 11.6667 7 11.6667H11.8533C11.7437 12.4297 11.6667 13.2067 11.6667 14H7C4.42167 14 2.33333 16.0883 2.33333 18.6667V30.7743ZM56 18.6667V37.3333C56 34.8483 55.1157 32.5733 53.6667 30.7743V18.6667C53.6667 16.0883 51.5783 14 49 14H44.3333C44.3333 13.2067 44.2563 12.4297 44.1467 11.6667H49C52.8593 11.6667 56 14.8073 56 18.6667Z" fill="white"/>
</g>
<defs>
<clipPath id="clip0_7129_20314">
<rect width="56" height="56" fill="white"/>
</clipPath>
</defs>
</svg>
