<svg width="94" height="94" viewBox="0 0 94 94" fill="none" xmlns="http://www.w3.org/2000/svg">
<circle cx="47" cy="47" r="47" fill="#0D333E"/>
<g clip-path="url(#clip0_7381_20192)">
<path d="M70 61.0001H59.25C59.082 61.0001 58.93 61.0801 58.784 61.1601L50.588 53.8001C49.394 52.7261 47.574 52.7821 46.448 53.9261L43.928 56.4841C43.554 56.8621 42.894 56.8621 42.514 56.4841C42.326 56.2941 42.222 56.0441 42.222 55.7761C42.222 55.5081 42.326 55.2581 42.514 55.0681L49.584 48.0761C50.324 47.3801 51.292 46.9961 52.308 46.9961C53.044 46.9961 54.62 47.4161 56.63 48.1481C58.174 48.7101 59.82 48.9961 61.52 48.9961H70C70.552 48.9961 71 48.5481 71 47.9961C71 47.4441 70.552 46.9961 70 46.9961H61.52C60.054 46.9961 58.638 46.7521 57.312 46.2701C56.708 46.0501 56.152 45.8621 55.636 45.6981C58.39 43.2461 59.998 39.7401 59.998 35.9961C59.998 28.8281 54.166 22.9961 46.998 22.9961C39.83 22.9961 33.998 28.8281 33.998 35.9961C33.998 39.6781 35.558 43.1241 38.228 45.5681C37.804 45.7101 37.354 45.8741 36.87 46.0681C35.338 46.6841 33.766 46.9961 32.196 46.9961H24C23.448 46.9961 23 47.4441 23 47.9961C23 48.5481 23.448 48.9961 24 48.9961H32.196C34.022 48.9961 35.846 48.6361 37.616 47.9241C39.624 47.1161 40.568 46.9961 40.998 46.9961C41.99 46.9961 42.94 47.3641 43.674 48.0321L45.292 49.5061L41.098 53.6521C40.532 54.2181 40.22 54.9721 40.22 55.7741C40.22 56.5761 40.532 57.3281 41.098 57.8961C42.232 59.0301 44.206 59.0321 45.346 57.8921L47.872 55.3281C48.246 54.9481 48.852 54.9281 49.252 55.2861L57.144 62.3721L49.96 67.9781C48.276 69.2901 45.722 69.2901 44.038 67.9781L35.364 61.2081C35.188 61.0701 34.972 60.9961 34.748 60.9961H24C23.448 60.9961 23 61.4441 23 61.9961C23 62.5481 23.448 62.9961 24 62.9961H34.406L42.808 69.5541C44 70.4841 45.488 70.9961 47 70.9961C48.512 70.9961 50 70.4841 51.192 69.5541L59.594 62.9961H70C70.552 62.9961 71 62.5481 71 61.9961C71 61.4441 70.552 60.9961 70 60.9961V61.0001ZM46.704 48.0881L45.024 46.5581C43.922 45.5541 42.492 45.0001 40.954 45.0001C40.886 45.0001 40.798 45.0161 40.726 45.0201C37.768 42.9581 36.002 39.6121 36.002 36.0001C36.002 29.9341 40.936 25.0001 47.002 25.0001C53.068 25.0001 58.002 29.9341 58.002 36.0001C58.002 39.6441 56.206 43.0261 53.196 45.0821C52.858 45.0281 52.562 45.0001 52.308 45.0001C50.78 45.0001 49.326 45.5781 48.234 46.6061L46.716 48.1061C46.716 48.1061 46.708 48.0941 46.702 48.0881H46.704ZM49.512 43.0001H48V44.0001C48 44.5521 47.552 45.0001 47 45.0001C46.448 45.0001 46 44.5521 46 44.0001V43.0001H44.486C42.852 43.0001 41.43 41.8641 41.03 40.2401C40.898 39.7041 41.226 39.1621 41.762 39.0301C42.298 38.8941 42.84 39.2261 42.972 39.7621C43.152 40.4921 43.774 41.0021 44.486 41.0021H49.512C50.376 41.0021 51.078 40.2561 51.078 39.3421C51.078 38.6001 50.608 37.9421 49.934 37.7441L43.746 36.1901C42.188 35.7301 41.128 34.2841 41.128 32.6621C41.128 30.6441 42.728 29.0021 44.694 29.0021H46V28.0021C46 27.4501 46.448 27.0021 47 27.0021C47.552 27.0021 48 27.4501 48 28.0021V29.0021H49.514C51.148 29.0021 52.57 30.1381 52.97 31.7621C53.102 32.2981 52.774 32.8401 52.238 32.9721C51.706 33.1101 51.16 32.7761 51.028 32.2401C50.848 31.5101 50.226 31.0001 49.514 31.0001H44.692C43.828 31.0001 43.126 31.7461 43.126 32.6601C43.126 33.4021 43.596 34.0601 44.27 34.2581L50.458 35.8121C52.016 36.2721 53.076 37.7181 53.076 39.3401C53.076 41.3581 51.478 43.0001 49.512 43.0001Z" fill="white"/>
</g>
<defs>
<clipPath id="clip0_7381_20192">
<rect width="48" height="48" fill="white" transform="translate(23 23)"/>
</clipPath>
</defs>
</svg>
