<svg width="56" height="56" viewBox="0 0 56 56" fill="none" xmlns="http://www.w3.org/2000/svg">
<g clip-path="url(#clip0_7386_20213)">
<path d="M41.8271 0C34.1061 0 27.8271 6.279 27.8271 14C27.8271 21.721 34.1061 28 41.8271 28C49.5481 28 55.8271 21.721 55.8271 14C55.8271 6.279 49.5481 0 41.8271 0ZM37.1278 24.661C37.1348 24.6073 37.1604 24.5583 37.1604 24.5V23.3333C37.1604 20.7597 39.2534 18.6667 41.8271 18.6667C44.4008 18.6667 46.4938 20.7597 46.4938 23.3333V24.5C46.4938 24.556 46.5171 24.605 46.5264 24.661C45.0868 25.298 43.5024 25.6667 41.8271 25.6667C40.1518 25.6667 38.5698 25.298 37.1278 24.661ZM48.8201 23.2797C48.7898 19.446 45.6678 16.3357 41.8247 16.3357C37.9818 16.3357 34.8598 19.446 34.8294 23.2797C32.0108 21.147 30.1581 17.801 30.1581 14.0023C30.1581 7.56933 35.3918 2.33567 41.8247 2.33567C48.2578 2.33567 53.4914 7.56933 53.4914 14.0023C53.4914 17.801 51.6388 21.1493 48.8201 23.2797ZM41.8247 4.669C39.2511 4.669 37.1581 6.762 37.1581 9.33567C37.1581 11.9093 39.2511 14.0023 41.8247 14.0023C44.3984 14.0023 46.4914 11.9093 46.4914 9.33567C46.4914 6.762 44.3984 4.669 41.8247 4.669ZM41.8247 11.669C40.5368 11.669 39.4914 10.6237 39.4914 9.33567C39.4914 8.04767 40.5368 7.00233 41.8247 7.00233C43.1128 7.00233 44.1581 8.04767 44.1581 9.33567C44.1581 10.6237 43.1128 11.669 41.8247 11.669ZM36.3438 33.705C34.4514 31.8103 31.1451 31.8103 29.2504 33.705L20.3464 42.609C18.3444 44.611 15.1244 44.807 13.1644 43.0477C12.1214 42.1097 11.5288 40.8217 11.4914 39.4263C11.4541 38.0287 11.9768 36.715 12.9661 35.728L22.3671 26.327C23.2491 25.445 23.7344 24.2737 23.7344 23.0277C23.7344 21.7817 23.2491 20.6103 22.3671 19.7283L20.7898 18.1487C18.9721 16.331 16.0111 16.331 14.1911 18.1487L5.14709 27.1927C-1.38858 33.7307 -1.75258 44.3053 4.33509 50.7687C7.44542 54.0727 11.6524 55.93 16.1838 55.9977H16.4404C20.8738 55.9977 25.0341 54.278 28.1748 51.135L37.4288 41.881C39.3864 39.9233 39.3864 36.743 37.4288 34.7853L36.3438 33.705ZM17.4881 19.117C18.0854 19.117 18.6851 19.3457 19.1401 19.7983L20.7174 21.378C21.1584 21.819 21.4011 22.4047 21.4011 23.0277C21.4011 23.6507 21.1584 24.2363 20.7174 24.6773L19.7094 25.6853L14.8304 20.8063L15.8384 19.7983C16.2934 19.3457 16.8908 19.117 17.4881 19.117ZM26.5228 49.4877C23.7694 52.241 20.0571 53.62 16.2141 53.6667C12.3221 53.6083 8.70542 52.01 6.02909 49.1703C0.797755 43.6147 1.14075 34.496 6.79442 28.8423L13.1808 22.456L18.0598 27.335L11.3164 34.0783C9.87209 35.5227 9.10442 37.443 9.15809 39.487C9.21175 41.5287 10.0798 43.4093 11.6034 44.7813C14.5154 47.3993 19.0771 47.1753 21.9961 44.2587L28.4898 37.7627L33.3664 42.6417L26.5228 49.4877ZM35.7768 40.2337L35.0161 40.9943L30.1394 36.1153L30.9001 35.3547C31.9174 34.3443 33.6814 34.335 34.6941 35.3547L35.7791 36.4373C36.8244 37.4827 36.8221 39.1883 35.7768 40.2337Z" fill="white"/>
</g>
<defs>
<clipPath id="clip0_7386_20213">
<rect width="56" height="56" fill="white"/>
</clipPath>
</defs>
</svg>
