<svg width="300" height="522" viewBox="0 0 370 522" fill="none" xmlns="http://www.w3.org/2000/svg">
<g filter="url(#filter0_d_358_139)">
<rect x="18" y="14" width="334" height="486" fill="white"/>
</g>
<path d="M78.952 71.384C78.952 72.5147 78.6853 73.5813 78.152 74.584C77.6187 75.5867 76.7653 76.408 75.592 77.048C74.4187 77.6667 72.9147 77.976 71.08 77.976H67.048V87H63.4V64.76H71.08C72.7867 64.76 74.2267 65.0587 75.4 65.656C76.5947 66.232 77.48 67.0213 78.056 68.024C78.6533 69.0267 78.952 70.1467 78.952 71.384ZM71.08 75C72.4667 75 73.5013 74.6907 74.184 74.072C74.8667 73.432 75.208 72.536 75.208 71.384C75.208 68.952 73.832 67.736 71.08 67.736H67.048V75H71.08ZM92.5753 87.224C90.5059 87.224 88.5966 86.744 86.8473 85.784C85.1193 84.8027 83.7433 83.448 82.7193 81.72C81.7166 79.9707 81.2153 78.008 81.2153 75.832C81.2153 73.656 81.7166 71.704 82.7193 69.976C83.7433 68.248 85.1193 66.904 86.8473 65.944C88.5966 64.9627 90.5059 64.472 92.5753 64.472C94.6659 64.472 96.5753 64.9627 98.3033 65.944C100.053 66.904 101.429 68.248 102.431 69.976C103.434 71.704 103.935 73.656 103.935 75.832C103.935 78.008 103.434 79.9707 102.431 81.72C101.429 83.448 100.053 84.8027 98.3033 85.784C96.5753 86.744 94.6659 87.224 92.5753 87.224ZM92.5753 84.056C94.0473 84.056 95.3593 83.7253 96.5113 83.064C97.6633 82.3813 98.5593 81.4213 99.1993 80.184C99.8606 78.9253 100.191 77.4747 100.191 75.832C100.191 74.1893 99.8606 72.7493 99.1993 71.512C98.5593 70.2747 97.6633 69.3253 96.5113 68.664C95.3593 68.0027 94.0473 67.672 92.5753 67.672C91.1033 67.672 89.7913 68.0027 88.6393 68.664C87.4873 69.3253 86.5806 70.2747 85.9193 71.512C85.2793 72.7493 84.9593 74.1893 84.9593 75.832C84.9593 77.4747 85.2793 78.9253 85.9193 80.184C86.5806 81.4213 87.4873 82.3813 88.6393 83.064C89.7913 83.7253 91.1033 84.056 92.5753 84.056ZM114.853 87.224C113.36 87.224 112.016 86.968 110.821 86.456C109.626 85.9227 108.688 85.176 108.005 84.216C107.322 83.256 106.981 82.136 106.981 80.856H110.885C110.97 81.816 111.344 82.6053 112.005 83.224C112.688 83.8427 113.637 84.152 114.853 84.152C116.112 84.152 117.093 83.8533 117.797 83.256C118.501 82.6373 118.853 81.848 118.853 80.888C118.853 80.1413 118.629 79.5333 118.181 79.064C117.754 78.5947 117.21 78.232 116.549 77.976C115.909 77.72 115.013 77.4427 113.861 77.144C112.41 76.76 111.226 76.376 110.309 75.992C109.413 75.5867 108.645 74.968 108.005 74.136C107.365 73.304 107.045 72.1947 107.045 70.808C107.045 69.528 107.365 68.408 108.005 67.448C108.645 66.488 109.541 65.752 110.693 65.24C111.845 64.728 113.178 64.472 114.693 64.472C116.848 64.472 118.608 65.016 119.973 66.104C121.36 67.1707 122.128 68.6427 122.277 70.52H118.245C118.181 69.7093 117.797 69.016 117.093 68.44C116.389 67.864 115.461 67.576 114.309 67.576C113.264 67.576 112.41 67.8427 111.749 68.376C111.088 68.9093 110.757 69.6773 110.757 70.68C110.757 71.3627 110.96 71.928 111.365 72.376C111.792 72.8027 112.325 73.144 112.965 73.4C113.605 73.656 114.48 73.9333 115.589 74.232C117.061 74.6373 118.256 75.0427 119.173 75.448C120.112 75.8533 120.901 76.4827 121.541 77.336C122.202 78.168 122.533 79.288 122.533 80.696C122.533 81.8267 122.224 82.8933 121.605 83.896C121.008 84.8987 120.122 85.7093 118.949 86.328C117.797 86.9253 116.432 87.224 114.853 87.224ZM152.334 87L149.582 84.248C148.515 85.3147 147.353 86.1147 146.094 86.648C144.835 87.16 143.427 87.416 141.87 87.416C140.291 87.416 138.894 87.1387 137.678 86.584C136.462 86.0293 135.523 85.24 134.862 84.216C134.201 83.1707 133.87 81.9653 133.87 80.6C133.87 79.064 134.307 77.6987 135.182 76.504C136.057 75.288 137.358 74.328 139.086 73.624C138.467 72.8773 138.03 72.184 137.774 71.544C137.518 70.8827 137.39 70.1573 137.39 69.368C137.39 68.3867 137.635 67.512 138.126 66.744C138.638 65.976 139.363 65.368 140.302 64.92C141.241 64.472 142.329 64.248 143.566 64.248C144.825 64.248 145.891 64.4933 146.766 64.984C147.662 65.4533 148.323 66.104 148.75 66.936C149.198 67.768 149.379 68.696 149.294 69.72H145.646C145.667 68.9307 145.475 68.3227 145.07 67.896C144.665 67.448 144.11 67.224 143.406 67.224C142.702 67.224 142.126 67.4373 141.678 67.864C141.251 68.2693 141.038 68.7707 141.038 69.368C141.038 69.944 141.198 70.52 141.518 71.096C141.859 71.6507 142.446 72.376 143.278 73.272L149.166 79.128L151.438 75.384H155.374L152.494 80.312L151.694 81.624L157.102 87H152.334ZM141.87 84.312C143.875 84.312 145.646 83.4907 147.182 81.848L141.294 75.928C138.777 76.9307 137.518 78.4453 137.518 80.472C137.518 81.56 137.923 82.4773 138.734 83.224C139.545 83.9493 140.59 84.312 141.87 84.312ZM183.358 71.384C183.358 72.5147 183.092 73.5813 182.558 74.584C182.025 75.5867 181.172 76.408 179.998 77.048C178.825 77.6667 177.321 77.976 175.486 77.976H171.454V87H167.806V64.76H175.486C177.193 64.76 178.633 65.0587 179.806 65.656C181.001 66.232 181.886 67.0213 182.462 68.024C183.06 69.0267 183.358 70.1467 183.358 71.384ZM175.486 75C176.873 75 177.908 74.6907 178.59 74.072C179.273 73.432 179.614 72.536 179.614 71.384C179.614 68.952 178.238 67.736 175.486 67.736H171.454V75H175.486ZM198.39 87L193.27 78.104H190.486V87H186.838V64.76H194.518C196.224 64.76 197.664 65.0587 198.838 65.656C200.032 66.2533 200.918 67.0533 201.494 68.056C202.091 69.0587 202.39 70.1787 202.39 71.416C202.39 72.8667 201.963 74.1893 201.11 75.384C200.278 76.5573 198.987 77.3573 197.238 77.784L202.742 87H198.39ZM190.486 75.192H194.518C195.883 75.192 196.907 74.8507 197.59 74.168C198.294 73.4853 198.646 72.568 198.646 71.416C198.646 70.264 198.304 69.368 197.622 68.728C196.939 68.0667 195.904 67.736 194.518 67.736H190.486V75.192ZM219.184 64.76V80.792C219.184 82.776 218.576 84.344 217.36 85.496C216.166 86.648 214.587 87.224 212.624 87.224C210.662 87.224 209.072 86.648 207.856 85.496C206.662 84.344 206.064 82.776 206.064 80.792H209.744C209.766 81.7733 210.011 82.552 210.48 83.128C210.971 83.704 211.686 83.992 212.624 83.992C213.563 83.992 214.278 83.704 214.768 83.128C215.259 82.5307 215.504 81.752 215.504 80.792V64.76H219.184ZM256.855 64.76V87H253.207V71.768L246.423 87H243.895L237.079 71.768V87H233.431V64.76H237.367L245.175 82.2L252.951 64.76H256.855ZM277.746 71.16C277.17 70.0507 276.37 69.2187 275.346 68.664C274.322 68.088 273.138 67.8 271.794 67.8C270.322 67.8 269.01 68.1307 267.858 68.792C266.706 69.4533 265.799 70.392 265.138 71.608C264.498 72.824 264.178 74.232 264.178 75.832C264.178 77.432 264.498 78.8507 265.138 80.088C265.799 81.304 266.706 82.2427 267.858 82.904C269.01 83.5653 270.322 83.896 271.794 83.896C273.778 83.896 275.389 83.3413 276.626 82.232C277.863 81.1227 278.621 79.6187 278.898 77.72H270.546V74.808H282.802V77.656C282.567 79.384 281.949 80.9733 280.946 82.424C279.965 83.8747 278.674 85.0373 277.074 85.912C275.495 86.7653 273.735 87.192 271.794 87.192C269.703 87.192 267.794 86.712 266.066 85.752C264.338 84.7707 262.962 83.416 261.938 81.688C260.935 79.96 260.434 78.008 260.434 75.832C260.434 73.656 260.935 71.704 261.938 69.976C262.962 68.248 264.338 66.904 266.066 65.944C267.815 64.9627 269.725 64.472 271.794 64.472C274.162 64.472 276.263 65.0587 278.098 66.232C279.954 67.384 281.298 69.0267 282.13 71.16H277.746ZM300.768 64.76V67.736H294.848V87H291.2V67.736H285.248V64.76H300.768Z" fill="#0D333E"/>
<line x1="78.9954" y1="110.5" x2="296.005" y2="110.5" stroke="black"/>
<path d="M113.682 139.34V149H112.702V141.286L109.258 149H108.544L105.1 141.314V149H104.12V139.34H105.156L108.894 147.712L112.632 139.34H113.682ZM115.457 145.164C115.457 144.38 115.611 143.694 115.919 143.106C116.236 142.509 116.67 142.051 117.221 141.734C117.781 141.407 118.411 141.244 119.111 141.244C119.839 141.244 120.464 141.412 120.987 141.748C121.519 142.084 121.902 142.513 122.135 143.036V141.356H123.115V149H122.135V147.306C121.892 147.829 121.505 148.263 120.973 148.608C120.45 148.944 119.825 149.112 119.097 149.112C118.406 149.112 117.781 148.949 117.221 148.622C116.67 148.295 116.236 147.833 115.919 147.236C115.611 146.639 115.457 145.948 115.457 145.164ZM122.135 145.178C122.135 144.562 122.009 144.021 121.757 143.554C121.505 143.087 121.16 142.728 120.721 142.476C120.292 142.224 119.816 142.098 119.293 142.098C118.752 142.098 118.266 142.219 117.837 142.462C117.408 142.705 117.067 143.059 116.815 143.526C116.572 143.983 116.451 144.529 116.451 145.164C116.451 145.789 116.572 146.34 116.815 146.816C117.067 147.283 117.408 147.642 117.837 147.894C118.266 148.137 118.752 148.258 119.293 148.258C119.816 148.258 120.292 148.132 120.721 147.88C121.16 147.628 121.505 147.269 121.757 146.802C122.009 146.335 122.135 145.794 122.135 145.178ZM128.936 141.216C129.851 141.216 130.598 141.501 131.176 142.07C131.755 142.63 132.044 143.447 132.044 144.52V149H131.078V144.632C131.078 143.801 130.868 143.167 130.448 142.728C130.038 142.289 129.473 142.07 128.754 142.07C128.017 142.07 127.429 142.303 126.99 142.77C126.552 143.237 126.332 143.923 126.332 144.828V149H125.352V141.356H126.332V142.658C126.575 142.191 126.925 141.837 127.382 141.594C127.84 141.342 128.358 141.216 128.936 141.216ZM133.764 145.164C133.764 144.38 133.918 143.694 134.226 143.106C134.543 142.509 134.977 142.051 135.528 141.734C136.088 141.407 136.718 141.244 137.418 141.244C138.146 141.244 138.771 141.412 139.294 141.748C139.826 142.084 140.208 142.513 140.442 143.036V141.356H141.422V149H140.442V147.306C140.199 147.829 139.812 148.263 139.28 148.608C138.757 148.944 138.132 149.112 137.404 149.112C136.713 149.112 136.088 148.949 135.528 148.622C134.977 148.295 134.543 147.833 134.226 147.236C133.918 146.639 133.764 145.948 133.764 145.164ZM140.442 145.178C140.442 144.562 140.316 144.021 140.064 143.554C139.812 143.087 139.466 142.728 139.028 142.476C138.598 142.224 138.122 142.098 137.6 142.098C137.058 142.098 136.573 142.219 136.144 142.462C135.714 142.705 135.374 143.059 135.122 143.526C134.879 143.983 134.758 144.529 134.758 145.164C134.758 145.789 134.879 146.34 135.122 146.816C135.374 147.283 135.714 147.642 136.144 147.894C136.573 148.137 137.058 148.258 137.6 148.258C138.122 148.258 138.598 148.132 139.028 147.88C139.466 147.628 139.812 147.269 140.064 146.802C140.316 146.335 140.442 145.794 140.442 145.178ZM146.865 141.244C147.584 141.244 148.209 141.412 148.741 141.748C149.273 142.084 149.656 142.509 149.889 143.022V141.356H150.869V149.196C150.869 149.896 150.715 150.517 150.407 151.058C150.108 151.599 149.688 152.015 149.147 152.304C148.606 152.603 147.99 152.752 147.299 152.752C146.319 152.752 145.502 152.519 144.849 152.052C144.205 151.585 143.804 150.951 143.645 150.148H144.611C144.779 150.68 145.096 151.105 145.563 151.422C146.039 151.739 146.618 151.898 147.299 151.898C147.794 151.898 148.237 151.791 148.629 151.576C149.021 151.371 149.329 151.063 149.553 150.652C149.777 150.241 149.889 149.756 149.889 149.196V147.306C149.646 147.829 149.259 148.263 148.727 148.608C148.204 148.944 147.584 149.112 146.865 149.112C146.165 149.112 145.535 148.949 144.975 148.622C144.424 148.295 143.99 147.833 143.673 147.236C143.365 146.639 143.211 145.948 143.211 145.164C143.211 144.38 143.365 143.694 143.673 143.106C143.99 142.509 144.424 142.051 144.975 141.734C145.535 141.407 146.165 141.244 146.865 141.244ZM149.889 145.178C149.889 144.562 149.763 144.021 149.511 143.554C149.259 143.087 148.914 142.728 148.475 142.476C148.046 142.224 147.57 142.098 147.047 142.098C146.506 142.098 146.02 142.219 145.591 142.462C145.162 142.705 144.821 143.059 144.569 143.526C144.326 143.983 144.205 144.529 144.205 145.164C144.205 145.789 144.326 146.34 144.569 146.816C144.821 147.283 145.162 147.642 145.591 147.894C146.02 148.137 146.506 148.258 147.047 148.258C147.57 148.258 148.046 148.132 148.475 147.88C148.914 147.628 149.259 147.269 149.511 146.802C149.763 146.335 149.889 145.794 149.889 145.178ZM160.022 144.786C160.022 145.122 160.013 145.379 159.994 145.556H153.652C153.68 146.135 153.82 146.629 154.072 147.04C154.324 147.451 154.656 147.763 155.066 147.978C155.477 148.183 155.925 148.286 156.41 148.286C157.045 148.286 157.577 148.132 158.006 147.824C158.445 147.516 158.734 147.101 158.874 146.578H159.91C159.724 147.325 159.322 147.936 158.706 148.412C158.1 148.879 157.334 149.112 156.41 149.112C155.692 149.112 155.048 148.953 154.478 148.636C153.909 148.309 153.461 147.852 153.134 147.264C152.817 146.667 152.658 145.971 152.658 145.178C152.658 144.385 152.817 143.689 153.134 143.092C153.452 142.495 153.895 142.037 154.464 141.72C155.034 141.403 155.682 141.244 156.41 141.244C157.138 141.244 157.773 141.403 158.314 141.72C158.865 142.037 159.285 142.467 159.574 143.008C159.873 143.54 160.022 144.133 160.022 144.786ZM159.028 144.758C159.038 144.189 158.921 143.703 158.678 143.302C158.445 142.901 158.123 142.597 157.712 142.392C157.302 142.187 156.854 142.084 156.368 142.084C155.64 142.084 155.02 142.317 154.506 142.784C153.993 143.251 153.708 143.909 153.652 144.758H159.028ZM171.957 141.356L167.421 152.598H166.399L167.883 148.958L164.747 141.356H165.825L168.429 147.88L170.949 141.356H171.957ZM176.632 149.112C175.913 149.112 175.265 148.953 174.686 148.636C174.117 148.309 173.664 147.852 173.328 147.264C173.001 146.667 172.838 145.971 172.838 145.178C172.838 144.385 173.006 143.694 173.342 143.106C173.678 142.509 174.135 142.051 174.714 141.734C175.293 141.407 175.941 141.244 176.66 141.244C177.379 141.244 178.027 141.407 178.606 141.734C179.194 142.051 179.651 142.509 179.978 143.106C180.314 143.694 180.482 144.385 180.482 145.178C180.482 145.962 180.314 146.653 179.978 147.25C179.642 147.847 179.18 148.309 178.592 148.636C178.004 148.953 177.351 149.112 176.632 149.112ZM176.632 148.258C177.136 148.258 177.603 148.146 178.032 147.922C178.461 147.689 178.807 147.343 179.068 146.886C179.339 146.419 179.474 145.85 179.474 145.178C179.474 144.506 179.343 143.941 179.082 143.484C178.821 143.017 178.475 142.672 178.046 142.448C177.617 142.215 177.15 142.098 176.646 142.098C176.142 142.098 175.675 142.215 175.246 142.448C174.817 142.672 174.471 143.017 174.21 143.484C173.958 143.941 173.832 144.506 173.832 145.178C173.832 145.85 173.958 146.419 174.21 146.886C174.471 147.343 174.812 147.689 175.232 147.922C175.661 148.146 176.128 148.258 176.632 148.258ZM188.89 141.356V149H187.91V147.656C187.686 148.132 187.341 148.496 186.874 148.748C186.408 149 185.885 149.126 185.306 149.126C184.392 149.126 183.645 148.846 183.066 148.286C182.488 147.717 182.198 146.895 182.198 145.822V141.356H183.164V145.71C183.164 146.541 183.37 147.175 183.78 147.614C184.2 148.053 184.77 148.272 185.488 148.272C186.226 148.272 186.814 148.039 187.252 147.572C187.691 147.105 187.91 146.419 187.91 145.514V141.356H188.89ZM192.108 142.714C192.322 142.238 192.649 141.869 193.088 141.608C193.536 141.347 194.082 141.216 194.726 141.216V142.238H194.46C193.75 142.238 193.181 142.429 192.752 142.812C192.322 143.195 192.108 143.834 192.108 144.73V149H191.128V141.356H192.108V142.714ZM201.008 143.05C201.26 142.518 201.647 142.084 202.17 141.748C202.702 141.412 203.327 141.244 204.046 141.244C204.746 141.244 205.371 141.407 205.922 141.734C206.473 142.051 206.902 142.509 207.21 143.106C207.527 143.694 207.686 144.38 207.686 145.164C207.686 145.948 207.527 146.639 207.21 147.236C206.902 147.833 206.468 148.295 205.908 148.622C205.357 148.949 204.737 149.112 204.046 149.112C203.318 149.112 202.688 148.949 202.156 148.622C201.633 148.286 201.251 147.852 201.008 147.32V149H200.042V138.64H201.008V143.05ZM206.692 145.164C206.692 144.529 206.566 143.983 206.314 143.526C206.071 143.059 205.735 142.705 205.306 142.462C204.877 142.219 204.391 142.098 203.85 142.098C203.327 142.098 202.847 142.224 202.408 142.476C201.979 142.728 201.638 143.087 201.386 143.554C201.134 144.021 201.008 144.562 201.008 145.178C201.008 145.794 201.134 146.335 201.386 146.802C201.638 147.269 201.979 147.628 202.408 147.88C202.847 148.132 203.327 148.258 203.85 148.258C204.391 148.258 204.877 148.137 205.306 147.894C205.735 147.642 206.071 147.283 206.314 146.816C206.566 146.34 206.692 145.789 206.692 145.164ZM216.111 141.356V149H215.131V147.656C214.907 148.132 214.562 148.496 214.095 148.748C213.628 149 213.106 149.126 212.527 149.126C211.612 149.126 210.866 148.846 210.287 148.286C209.708 147.717 209.419 146.895 209.419 145.822V141.356H210.385V145.71C210.385 146.541 210.59 147.175 211.001 147.614C211.421 148.053 211.99 148.272 212.709 148.272C213.446 148.272 214.034 148.039 214.473 147.572C214.912 147.105 215.131 146.419 215.131 145.514V141.356H216.111ZM220.981 149.112C220.103 149.112 219.385 148.911 218.825 148.51C218.274 148.099 217.966 147.544 217.901 146.844H218.909C218.955 147.273 219.156 147.623 219.511 147.894C219.875 148.155 220.36 148.286 220.967 148.286C221.499 148.286 221.914 148.16 222.213 147.908C222.521 147.656 222.675 147.343 222.675 146.97C222.675 146.709 222.591 146.494 222.423 146.326C222.255 146.158 222.04 146.027 221.779 145.934C221.527 145.831 221.181 145.724 220.743 145.612C220.173 145.463 219.711 145.313 219.357 145.164C219.002 145.015 218.699 144.795 218.447 144.506C218.204 144.207 218.083 143.811 218.083 143.316C218.083 142.943 218.195 142.597 218.419 142.28C218.643 141.963 218.96 141.711 219.371 141.524C219.781 141.337 220.248 141.244 220.771 141.244C221.592 141.244 222.255 141.454 222.759 141.874C223.263 142.285 223.533 142.854 223.571 143.582H222.591C222.563 143.134 222.385 142.775 222.059 142.504C221.741 142.224 221.303 142.084 220.743 142.084C220.248 142.084 219.847 142.201 219.539 142.434C219.231 142.667 219.077 142.957 219.077 143.302C219.077 143.601 219.165 143.848 219.343 144.044C219.529 144.231 219.758 144.38 220.029 144.492C220.299 144.595 220.663 144.711 221.121 144.842C221.671 144.991 222.11 145.136 222.437 145.276C222.763 145.416 223.043 145.621 223.277 145.892C223.51 146.163 223.631 146.522 223.641 146.97C223.641 147.381 223.529 147.749 223.305 148.076C223.081 148.393 222.768 148.645 222.367 148.832C221.965 149.019 221.503 149.112 220.981 149.112ZM225.975 139.914C225.779 139.914 225.611 139.844 225.471 139.704C225.331 139.564 225.261 139.391 225.261 139.186C225.261 138.981 225.331 138.813 225.471 138.682C225.611 138.542 225.779 138.472 225.975 138.472C226.171 138.472 226.339 138.542 226.479 138.682C226.619 138.813 226.689 138.981 226.689 139.186C226.689 139.391 226.619 139.564 226.479 139.704C226.339 139.844 226.171 139.914 225.975 139.914ZM226.465 141.356V149H225.485V141.356H226.465ZM232.268 141.216C233.183 141.216 233.93 141.501 234.508 142.07C235.087 142.63 235.376 143.447 235.376 144.52V149H234.41V144.632C234.41 143.801 234.2 143.167 233.78 142.728C233.37 142.289 232.805 142.07 232.086 142.07C231.349 142.07 230.761 142.303 230.322 142.77C229.884 143.237 229.664 143.923 229.664 144.828V149H228.684V141.356H229.664V142.658C229.907 142.191 230.257 141.837 230.714 141.594C231.172 141.342 231.69 141.216 232.268 141.216ZM244.46 144.786C244.46 145.122 244.45 145.379 244.432 145.556H238.09C238.118 146.135 238.258 146.629 238.51 147.04C238.762 147.451 239.093 147.763 239.504 147.978C239.914 148.183 240.362 148.286 240.848 148.286C241.482 148.286 242.014 148.132 242.444 147.824C242.882 147.516 243.172 147.101 243.312 146.578H244.348C244.161 147.325 243.76 147.936 243.144 148.412C242.537 148.879 241.772 149.112 240.848 149.112C240.129 149.112 239.485 148.953 238.916 148.636C238.346 148.309 237.898 147.852 237.572 147.264C237.254 146.667 237.096 145.971 237.096 145.178C237.096 144.385 237.254 143.689 237.572 143.092C237.889 142.495 238.332 142.037 238.902 141.72C239.471 141.403 240.12 141.244 240.848 141.244C241.576 141.244 242.21 141.403 242.752 141.72C243.302 142.037 243.722 142.467 244.012 143.008C244.31 143.54 244.46 144.133 244.46 144.786ZM243.466 144.758C243.475 144.189 243.358 143.703 243.116 143.302C242.882 142.901 242.56 142.597 242.15 142.392C241.739 142.187 241.291 142.084 240.806 142.084C240.078 142.084 239.457 142.317 238.944 142.784C238.43 143.251 238.146 143.909 238.09 144.758H243.466ZM248.885 149.112C248.007 149.112 247.289 148.911 246.729 148.51C246.178 148.099 245.87 147.544 245.805 146.844H246.813C246.859 147.273 247.06 147.623 247.415 147.894C247.779 148.155 248.264 148.286 248.871 148.286C249.403 148.286 249.818 148.16 250.117 147.908C250.425 147.656 250.579 147.343 250.579 146.97C250.579 146.709 250.495 146.494 250.327 146.326C250.159 146.158 249.944 146.027 249.683 145.934C249.431 145.831 249.085 145.724 248.647 145.612C248.077 145.463 247.615 145.313 247.261 145.164C246.906 145.015 246.603 144.795 246.351 144.506C246.108 144.207 245.987 143.811 245.987 143.316C245.987 142.943 246.099 142.597 246.323 142.28C246.547 141.963 246.864 141.711 247.275 141.524C247.685 141.337 248.152 141.244 248.675 141.244C249.496 141.244 250.159 141.454 250.663 141.874C251.167 142.285 251.437 142.854 251.475 143.582H250.495C250.467 143.134 250.289 142.775 249.963 142.504C249.645 142.224 249.207 142.084 248.647 142.084C248.152 142.084 247.751 142.201 247.443 142.434C247.135 142.667 246.981 142.957 246.981 143.302C246.981 143.601 247.069 143.848 247.247 144.044C247.433 144.231 247.662 144.38 247.933 144.492C248.203 144.595 248.567 144.711 249.025 144.842C249.575 144.991 250.014 145.136 250.341 145.276C250.667 145.416 250.947 145.621 251.181 145.892C251.414 146.163 251.535 146.522 251.545 146.97C251.545 147.381 251.433 147.749 251.209 148.076C250.985 148.393 250.672 148.645 250.271 148.832C249.869 149.019 249.407 149.112 248.885 149.112ZM256.022 149.112C255.144 149.112 254.426 148.911 253.866 148.51C253.315 148.099 253.007 147.544 252.942 146.844H253.95C253.996 147.273 254.197 147.623 254.552 147.894C254.916 148.155 255.401 148.286 256.008 148.286C256.54 148.286 256.955 148.16 257.254 147.908C257.562 147.656 257.716 147.343 257.716 146.97C257.716 146.709 257.632 146.494 257.464 146.326C257.296 146.158 257.081 146.027 256.82 145.934C256.568 145.831 256.222 145.724 255.784 145.612C255.214 145.463 254.752 145.313 254.398 145.164C254.043 145.015 253.74 144.795 253.488 144.506C253.245 144.207 253.124 143.811 253.124 143.316C253.124 142.943 253.236 142.597 253.46 142.28C253.684 141.963 254.001 141.711 254.412 141.524C254.822 141.337 255.289 141.244 255.812 141.244C256.633 141.244 257.296 141.454 257.8 141.874C258.304 142.285 258.574 142.854 258.612 143.582H257.632C257.604 143.134 257.426 142.775 257.1 142.504C256.782 142.224 256.344 142.084 255.784 142.084C255.289 142.084 254.888 142.201 254.58 142.434C254.272 142.667 254.118 142.957 254.118 143.302C254.118 143.601 254.206 143.848 254.384 144.044C254.57 144.231 254.799 144.38 255.07 144.492C255.34 144.595 255.704 144.711 256.162 144.842C256.712 144.991 257.151 145.136 257.478 145.276C257.804 145.416 258.084 145.621 258.318 145.892C258.551 146.163 258.672 146.522 258.682 146.97C258.682 147.381 258.57 147.749 258.346 148.076C258.122 148.393 257.809 148.645 257.408 148.832C257.006 149.019 256.544 149.112 256.022 149.112Z" fill="black"/>
<path d="M115.916 247.732L112.01 257H111.016L114.964 247.816H109.364V246.976H115.916V247.732ZM117.067 249.062C117.067 248.465 117.249 247.984 117.613 247.62C117.986 247.247 118.458 247.06 119.027 247.06C119.606 247.06 120.077 247.247 120.441 247.62C120.814 247.984 121.001 248.465 121.001 249.062C121.001 249.669 120.814 250.159 120.441 250.532C120.077 250.896 119.606 251.078 119.027 251.078C118.458 251.078 117.986 250.896 117.613 250.532C117.249 250.159 117.067 249.669 117.067 249.062ZM124.907 247.2L119.167 257H118.173L123.927 247.2H124.907ZM119.027 247.69C118.672 247.69 118.388 247.811 118.173 248.054C117.968 248.287 117.865 248.623 117.865 249.062C117.865 249.501 117.968 249.841 118.173 250.084C118.388 250.327 118.672 250.448 119.027 250.448C119.382 250.448 119.666 250.327 119.881 250.084C120.096 249.841 120.203 249.501 120.203 249.062C120.203 248.633 120.096 248.297 119.881 248.054C119.666 247.811 119.382 247.69 119.027 247.69ZM122.107 255.138C122.107 254.531 122.289 254.046 122.653 253.682C123.026 253.309 123.498 253.122 124.067 253.122C124.636 253.122 125.103 253.309 125.467 253.682C125.84 254.046 126.027 254.531 126.027 255.138C126.027 255.745 125.84 256.235 125.467 256.608C125.103 256.972 124.636 257.154 124.067 257.154C123.498 257.154 123.026 256.972 122.653 256.608C122.289 256.235 122.107 255.745 122.107 255.138ZM124.067 253.766C123.712 253.766 123.428 253.887 123.213 254.13C122.998 254.373 122.891 254.709 122.891 255.138C122.891 255.567 122.998 255.903 123.213 256.146C123.428 256.389 123.712 256.51 124.067 256.51C124.422 256.51 124.702 256.393 124.907 256.16C125.122 255.917 125.229 255.577 125.229 255.138C125.229 254.699 125.122 254.363 124.907 254.13C124.702 253.887 124.422 253.766 124.067 253.766ZM134.931 257.112C134.212 257.112 133.564 256.953 132.985 256.636C132.416 256.309 131.963 255.852 131.627 255.264C131.3 254.667 131.137 253.971 131.137 253.178C131.137 252.385 131.305 251.694 131.641 251.106C131.977 250.509 132.434 250.051 133.013 249.734C133.592 249.407 134.24 249.244 134.959 249.244C135.678 249.244 136.326 249.407 136.905 249.734C137.493 250.051 137.95 250.509 138.277 251.106C138.613 251.694 138.781 252.385 138.781 253.178C138.781 253.962 138.613 254.653 138.277 255.25C137.941 255.847 137.479 256.309 136.891 256.636C136.303 256.953 135.65 257.112 134.931 257.112ZM134.931 256.258C135.435 256.258 135.902 256.146 136.331 255.922C136.76 255.689 137.106 255.343 137.367 254.886C137.638 254.419 137.773 253.85 137.773 253.178C137.773 252.506 137.642 251.941 137.381 251.484C137.12 251.017 136.774 250.672 136.345 250.448C135.916 250.215 135.449 250.098 134.945 250.098C134.441 250.098 133.974 250.215 133.545 250.448C133.116 250.672 132.77 251.017 132.509 251.484C132.257 251.941 132.131 252.506 132.131 253.178C132.131 253.85 132.257 254.419 132.509 254.886C132.77 255.343 133.111 255.689 133.531 255.922C133.96 256.146 134.427 256.258 134.931 256.258ZM143.577 250.182H141.799V257H140.819V250.182H139.755V249.356H140.819V248.824C140.819 247.993 141.029 247.382 141.449 246.99C141.879 246.598 142.569 246.402 143.521 246.402V247.242C142.887 247.242 142.439 247.363 142.177 247.606C141.925 247.849 141.799 248.255 141.799 248.824V249.356H143.577V250.182ZM148.13 250.182H146.352V257H145.372V250.182H144.308V249.356H145.372V248.824C145.372 247.993 145.582 247.382 146.002 246.99C146.431 246.598 147.122 246.402 148.074 246.402V247.242C147.439 247.242 146.991 247.363 146.73 247.606C146.478 247.849 146.352 248.255 146.352 248.824V249.356H148.13V250.182ZM156.525 250.182H154.747V257H153.767V250.182H152.703V249.356H153.767V248.824C153.767 247.993 153.977 247.382 154.397 246.99C154.826 246.598 155.517 246.402 156.469 246.402V247.242C155.834 247.242 155.386 247.363 155.125 247.606C154.873 247.849 154.747 248.255 154.747 248.824V249.356H156.525V250.182ZM161.413 257.112C160.695 257.112 160.046 256.953 159.467 256.636C158.898 256.309 158.445 255.852 158.109 255.264C157.783 254.667 157.619 253.971 157.619 253.178C157.619 252.385 157.787 251.694 158.123 251.106C158.459 250.509 158.917 250.051 159.495 249.734C160.074 249.407 160.723 249.244 161.441 249.244C162.16 249.244 162.809 249.407 163.387 249.734C163.975 250.051 164.433 250.509 164.759 251.106C165.095 251.694 165.263 252.385 165.263 253.178C165.263 253.962 165.095 254.653 164.759 255.25C164.423 255.847 163.961 256.309 163.373 256.636C162.785 256.953 162.132 257.112 161.413 257.112ZM161.413 256.258C161.917 256.258 162.384 256.146 162.813 255.922C163.243 255.689 163.588 255.343 163.849 254.886C164.12 254.419 164.255 253.85 164.255 253.178C164.255 252.506 164.125 251.941 163.863 251.484C163.602 251.017 163.257 250.672 162.827 250.448C162.398 250.215 161.931 250.098 161.427 250.098C160.923 250.098 160.457 250.215 160.027 250.448C159.598 250.672 159.253 251.017 158.991 251.484C158.739 251.941 158.613 252.506 158.613 253.178C158.613 253.85 158.739 254.419 158.991 254.886C159.253 255.343 159.593 255.689 160.013 255.922C160.443 256.146 160.909 256.258 161.413 256.258ZM168.03 250.714C168.244 250.238 168.571 249.869 169.01 249.608C169.458 249.347 170.004 249.216 170.648 249.216V250.238H170.382C169.672 250.238 169.103 250.429 168.674 250.812C168.244 251.195 168.03 251.834 168.03 252.73V257H167.05V249.356H168.03V250.714ZM175.712 249.524C175.777 248.675 176.104 248.007 176.692 247.522C177.289 247.027 178.059 246.78 179.002 246.78C179.627 246.78 180.164 246.892 180.612 247.116C181.06 247.34 181.396 247.648 181.62 248.04C181.853 248.423 181.97 248.857 181.97 249.342C181.97 249.93 181.797 250.439 181.452 250.868C181.106 251.297 180.616 251.563 179.982 251.666V251.736C180.644 251.867 181.172 252.156 181.564 252.604C181.956 253.043 182.152 253.621 182.152 254.34C182.152 255.143 181.881 255.801 181.34 256.314C180.808 256.818 180.033 257.07 179.016 257.07C178.045 257.07 177.247 256.818 176.622 256.314C175.996 255.801 175.637 255.077 175.544 254.144H176.496C176.58 254.769 176.841 255.278 177.28 255.67C177.718 256.053 178.297 256.244 179.016 256.244C179.725 256.244 180.266 256.057 180.64 255.684C181.022 255.311 181.214 254.835 181.214 254.256C181.214 252.837 180.192 252.128 178.148 252.128H177.84V251.302H178.162C180.066 251.302 181.018 250.681 181.018 249.44C181.018 248.899 180.84 248.465 180.486 248.138C180.131 247.802 179.627 247.634 178.974 247.634C178.339 247.634 177.812 247.802 177.392 248.138C176.981 248.465 176.738 248.927 176.664 249.524H175.712ZM197.095 249.216C197.991 249.216 198.719 249.501 199.279 250.07C199.848 250.63 200.133 251.447 200.133 252.52V257H199.167V252.632C199.167 251.801 198.966 251.167 198.565 250.728C198.164 250.289 197.618 250.07 196.927 250.07C196.208 250.07 195.634 250.308 195.205 250.784C194.776 251.26 194.561 251.951 194.561 252.856V257H193.595V252.632C193.595 251.801 193.394 251.167 192.993 250.728C192.592 250.289 192.041 250.07 191.341 250.07C190.622 250.07 190.048 250.308 189.619 250.784C189.19 251.26 188.975 251.951 188.975 252.856V257H187.995V249.356H188.975V250.672C189.218 250.196 189.563 249.837 190.011 249.594C190.459 249.342 190.958 249.216 191.509 249.216C192.172 249.216 192.75 249.375 193.245 249.692C193.749 250.009 194.113 250.476 194.337 251.092C194.542 250.485 194.892 250.023 195.387 249.706C195.891 249.379 196.46 249.216 197.095 249.216ZM205.655 257.112C204.937 257.112 204.288 256.953 203.709 256.636C203.14 256.309 202.687 255.852 202.351 255.264C202.025 254.667 201.861 253.971 201.861 253.178C201.861 252.385 202.029 251.694 202.365 251.106C202.701 250.509 203.159 250.051 203.737 249.734C204.316 249.407 204.965 249.244 205.683 249.244C206.402 249.244 207.051 249.407 207.629 249.734C208.217 250.051 208.675 250.509 209.001 251.106C209.337 251.694 209.505 252.385 209.505 253.178C209.505 253.962 209.337 254.653 209.001 255.25C208.665 255.847 208.203 256.309 207.615 256.636C207.027 256.953 206.374 257.112 205.655 257.112ZM205.655 256.258C206.159 256.258 206.626 256.146 207.055 255.922C207.485 255.689 207.83 255.343 208.091 254.886C208.362 254.419 208.497 253.85 208.497 253.178C208.497 252.506 208.367 251.941 208.105 251.484C207.844 251.017 207.499 250.672 207.069 250.448C206.64 250.215 206.173 250.098 205.669 250.098C205.165 250.098 204.699 250.215 204.269 250.448C203.84 250.672 203.495 251.017 203.233 251.484C202.981 251.941 202.855 252.506 202.855 253.178C202.855 253.85 202.981 254.419 203.233 254.886C203.495 255.343 203.835 255.689 204.255 255.922C204.685 256.146 205.151 256.258 205.655 256.258ZM214.876 249.216C215.791 249.216 216.537 249.501 217.116 250.07C217.695 250.63 217.984 251.447 217.984 252.52V257H217.018V252.632C217.018 251.801 216.808 251.167 216.388 250.728C215.977 250.289 215.413 250.07 214.694 250.07C213.957 250.07 213.369 250.303 212.93 250.77C212.491 251.237 212.272 251.923 212.272 252.828V257H211.292V249.356H212.272V250.658C212.515 250.191 212.865 249.837 213.322 249.594C213.779 249.342 214.297 249.216 214.876 249.216ZM221.425 250.182V254.928C221.425 255.395 221.514 255.717 221.691 255.894C221.869 256.071 222.181 256.16 222.629 256.16H223.525V257H222.475C221.785 257 221.271 256.841 220.935 256.524C220.599 256.197 220.431 255.665 220.431 254.928V250.182H219.367V249.356H220.431V247.438H221.425V249.356H223.525V250.182H221.425ZM228.781 249.216C229.36 249.216 229.878 249.337 230.335 249.58C230.802 249.823 231.166 250.196 231.427 250.7C231.698 251.195 231.833 251.801 231.833 252.52V257H230.867V252.632C230.867 251.801 230.657 251.167 230.237 250.728C229.827 250.289 229.262 250.07 228.543 250.07C227.806 250.07 227.218 250.303 226.779 250.77C226.341 251.237 226.121 251.923 226.121 252.828V257H225.141V246.64H226.121V250.658C226.364 250.201 226.719 249.846 227.185 249.594C227.661 249.342 228.193 249.216 228.781 249.216ZM236.633 257.112C235.756 257.112 235.037 256.911 234.477 256.51C233.926 256.099 233.618 255.544 233.553 254.844H234.561C234.608 255.273 234.808 255.623 235.163 255.894C235.527 256.155 236.012 256.286 236.619 256.286C237.151 256.286 237.566 256.16 237.865 255.908C238.173 255.656 238.327 255.343 238.327 254.97C238.327 254.709 238.243 254.494 238.075 254.326C237.907 254.158 237.692 254.027 237.431 253.934C237.179 253.831 236.834 253.724 236.395 253.612C235.826 253.463 235.364 253.313 235.009 253.164C234.654 253.015 234.351 252.795 234.099 252.506C233.856 252.207 233.735 251.811 233.735 251.316C233.735 250.943 233.847 250.597 234.071 250.28C234.295 249.963 234.612 249.711 235.023 249.524C235.434 249.337 235.9 249.244 236.423 249.244C237.244 249.244 237.907 249.454 238.411 249.874C238.915 250.285 239.186 250.854 239.223 251.582H238.243C238.215 251.134 238.038 250.775 237.711 250.504C237.394 250.224 236.955 250.084 236.395 250.084C235.9 250.084 235.499 250.201 235.191 250.434C234.883 250.667 234.729 250.957 234.729 251.302C234.729 251.601 234.818 251.848 234.995 252.044C235.182 252.231 235.41 252.38 235.681 252.492C235.952 252.595 236.316 252.711 236.773 252.842C237.324 252.991 237.762 253.136 238.089 253.276C238.416 253.416 238.696 253.621 238.929 253.892C239.162 254.163 239.284 254.522 239.293 254.97C239.293 255.381 239.181 255.749 238.957 256.076C238.733 256.393 238.42 256.645 238.019 256.832C237.618 257.019 237.156 257.112 236.633 257.112ZM252.021 252.24H248.899V255.39H247.989V252.24H244.881V251.4H247.989V248.25H248.899V251.4H252.021V252.24Z" fill="black"/>
<path d="M125.016 186.76V200.936C125.016 202.621 125.453 203.891 126.328 204.744C127.224 205.597 128.461 206.024 130.04 206.024C131.64 206.024 132.877 205.597 133.752 204.744C134.648 203.891 135.096 202.621 135.096 200.936V186.76H138.744V200.872C138.744 202.685 138.349 204.221 137.56 205.48C136.771 206.739 135.715 207.677 134.392 208.296C133.069 208.915 131.608 209.224 130.008 209.224C128.408 209.224 126.947 208.915 125.624 208.296C124.323 207.677 123.288 206.739 122.52 205.48C121.752 204.221 121.368 202.685 121.368 200.872V186.76H125.016ZM150.822 209.224C149.328 209.224 147.984 208.968 146.79 208.456C145.595 207.923 144.656 207.176 143.974 206.216C143.291 205.256 142.95 204.136 142.95 202.856H146.854C146.939 203.816 147.312 204.605 147.974 205.224C148.656 205.843 149.606 206.152 150.822 206.152C152.08 206.152 153.062 205.853 153.766 205.256C154.47 204.637 154.822 203.848 154.822 202.888C154.822 202.141 154.598 201.533 154.15 201.064C153.723 200.595 153.179 200.232 152.518 199.976C151.878 199.72 150.982 199.443 149.83 199.144C148.379 198.76 147.195 198.376 146.278 197.992C145.382 197.587 144.614 196.968 143.974 196.136C143.334 195.304 143.014 194.195 143.014 192.808C143.014 191.528 143.334 190.408 143.974 189.448C144.614 188.488 145.51 187.752 146.662 187.24C147.814 186.728 149.147 186.472 150.662 186.472C152.816 186.472 154.576 187.016 155.942 188.104C157.328 189.171 158.096 190.643 158.246 192.52H154.214C154.15 191.709 153.766 191.016 153.062 190.44C152.358 189.864 151.43 189.576 150.278 189.576C149.232 189.576 148.379 189.843 147.718 190.376C147.056 190.909 146.726 191.677 146.726 192.68C146.726 193.363 146.928 193.928 147.334 194.376C147.76 194.803 148.294 195.144 148.934 195.4C149.574 195.656 150.448 195.933 151.558 196.232C153.03 196.637 154.224 197.043 155.142 197.448C156.08 197.853 156.87 198.483 157.51 199.336C158.171 200.168 158.502 201.288 158.502 202.696C158.502 203.827 158.192 204.893 157.574 205.896C156.976 206.899 156.091 207.709 154.918 208.328C153.766 208.925 152.4 209.224 150.822 209.224ZM177.814 202.664C177.814 203.731 177.548 204.733 177.014 205.672C176.502 206.611 175.734 207.4 174.71 208.04C173.708 208.68 172.513 209.064 171.126 209.192V211.784H169.046V209.192C167.041 209 165.42 208.371 164.182 207.304C162.945 206.237 162.326 204.829 162.326 203.08H166.23C166.294 203.912 166.561 204.605 167.03 205.16C167.5 205.693 168.172 206.035 169.046 206.184V199.144C167.617 198.781 166.454 198.419 165.558 198.056C164.662 197.672 163.894 197.075 163.254 196.264C162.636 195.453 162.326 194.344 162.326 192.936C162.326 191.165 162.945 189.704 164.182 188.552C165.42 187.379 167.041 186.696 169.046 186.504V183.912H171.126V186.504C173.004 186.675 174.508 187.272 175.638 188.296C176.79 189.299 177.441 190.685 177.59 192.456H173.686C173.622 191.795 173.366 191.208 172.918 190.696C172.47 190.163 171.873 189.8 171.126 189.608V196.52C172.556 196.861 173.718 197.224 174.614 197.608C175.51 197.971 176.268 198.557 176.886 199.368C177.505 200.157 177.814 201.256 177.814 202.664ZM166.038 192.744C166.038 193.619 166.294 194.301 166.806 194.792C167.34 195.283 168.086 195.677 169.046 195.976V189.512C168.129 189.619 167.393 189.949 166.838 190.504C166.305 191.059 166.038 191.805 166.038 192.744ZM171.126 206.184C172.065 206.035 172.801 205.661 173.334 205.064C173.868 204.445 174.134 203.709 174.134 202.856C174.134 202.003 173.868 201.341 173.334 200.872C172.822 200.381 172.086 199.987 171.126 199.688V206.184ZM198.179 188.808H187.459V195.176C187.907 194.579 188.568 194.077 189.443 193.672C190.339 193.267 191.288 193.064 192.291 193.064C194.083 193.064 195.533 193.448 196.643 194.216C197.773 194.984 198.573 195.955 199.043 197.128C199.533 198.301 199.779 199.539 199.779 200.84C199.779 202.419 199.469 203.827 198.851 205.064C198.253 206.28 197.347 207.24 196.131 207.944C194.936 208.648 193.464 209 191.715 209C189.389 209 187.523 208.424 186.115 207.272C184.707 206.12 183.864 204.595 183.587 202.696H187.139C187.373 203.699 187.896 204.499 188.707 205.096C189.517 205.672 190.531 205.96 191.747 205.96C193.261 205.96 194.392 205.501 195.139 204.584C195.907 203.667 196.291 202.451 196.291 200.936C196.291 199.4 195.907 198.227 195.139 197.416C194.371 196.584 193.24 196.168 191.747 196.168C190.701 196.168 189.816 196.435 189.091 196.968C188.387 197.48 187.875 198.184 187.555 199.08H184.099V185.608H198.179V188.808ZM215.896 178.792L207.192 214.6H203.608L212.28 178.792H215.896ZM229.966 200.04C230.659 200.04 231.278 200.184 231.822 200.472C232.376 200.76 232.808 201.187 233.118 201.752C233.438 202.317 233.598 203 233.598 203.8V209H231.79V204.072C231.79 203.283 231.592 202.68 231.198 202.264C230.803 201.837 230.264 201.624 229.582 201.624C228.899 201.624 228.355 201.837 227.95 202.264C227.555 202.68 227.358 203.283 227.358 204.072V209H225.55V204.072C225.55 203.283 225.352 202.68 224.958 202.264C224.563 201.837 224.024 201.624 223.342 201.624C222.659 201.624 222.115 201.837 221.71 202.264C221.315 202.68 221.118 203.283 221.118 204.072V209H219.294V200.184H221.118V201.192C221.416 200.829 221.795 200.547 222.254 200.344C222.712 200.141 223.203 200.04 223.726 200.04C224.43 200.04 225.059 200.189 225.614 200.488C226.168 200.787 226.595 201.219 226.894 201.784C227.16 201.251 227.576 200.829 228.142 200.52C228.707 200.2 229.315 200.04 229.966 200.04ZM239.743 209.144C238.911 209.144 238.159 208.957 237.487 208.584C236.815 208.2 236.287 207.667 235.903 206.984C235.519 206.291 235.327 205.491 235.327 204.584C235.327 203.688 235.524 202.893 235.919 202.2C236.313 201.507 236.852 200.973 237.535 200.6C238.217 200.227 238.98 200.04 239.823 200.04C240.665 200.04 241.428 200.227 242.111 200.6C242.793 200.973 243.332 201.507 243.727 202.2C244.121 202.893 244.319 203.688 244.319 204.584C244.319 205.48 244.116 206.275 243.711 206.968C243.305 207.661 242.751 208.2 242.047 208.584C241.353 208.957 240.585 209.144 239.743 209.144ZM239.743 207.56C240.212 207.56 240.649 207.448 241.055 207.224C241.471 207 241.807 206.664 242.063 206.216C242.319 205.768 242.447 205.224 242.447 204.584C242.447 203.944 242.324 203.405 242.079 202.968C241.833 202.52 241.508 202.184 241.103 201.96C240.697 201.736 240.26 201.624 239.791 201.624C239.321 201.624 238.884 201.736 238.479 201.96C238.084 202.184 237.769 202.52 237.535 202.968C237.3 203.405 237.183 203.944 237.183 204.584C237.183 205.533 237.423 206.269 237.903 206.792C238.393 207.304 239.007 207.56 239.743 207.56Z" fill="black"/>
<rect x="64" y="294" width="232" height="51" rx="10" fill="#0A8543"/>
<rect x="64" y="387" width="232" height="51" rx="10" fill="#0D333E"/>
<path d="M148.37 318.556C149.078 318.688 149.66 319.042 150.116 319.618C150.572 320.194 150.8 320.854 150.8 321.598C150.8 322.27 150.632 322.864 150.296 323.38C149.972 323.884 149.498 324.28 148.874 324.568C148.25 324.856 147.512 325 146.66 325H141.242V312.436H146.426C147.278 312.436 148.01 312.574 148.622 312.85C149.246 313.126 149.714 313.51 150.026 314.002C150.35 314.494 150.512 315.052 150.512 315.676C150.512 316.408 150.314 317.02 149.918 317.512C149.534 318.004 149.018 318.352 148.37 318.556ZM143.762 317.62H146.066C146.666 317.62 147.128 317.488 147.452 317.224C147.776 316.948 147.938 316.558 147.938 316.054C147.938 315.55 147.776 315.16 147.452 314.884C147.128 314.608 146.666 314.47 146.066 314.47H143.762V317.62ZM146.3 322.948C146.912 322.948 147.386 322.804 147.722 322.516C148.07 322.228 148.244 321.82 148.244 321.292C148.244 320.752 148.064 320.332 147.704 320.032C147.344 319.72 146.858 319.564 146.246 319.564H143.762V322.948H146.3ZM162.222 315.028V325H159.684V323.74C159.36 324.172 158.934 324.514 158.406 324.766C157.89 325.006 157.326 325.126 156.714 325.126C155.934 325.126 155.244 324.964 154.644 324.64C154.044 324.304 153.57 323.818 153.222 323.182C152.886 322.534 152.718 321.766 152.718 320.878V315.028H155.238V320.518C155.238 321.31 155.436 321.922 155.832 322.354C156.228 322.774 156.768 322.984 157.452 322.984C158.148 322.984 158.694 322.774 159.09 322.354C159.486 321.922 159.684 321.31 159.684 320.518V315.028H162.222ZM174.249 315.028L168.075 329.716H165.393L167.553 324.748L163.557 315.028H166.383L168.957 321.994L171.567 315.028H174.249ZM190.642 325H188.122L182.416 316.378V325H179.896V312.418H182.416L188.122 321.058V312.418H190.642V325ZM197.561 325.162C196.601 325.162 195.737 324.952 194.969 324.532C194.201 324.1 193.595 323.494 193.151 322.714C192.719 321.934 192.503 321.034 192.503 320.014C192.503 318.994 192.725 318.094 193.169 317.314C193.625 316.534 194.243 315.934 195.023 315.514C195.803 315.082 196.673 314.866 197.633 314.866C198.593 314.866 199.463 315.082 200.243 315.514C201.023 315.934 201.635 316.534 202.079 317.314C202.535 318.094 202.763 318.994 202.763 320.014C202.763 321.034 202.529 321.934 202.061 322.714C201.605 323.494 200.981 324.1 200.189 324.532C199.409 324.952 198.533 325.162 197.561 325.162ZM197.561 322.966C198.017 322.966 198.443 322.858 198.839 322.642C199.247 322.414 199.571 322.078 199.811 321.634C200.051 321.19 200.171 320.65 200.171 320.014C200.171 319.066 199.919 318.34 199.415 317.836C198.923 317.32 198.317 317.062 197.597 317.062C196.877 317.062 196.271 317.32 195.779 317.836C195.299 318.34 195.059 319.066 195.059 320.014C195.059 320.962 195.293 321.694 195.761 322.21C196.241 322.714 196.841 322.966 197.561 322.966ZM218.435 315.028L215.519 325H212.801L210.983 318.034L209.165 325H206.429L203.495 315.028H206.051L207.815 322.624L209.723 315.028H212.387L214.259 322.606L216.023 315.028H218.435Z" fill="white"/>
<path d="M127.58 418.126C126.704 418.126 125.912 417.976 125.204 417.676C124.508 417.376 123.956 416.944 123.548 416.38C123.14 415.816 122.93 415.15 122.918 414.382H125.618C125.654 414.898 125.834 415.306 126.158 415.606C126.494 415.906 126.95 416.056 127.526 416.056C128.114 416.056 128.576 415.918 128.912 415.642C129.248 415.354 129.416 414.982 129.416 414.526C129.416 414.154 129.302 413.848 129.074 413.608C128.846 413.368 128.558 413.182 128.21 413.05C127.874 412.906 127.406 412.75 126.806 412.582C125.99 412.342 125.324 412.108 124.808 411.88C124.304 411.64 123.866 411.286 123.494 410.818C123.134 410.338 122.954 409.702 122.954 408.91C122.954 408.166 123.14 407.518 123.512 406.966C123.884 406.414 124.406 405.994 125.078 405.706C125.75 405.406 126.518 405.256 127.382 405.256C128.678 405.256 129.728 405.574 130.532 406.21C131.348 406.834 131.798 407.71 131.882 408.838H129.11C129.086 408.406 128.9 408.052 128.552 407.776C128.216 407.488 127.766 407.344 127.202 407.344C126.71 407.344 126.314 407.47 126.014 407.722C125.726 407.974 125.582 408.34 125.582 408.82C125.582 409.156 125.69 409.438 125.906 409.666C126.134 409.882 126.41 410.062 126.734 410.206C127.07 410.338 127.538 410.494 128.138 410.674C128.954 410.914 129.62 411.154 130.136 411.394C130.652 411.634 131.096 411.994 131.468 412.474C131.84 412.954 132.026 413.584 132.026 414.364C132.026 415.036 131.852 415.66 131.504 416.236C131.156 416.812 130.646 417.274 129.974 417.622C129.302 417.958 128.504 418.126 127.58 418.126ZM137.145 410.098V414.922C137.145 415.258 137.223 415.504 137.379 415.66C137.547 415.804 137.823 415.876 138.207 415.876H139.377V418H137.793C135.669 418 134.607 416.968 134.607 414.904V410.098H133.419V408.028H134.607V405.562H137.145V408.028H139.377V410.098H137.145ZM140.541 412.978C140.541 411.97 140.739 411.076 141.135 410.296C141.543 409.516 142.089 408.916 142.773 408.496C143.469 408.076 144.243 407.866 145.095 407.866C145.839 407.866 146.487 408.016 147.039 408.316C147.603 408.616 148.053 408.994 148.389 409.45V408.028H150.927V418H148.389V416.542C148.065 417.01 147.615 417.4 147.039 417.712C146.475 418.012 145.821 418.162 145.077 418.162C144.237 418.162 143.469 417.946 142.773 417.514C142.089 417.082 141.543 416.476 141.135 415.696C140.739 414.904 140.541 413.998 140.541 412.978ZM148.389 413.014C148.389 412.402 148.269 411.88 148.029 411.448C147.789 411.004 147.465 410.668 147.057 410.44C146.649 410.2 146.211 410.08 145.743 410.08C145.275 410.08 144.843 410.194 144.447 410.422C144.051 410.65 143.727 410.986 143.475 411.43C143.235 411.862 143.115 412.378 143.115 412.978C143.115 413.578 143.235 414.106 143.475 414.562C143.727 415.006 144.051 415.348 144.447 415.588C144.855 415.828 145.287 415.948 145.743 415.948C146.211 415.948 146.649 415.834 147.057 415.606C147.465 415.366 147.789 415.03 148.029 414.598C148.269 414.154 148.389 413.626 148.389 413.014ZM155.908 409.576C156.232 409.048 156.652 408.634 157.168 408.334C157.696 408.034 158.296 407.884 158.968 407.884V410.53H158.302C157.51 410.53 156.91 410.716 156.502 411.088C156.106 411.46 155.908 412.108 155.908 413.032V418H153.388V408.028H155.908V409.576ZM163.6 410.098V414.922C163.6 415.258 163.678 415.504 163.834 415.66C164.002 415.804 164.278 415.876 164.662 415.876H165.832V418H164.248C162.124 418 161.062 416.968 161.062 414.904V410.098H159.874V408.028H161.062V405.562H163.6V408.028H165.832V410.098H163.6ZM176.505 410.098H174.759V418H172.203V410.098H171.069V408.028H172.203V407.524C172.203 406.3 172.551 405.4 173.247 404.824C173.943 404.248 174.993 403.978 176.397 404.014V406.138C175.785 406.126 175.359 406.228 175.119 406.444C174.879 406.66 174.759 407.05 174.759 407.614V408.028H176.505V410.098ZM180.658 409.576C180.982 409.048 181.402 408.634 181.918 408.334C182.446 408.034 183.046 407.884 183.718 407.884V410.53H183.052C182.26 410.53 181.66 410.716 181.252 411.088C180.856 411.46 180.658 412.108 180.658 413.032V418H178.138V408.028H180.658V409.576ZM194.686 412.798C194.686 413.158 194.662 413.482 194.614 413.77H187.324C187.384 414.49 187.636 415.054 188.08 415.462C188.524 415.87 189.07 416.074 189.718 416.074C190.654 416.074 191.32 415.672 191.716 414.868H194.434C194.146 415.828 193.594 416.62 192.778 417.244C191.962 417.856 190.96 418.162 189.772 418.162C188.812 418.162 187.948 417.952 187.18 417.532C186.424 417.1 185.83 416.494 185.398 415.714C184.978 414.934 184.768 414.034 184.768 413.014C184.768 411.982 184.978 411.076 185.398 410.296C185.818 409.516 186.406 408.916 187.162 408.496C187.918 408.076 188.788 407.866 189.772 407.866C190.72 407.866 191.566 408.07 192.31 408.478C193.066 408.886 193.648 409.468 194.056 410.224C194.476 410.968 194.686 411.826 194.686 412.798ZM192.076 412.078C192.064 411.43 191.83 410.914 191.374 410.53C190.918 410.134 190.36 409.936 189.7 409.936C189.076 409.936 188.548 410.128 188.116 410.512C187.696 410.884 187.438 411.406 187.342 412.078H192.076ZM205.795 412.798C205.795 413.158 205.771 413.482 205.723 413.77H198.433C198.493 414.49 198.745 415.054 199.189 415.462C199.633 415.87 200.179 416.074 200.827 416.074C201.763 416.074 202.429 415.672 202.825 414.868H205.543C205.255 415.828 204.703 416.62 203.887 417.244C203.071 417.856 202.069 418.162 200.881 418.162C199.921 418.162 199.057 417.952 198.289 417.532C197.533 417.1 196.939 416.494 196.507 415.714C196.087 414.934 195.877 414.034 195.877 413.014C195.877 411.982 196.087 411.076 196.507 410.296C196.927 409.516 197.515 408.916 198.271 408.496C199.027 408.076 199.897 407.866 200.881 407.866C201.829 407.866 202.675 408.07 203.419 408.478C204.175 408.886 204.757 409.468 205.165 410.224C205.585 410.968 205.795 411.826 205.795 412.798ZM203.185 412.078C203.173 411.43 202.939 410.914 202.483 410.53C202.027 410.134 201.469 409.936 200.809 409.936C200.185 409.936 199.657 410.128 199.225 410.512C198.805 410.884 198.547 411.406 198.451 412.078H203.185ZM214.858 410.098V414.922C214.858 415.258 214.936 415.504 215.092 415.66C215.26 415.804 215.536 415.876 215.92 415.876H217.09V418H215.506C213.382 418 212.32 416.968 212.32 414.904V410.098H211.132V408.028H212.32V405.562H214.858V408.028H217.09V410.098H214.858ZM221.422 409.576C221.746 409.048 222.166 408.634 222.682 408.334C223.21 408.034 223.81 407.884 224.482 407.884V410.53H223.816C223.024 410.53 222.424 410.716 222.016 411.088C221.62 411.46 221.422 412.108 221.422 413.032V418H218.902V408.028H221.422V409.576ZM227.458 406.84C227.014 406.84 226.642 406.702 226.342 406.426C226.054 406.138 225.91 405.784 225.91 405.364C225.91 404.944 226.054 404.596 226.342 404.32C226.642 404.032 227.014 403.888 227.458 403.888C227.902 403.888 228.268 404.032 228.556 404.32C228.856 404.596 229.006 404.944 229.006 405.364C229.006 405.784 228.856 406.138 228.556 406.426C228.268 406.702 227.902 406.84 227.458 406.84ZM228.7 408.028V418H226.18V408.028H228.7ZM230.541 412.978C230.541 411.97 230.739 411.076 231.135 410.296C231.543 409.516 232.089 408.916 232.773 408.496C233.469 408.076 234.243 407.866 235.095 407.866C235.839 407.866 236.487 408.016 237.039 408.316C237.603 408.616 238.053 408.994 238.389 409.45V408.028H240.927V418H238.389V416.542C238.065 417.01 237.615 417.4 237.039 417.712C236.475 418.012 235.821 418.162 235.077 418.162C234.237 418.162 233.469 417.946 232.773 417.514C232.089 417.082 231.543 416.476 231.135 415.696C230.739 414.904 230.541 413.998 230.541 412.978ZM238.389 413.014C238.389 412.402 238.269 411.88 238.029 411.448C237.789 411.004 237.465 410.668 237.057 410.44C236.649 410.2 236.211 410.08 235.743 410.08C235.275 410.08 234.843 410.194 234.447 410.422C234.051 410.65 233.727 410.986 233.475 411.43C233.235 411.862 233.115 412.378 233.115 412.978C233.115 413.578 233.235 414.106 233.475 414.562C233.727 415.006 234.051 415.348 234.447 415.588C234.855 415.828 235.287 415.948 235.743 415.948C236.211 415.948 236.649 415.834 237.057 415.606C237.465 415.366 237.789 415.03 238.029 414.598C238.269 414.154 238.389 413.626 238.389 413.014ZM245.908 404.68V418H243.388V404.68H245.908Z" fill="white"/>
<defs>
<filter id="filter0_d_358_139" x="0" y="0" width="370" height="522" filterUnits="userSpaceOnUse" color-interpolation-filters="sRGB">
<feFlood flood-opacity="0" result="BackgroundImageFix"/>
<feColorMatrix in="SourceAlpha" type="matrix" values="0 0 0 0 0 0 0 0 0 0 0 0 0 0 0 0 0 0 127 0" result="hardAlpha"/>
<feOffset dy="4"/>
<feGaussianBlur stdDeviation="9"/>
<feComposite in2="hardAlpha" operator="out"/>
<feColorMatrix type="matrix" values="0 0 0 0 0 0 0 0 0 0 0 0 0 0 0 0 0 0 0.25 0"/>
<feBlend mode="normal" in2="BackgroundImageFix" result="effect1_dropShadow_358_139"/>
<feBlend mode="normal" in="SourceGraphic" in2="effect1_dropShadow_358_139" result="shape"/>
</filter>
</defs>
</svg>
