<svg width="20" height="20" viewBox="0 0 20 20" fill="none" xmlns="http://www.w3.org/2000/svg">
<path d="M1.6719 3.78455C1.58782 2.59347 2.59642 1.6665 3.78801 1.6665H6.33871C6.95038 1.6665 7.50205 2.03505 7.73731 2.60084L8.80393 5.16605C9.06377 5.79094 8.87936 6.51271 8.35184 6.9356L7.68694 7.46862C7.39023 7.70649 7.28935 8.11666 7.46528 8.45381C8.36944 10.1866 9.70566 11.6572 11.3306 12.722C11.6737 12.9468 12.1267 12.8574 12.3826 12.5369L13.0755 11.669C13.4975 11.1404 14.2178 10.9556 14.8414 11.216L17.4013 12.2848C17.9659 12.5206 18.3337 13.0734 18.3337 13.6864V16.2498C18.3337 17.4439 17.3744 18.4128 16.1858 18.3282C8.58545 17.7875 2.21071 11.418 1.6719 3.78455Z" fill="#181F38"/>
</svg>
