<svg width="20" height="20" viewBox="0 0 20 20" fill="none" xmlns="http://www.w3.org/2000/svg">
<path d="M9.37461 6.7334V9.11673L8.53294 8.82507C8.10794 8.67507 7.84961 8.5334 7.84961 7.8084C7.84961 7.21673 8.29128 6.7334 8.83294 6.7334H9.37461Z" fill="#181F38"/>
<path d="M12.15 12.1916C12.15 12.7833 11.7083 13.2666 11.1667 13.2666H10.625V10.8833L11.4667 11.175C11.8917 11.325 12.15 11.4666 12.15 12.1916Z" fill="#181F38"/>
<path d="M13.492 1.6665H6.50866C3.47533 1.6665 1.66699 3.47484 1.66699 6.50817V13.4915C1.66699 16.5248 3.47533 18.3332 6.50866 18.3332H13.492C16.5253 18.3332 18.3337 16.5248 18.3337 13.4915V6.50817C18.3337 3.47484 16.5253 1.6665 13.492 1.6665ZM11.8837 9.99984C12.5337 10.2248 13.4003 10.6998 13.4003 12.1915C13.4003 13.4748 12.4003 14.5165 11.167 14.5165H10.6253V14.9998C10.6253 15.3415 10.342 15.6248 10.0003 15.6248C9.65866 15.6248 9.37533 15.3415 9.37533 14.9998V14.5165H9.07533C7.70866 14.5165 6.60033 13.3582 6.60033 11.9415C6.60033 11.5998 6.87533 11.3165 7.22533 11.3165C7.56699 11.3165 7.85033 11.5998 7.85033 11.9415C7.85033 12.6748 8.40033 13.2665 9.07533 13.2665H9.37533V10.4415L8.11699 9.99984C7.46699 9.77484 6.60033 9.29984 6.60033 7.80817C6.60033 6.52484 7.60033 5.48317 8.83366 5.48317H9.37533V4.99984C9.37533 4.65817 9.65866 4.37484 10.0003 4.37484C10.342 4.37484 10.6253 4.65817 10.6253 4.99984V5.48317H10.9253C12.292 5.48317 13.4003 6.6415 13.4003 8.05817C13.4003 8.39984 13.1253 8.68317 12.7753 8.68317C12.4337 8.68317 12.1503 8.39984 12.1503 8.05817C12.1503 7.32484 11.6003 6.73317 10.9253 6.73317H10.6253V9.55817L11.8837 9.99984Z" fill="#181F38"/>
</svg>
