<svg width="20" height="20" viewBox="0 0 20 20" fill="none" xmlns="http://www.w3.org/2000/svg">
<path fill-rule="evenodd" clip-rule="evenodd" d="M9.48836 19.8242L9.48627 19.8226L9.48111 19.8185L9.46282 19.8041C9.44714 19.7918 9.42455 19.7739 9.39552 19.7507C9.33746 19.7042 9.25359 19.6364 9.14759 19.5489C8.93566 19.374 8.63488 19.12 8.27481 18.7999C7.55584 18.1608 6.59473 17.2534 5.63091 16.1825C4.66952 15.1143 3.68943 13.8658 2.94589 12.544C2.20667 11.2298 1.66699 9.78278 1.66699 8.33333C1.66699 6.1232 2.54497 4.00358 4.10777 2.44078C5.67057 0.877974 7.79019 0 10.0003 0C12.2105 0 14.3301 0.877974 15.8929 2.44078C17.4557 4.00358 18.3337 6.1232 18.3337 8.33333C18.3337 9.78278 17.794 11.2298 17.0548 12.544C16.3112 13.8658 15.3311 15.1143 14.3697 16.1825C13.4059 17.2534 12.4448 18.1608 11.7258 18.7999C11.3658 19.12 11.065 19.374 10.8531 19.5489C10.7471 19.6364 10.6632 19.7042 10.6051 19.7507C10.5761 19.7739 10.5535 19.7918 10.5378 19.8041L10.5195 19.8185L10.5144 19.8226L10.5128 19.8238C10.5128 19.8238 10.5119 19.8245 10.0003 19.1667L10.5119 19.8245C10.211 20.0585 9.78928 20.0582 9.48836 19.8242ZM10.0003 19.1667L9.48836 19.8242C9.48836 19.8242 9.48871 19.8245 10.0003 19.1667ZM12.5003 8.33333C12.5003 9.71405 11.381 10.8333 10.0003 10.8333C8.61961 10.8333 7.50033 9.71405 7.50033 8.33333C7.50033 6.95262 8.61961 5.83333 10.0003 5.83333C11.381 5.83333 12.5003 6.95262 12.5003 8.33333Z" fill="#181F38"/>
</svg>
