<svg width="20" height="20" viewBox="0 0 20 20" fill="none" xmlns="http://www.w3.org/2000/svg">
<path d="M18.3337 15.8333V18.3333H1.66699V15.8333C1.66699 15.375 2.04199 15 2.50033 15H17.5003C17.9587 15 18.3337 15.375 18.3337 15.8333Z" fill="#181F38" stroke="#181F38" stroke-width="1.5" stroke-miterlimit="10" stroke-linecap="round" stroke-linejoin="round"/>
<path d="M5.83366 9.1665H4.16699V14.9998H5.83366V9.1665Z" fill="#181F38"/>
<path d="M9.16667 9.1665H7.5V14.9998H9.16667V9.1665Z" fill="#181F38"/>
<path d="M12.4997 9.1665H10.833V14.9998H12.4997V9.1665Z" fill="#181F38"/>
<path d="M15.8337 9.1665H14.167V14.9998H15.8337V9.1665Z" fill="#181F38"/>
<path d="M19.1663 18.9585H0.833008C0.491341 18.9585 0.208008 18.6752 0.208008 18.3335C0.208008 17.9918 0.491341 17.7085 0.833008 17.7085H19.1663C19.508 17.7085 19.7913 17.9918 19.7913 18.3335C19.7913 18.6752 19.508 18.9585 19.1663 18.9585Z" fill="#181F38"/>
<path d="M17.8087 4.7917L10.3087 1.7917C10.142 1.72503 9.85866 1.72503 9.69199 1.7917L2.19199 4.7917C1.90033 4.90837 1.66699 5.25003 1.66699 5.5667V8.33337C1.66699 8.7917 2.04199 9.1667 2.50033 9.1667H17.5003C17.9587 9.1667 18.3337 8.7917 18.3337 8.33337V5.5667C18.3337 5.25003 18.1003 4.90837 17.8087 4.7917ZM10.0003 7.08337C9.30866 7.08337 8.75033 6.52503 8.75033 5.83337C8.75033 5.1417 9.30866 4.58337 10.0003 4.58337C10.692 4.58337 11.2503 5.1417 11.2503 5.83337C11.2503 6.52503 10.692 7.08337 10.0003 7.08337Z" fill="#181F38"/>
</svg>
