<svg width="18" height="18" viewBox="0 0 18 18" fill="none" xmlns="http://www.w3.org/2000/svg">
<path fill-rule="evenodd" clip-rule="evenodd" d="M8.99987 1.875C5.85686 1.875 3.60469 3.63245 2.17708 5.30138C1.31312 6.31137 0.58873 7.4511 0.0583968 8.67137C-0.0169661 8.84477 -0.0195128 9.04113 0.0514969 9.21636C0.553652 10.4555 1.25965 11.6161 2.11326 12.6433C3.52599 14.3432 5.78009 16.125 8.99987 16.125C12.2196 16.125 14.4737 14.3432 15.8865 12.6433C16.7401 11.6161 17.4461 10.4555 17.9482 9.21636C18.0192 9.04113 18.0167 8.84477 17.9414 8.67131C17.4087 7.44305 16.6962 6.32258 15.8227 5.30138C14.395 3.63245 12.1429 1.875 8.99987 1.875ZM11.625 9C11.625 10.4497 10.4497 11.625 9 11.625C7.55025 11.625 6.375 10.4497 6.375 9C6.375 7.55025 7.55025 6.375 9 6.375C10.4497 6.375 11.625 7.55025 11.625 9Z" fill="#181F38" fill-opacity="0.7"/>
</svg>
